<svg id="Layer_1" data-name="Layer 1" xmlns="http://www.w3.org/2000/svg" viewBox="0 0 100 100"><title>client-tpclao</title><circle cx="50.21" cy="50.26" r="43.79" style="fill:#1a1a1a"/><text transform="translate(15.41 43.29) rotate(-76.61)" style="font-size:8.264289855957031px;fill:#fff;font-family:PlantagenetCherokee, Plantagenet Cherokee"> </text><text transform="translate(16.33 39.74) rotate(-70.66)" style="font-size:8.264289855957031px;fill:#fff;font-family:PlantagenetCherokee, Plantagenet Cherokee"> </text><text transform="matrix(0.43, -0.9, 0.9, 0.43, 17.63, 36.29)" style="font-size:8.264289855957031px;fill:#fff;font-family:PlantagenetCherokee, Plantagenet Cherokee"> </text><text transform="matrix(0.56, -0.83, 0.83, 0.56, 19.18, 33.01)" style="font-size:8.264289855957031px;fill:#fff;font-family:PlantagenetCherokee, Plantagenet Cherokee">T</text><text transform="matrix(0.72, -0.69, 0.69, 0.72, 23.12, 27.28)" style="font-size:8.264289855957031px;fill:#fff;font-family:PlantagenetCherokee, Plantagenet Cherokee">H</text><text transform="translate(29.35 21.59) rotate(-30.95)" style="font-size:8.264289855957031px;fill:#fff;font-family:PlantagenetCherokee, Plantagenet Cherokee">A</text><text transform="translate(36.06 17.84) rotate(-19.63)" style="font-size:8.264289855957031px;fill:#fff;font-family:PlantagenetCherokee, Plantagenet Cherokee">P</text><text transform="translate(41.91 15.84) rotate(-8.47)" style="font-size:8.264289855957031px;fill:#fff;font-family:PlantagenetCherokee, Plantagenet Cherokee">A</text><text transform="matrix(1, 0.05, -0.05, 1, 49.53, 14.92)" style="font-size:8.264289855957031px;fill:#fff;font-family:PlantagenetCherokee, Plantagenet Cherokee">L</text><text transform="matrix(0.97, 0.25, -0.25, 0.97, 56.17, 15.37)" style="font-size:8.264289855957031px;fill:#fff;font-family:PlantagenetCherokee, Plantagenet Cherokee">A</text><text transform="translate(63.38 17.38) rotate(27.03)" style="font-size:8.264289855957031px;fill:#fff;font-family:PlantagenetCherokee, Plantagenet Cherokee">N</text><text transform="matrix(0.78, 0.62, -0.62, 0.78, 70.5, 21.31)" style="font-size:8.264289855957031px;fill:#fff;font-family:PlantagenetCherokee, Plantagenet Cherokee">S</text><text transform="translate(75.12 25.07) rotate(49.34)" style="font-size:8.264289855957031px;fill:#fff;font-family:PlantagenetCherokee, Plantagenet Cherokee">A</text><text transform="matrix(0.52, 0.86, -0.86, 0.52, 79.79, 30.88)" style="font-size:8.264289855957031px;fill:#fff;font-family:PlantagenetCherokee, Plantagenet Cherokee">I</text><text transform="matrix(0.41, 0.91, -0.91, 0.41, 82.18, 35.11)" style="font-size:8.264289855957031px;fill:#fff;font-family:PlantagenetCherokee, Plantagenet Cherokee"> </text><text transform="translate(83.02 37) rotate(69.42)" style="font-size:8.264289855957031px;fill:#fff;font-family:PlantagenetCherokee, Plantagenet Cherokee"> </text><text transform="matrix(0.56, 0.83, -0.83, 0.56, 14.72, 70.77)" style="font-size:8.264289855957031px;fill:#fff;font-family:PlantagenetCherokee, Plantagenet Cherokee"> </text><text transform="translate(16.06 72.8) rotate(51.73)" style="font-size:8.264289855957031px;fill:#fff;font-family:PlantagenetCherokee, Plantagenet Cherokee">P</text><text transform="matrix(0.67, 0.74, -0.74, 0.67, 19.15, 76.64)" style="font-size:8.264289855957031px;fill:#fff;font-family:PlantagenetCherokee, Plantagenet Cherokee"> </text><text transform="translate(20.78 78.53) rotate(42.43)" style="font-size:8.264289855957031px;fill:#fff;font-family:PlantagenetCherokee, Plantagenet Cherokee">O</text><text transform="matrix(0.8, 0.6, -0.6, 0.8, 25.69, 82.87)" style="font-size:8.264289855957031px;fill:#fff;font-family:PlantagenetCherokee, Plantagenet Cherokee"> </text><text transform="translate(27.64 84.39) rotate(31.89)" style="font-size:8.264289855957031px;fill:#fff;font-family:PlantagenetCherokee, Plantagenet Cherokee">L</text><text transform="translate(32.23 87.16) rotate(26.67)" style="font-size:8.264289855957031px;fill:#fff;font-family:PlantagenetCherokee, Plantagenet Cherokee"> </text><text transform="translate(34.43 88.33) rotate(21.13)" style="font-size:8.264289855957031px;fill:#fff;font-family:PlantagenetCherokee, Plantagenet Cherokee">Y</text><text transform="matrix(0.96, 0.27, -0.27, 0.96, 39.81, 90.31)" style="font-size:8.264289855957031px;fill:#fff;font-family:PlantagenetCherokee, Plantagenet Cherokee"> </text><text transform="matrix(0.98, 0.21, -0.21, 0.98, 42.1, 90.94)" style="font-size:8.264289855957031px;fill:#fff;font-family:PlantagenetCherokee, Plantagenet Cherokee"> </text><text transform="translate(44.53 91.54) rotate(6.79)" style="font-size:8.264289855957031px;fill:#fff;font-family:PlantagenetCherokee, Plantagenet Cherokee">C</text><text transform="translate(51.21 92.07) rotate(-9.4)" style="font-size:8.264289855957031px;fill:#fff;font-family:PlantagenetCherokee, Plantagenet Cherokee"> </text><text transform="translate(53.64 91.71) rotate(-13.85)" style="font-size:8.264289855957031px;fill:#fff;font-family:PlantagenetCherokee, Plantagenet Cherokee">L</text><text transform="translate(58.75 90.39) rotate(-17.72)" style="font-size:8.264289855957031px;fill:#fff;font-family:PlantagenetCherokee, Plantagenet Cherokee"> </text><text transform="translate(60.97 89.69) rotate(-20.54)" style="font-size:8.264289855957031px;fill:#fff;font-family:PlantagenetCherokee, Plantagenet Cherokee">I</text><text transform="translate(64.05 88.52) rotate(-23.43)" style="font-size:8.264289855957031px;fill:#fff;font-family:PlantagenetCherokee, Plantagenet Cherokee"> </text><text transform="translate(66.37 87.6) rotate(-28.47)" style="font-size:8.264289855957031px;fill:#fff;font-family:PlantagenetCherokee, Plantagenet Cherokee">N</text><text transform="matrix(0.83, -0.56, 0.56, 0.83, 72.31, 84.25)" style="font-size:8.264289855957031px;fill:#fff;font-family:PlantagenetCherokee, Plantagenet Cherokee"> </text><text transform="translate(74.3 82.92) rotate(-37.43)" style="font-size:8.264289855957031px;fill:#fff;font-family:PlantagenetCherokee, Plantagenet Cherokee">I</text><text transform="matrix(0.75, -0.66, 0.66, 0.75, 76.94, 80.88)" style="font-size:8.264289855957031px;fill:#fff;font-family:PlantagenetCherokee, Plantagenet Cherokee"> </text><text transform="matrix(0.68, -0.73, 0.73, 0.68, 78.9, 79.26)" style="font-size:8.264289855957031px;fill:#fff;font-family:PlantagenetCherokee, Plantagenet Cherokee">C</text><path d="M63.23,54.48v-.14c0-2.75,0-5.49,0-8.24A2.88,2.88,0,0,1,65,43.44a2.7,2.7,0,0,1,3.42,1.24,3.14,3.14,0,0,1,.39,1.52q0,7.36,0,14.72a11.68,11.68,0,0,1-.26,2.62,4.66,4.66,0,0,1-1.15,2.12c-.84.92-1.67,1.85-2.51,2.78L62,71.55l-.59.65a.28.28,0,0,0-.06.17q0,2.07,0,4.15v.18H52.14s0-.08,0-.12c0-2,0-4,0-6.06a14.4,14.4,0,0,1,.45-3.64,10.12,10.12,0,0,1,1.89-3.79,20.39,20.39,0,0,1,1.4-1.56c1.44-1.47,2.91-2.91,4.36-4.37a2.81,2.81,0,0,1,1.54-.84A2.62,2.62,0,0,1,64,57,2.71,2.71,0,0,1,65,58.77a2.6,2.6,0,0,1-.59,1.95,4.11,4.11,0,0,1-.32.35L58.18,67l-.13.12,0,0a6.9,6.9,0,0,0,2.78-.41,3.31,3.31,0,0,0,1.18-.78l2.62-2.67a14.32,14.32,0,0,0,1.54-1.73,3.5,3.5,0,0,0,.66-1.79,9.69,9.69,0,0,0,0-1.44,3.57,3.57,0,0,0-.62-1.7,4.9,4.9,0,0,0-2.61-2C63.53,54.54,63.39,54.52,63.23,54.48Z" style="fill:#fff"/><path d="M42.54,67.09,42.39,67,36.46,61a2.84,2.84,0,0,1-.82-1.43,2.58,2.58,0,0,1,.51-2.19,2.76,2.76,0,0,1,1.78-1.1,2.59,2.59,0,0,1,2,.5,3,3,0,0,1,.36.31c1.6,1.59,3.2,3.19,4.78,4.79a11.24,11.24,0,0,1,2.33,3.34,11.39,11.39,0,0,1,.79,2.65,17.28,17.28,0,0,1,.23,3q0,2.81,0,5.62v.17H39.19v-.17q0-2.07,0-4.15a.31.31,0,0,0-.09-.23L36.49,69.3l-2-2.15c-.57-.64-1.15-1.27-1.7-1.92a4.2,4.2,0,0,1-.86-2,13.57,13.57,0,0,1-.19-2.48q0-7.26,0-14.51A3,3,0,0,1,32.71,44a2.67,2.67,0,0,1,3.69,0,2.84,2.84,0,0,1,.9,1.67,3.16,3.16,0,0,1,0,.47q0,4.12,0,8.24v.15a3.12,3.12,0,0,0-1.23.42,4.72,4.72,0,0,0-2.28,2.67,4.33,4.33,0,0,0-.18,1.63,5.34,5.34,0,0,0,.19,1.28A3.83,3.83,0,0,0,34.71,62c.79.85,1.6,1.68,2.41,2.51.42.44.86.85,1.27,1.3a3.79,3.79,0,0,0,2,1.12,7.66,7.66,0,0,0,2.1.2Z" style="fill:#fff"/><circle cx="50.52" cy="55.86" r="4.42" style="fill:#fff"/><path d="M15.85,33.38a38.86,38.86,0,0,0-3.47,9.57h.19a2.87,2.87,0,0,1,1.33.32,37,37,0,0,1,3.33-9.17ZM13.46,57.12a6.08,6.08,0,0,1-1-.4l-.05,0-.5.22a38.73,38.73,0,0,0,4.28,12.94l1.32-.83A37.05,37.05,0,0,1,13.46,57.12ZM85.14,33.48l-1.38.72a37.06,37.06,0,0,1,3.38,9.54h1.18a2.75,2.75,0,0,1,.41,0A38.72,38.72,0,0,0,85.14,33.48Zm3,24h0a5.78,5.78,0,0,1-.68-.39c0,.25-.08.5-.12.75a37.16,37.16,0,0,1-5.23,13.52l1.3.86a38.76,38.76,0,0,0,5.52-14.42c0-.28.09-.57.13-.86A6.35,6.35,0,0,1,88.17,57.51Z" style="fill:#1a1a1a"/><path d="M62.59,31.66V38.8h-8.5v8.5H47V38.8h4.1A33.74,33.74,0,0,1,47,47.3a32.29,32.29,0,0,0,6.42-8.49,18,18,0,0,0,.71-1.66,11.39,11.39,0,0,0,.74-5.48Z" style="fill:#fff"/><path d="M51.05,38.8H38.46V31.66H47v-8.5h0a11.87,11.87,0,0,1,4.85,8.5A17.54,17.54,0,0,1,51.05,38.8Z" style="fill:#fff"/><path d="M47,23.17s11.28,7.25,0,24.13C47,47.3,64.76,30.61,47,23.17Z" style="fill:#1a1a1a"/><circle cx="56.61" cy="26.96" r="1.95" style="fill:#1a1a1a"/><path d="M15.74,49.21a2.89,2.89,0,0,1-1.2,1.42.27.27,0,0,0-.14.24h0a2.49,2.49,0,0,0-1.15-.75l-.1,0c-.13,0-.16.18-.16.18l.2.1a1.82,1.82,0,0,1,1.09,1A3.1,3.1,0,0,1,14.42,53l-.33,0a2.79,2.79,0,0,1-1.17-.47l-.24-.2h0a.18.18,0,0,0-.15,0l.07-.1A2.49,2.49,0,0,0,13,50.79s0-.07,0-.1,0,0,0-.05a.11.11,0,0,0-.21-.06h0a.12.12,0,0,0,0,.06v.07s0,.06,0,.09a1.81,1.81,0,0,1-.63,1.35,3.09,3.09,0,0,1-1.45.62c0-.1,0-.22-.06-.33a2.76,2.76,0,0,1,.09-1.26,2.84,2.84,0,0,1,.12-.29h0a.18.18,0,0,0,0-.18,2.09,2.09,0,0,0,.39,0,2.46,2.46,0,0,0,.48,0l.33-.08.15,0,.11,0v0a.22.22,0,0,0-.27-.16h0a2.48,2.48,0,0,1-.62.09,1.65,1.65,0,0,1-.56-.09A2,2,0,0,1,10,49.9,3.48,3.48,0,0,1,9.36,49a3.15,3.15,0,0,1,1.52-.47l.3,0h0a.26.26,0,0,0,.22-.12,2,2,0,0,0,.08.51,2.84,2.84,0,0,0,.41.82l0,0h0a.23.23,0,0,0,.08-.3h0l0-.07a1.73,1.73,0,0,1-.2-1.18,3,3,0,0,1,.82-1.45h0a4,4,0,0,1,.64.75,2.28,2.28,0,0,1,.33.83.23.23,0,0,0,.19.18,2.39,2.39,0,0,0-1.17.94l.08.07a.13.13,0,0,0,.17,0h0l.18-.18a1.7,1.7,0,0,1,1.12-.51h.14a2.89,2.89,0,0,1,1,.19l.34.14Z" style="fill:#fff"/><path d="M16.23,48.92l0,0a3.65,3.65,0,0,0-1.66-.45h-.26a2,2,0,0,0-.39.07,3.08,3.08,0,0,0-1.23-2.32l-.07-.06h0l-.06.06a3.76,3.76,0,0,0-1,1.53,2.08,2.08,0,0,0-.1.62,1.7,1.7,0,0,0-.68-.15h0a3.54,3.54,0,0,0-1.88.59l-.05,0V49l0,0,0,.05.15.23a5.28,5.28,0,0,0,.35.51,2.45,2.45,0,0,0,1.25.86h0a2.18,2.18,0,0,0-.41,1,4.07,4.07,0,0,0,.07,1.45v0a.17.17,0,0,0,.21.11A4.1,4.1,0,0,0,11.59,53a2.57,2.57,0,0,0,.83-.61h0a2.19,2.19,0,0,0,.85.7,4.07,4.07,0,0,0,1.4.38h0a.17.17,0,0,0,.17-.16,4.07,4.07,0,0,0,0-1.17,2.39,2.39,0,0,0-.45-1.16,2.17,2.17,0,0,0,1.08-.69A2.9,2.9,0,0,0,16.27,49l0-.07Zm-1.69,1.71a.27.27,0,0,0-.14.24h0a2.49,2.49,0,0,0-1.15-.75l-.1,0c-.13,0-.16.18-.16.18l.2.1a1.82,1.82,0,0,1,1.09,1A3.1,3.1,0,0,1,14.42,53l-.33,0a2.79,2.79,0,0,1-1.17-.47l-.24-.2h0a.18.18,0,0,0-.15,0l.07-.1A2.49,2.49,0,0,0,13,50.79s0-.07,0-.1,0,0,0-.05a.11.11,0,0,0-.21-.06h0a.12.12,0,0,0,0,.06v.07s0,.06,0,.09a1.81,1.81,0,0,1-.63,1.35,3.09,3.09,0,0,1-1.45.62c0-.1,0-.22-.06-.33a2.76,2.76,0,0,1,.09-1.26,2.84,2.84,0,0,1,.12-.29h0a.18.18,0,0,0,0-.18,2.09,2.09,0,0,0,.39,0,2.46,2.46,0,0,0,.48,0l.33-.08.15,0,.11,0v0a.22.22,0,0,0-.27-.16h0a2.48,2.48,0,0,1-.62.09,1.65,1.65,0,0,1-.56-.09A2,2,0,0,1,10,49.9,3.48,3.48,0,0,1,9.36,49a3.15,3.15,0,0,1,1.52-.47l.3,0h0a.26.26,0,0,0,.22-.12,2,2,0,0,0,.08.51,2.84,2.84,0,0,0,.41.82l0,0h0a.23.23,0,0,0,.08-.3h0l0-.07a1.73,1.73,0,0,1-.2-1.18,3,3,0,0,1,.82-1.45h0a4,4,0,0,1,.64.75,2.28,2.28,0,0,1,.33.83.23.23,0,0,0,.19.18,2.39,2.39,0,0,0-1.17.94l.08.07a.13.13,0,0,0,.17,0h0l.18-.18a1.7,1.7,0,0,1,1.12-.51h.14a2.89,2.89,0,0,1,1,.19l.34.14.05,0A2.89,2.89,0,0,1,14.54,50.64Z" style="fill:#fff"/><path d="M91.26,49.21a2.89,2.89,0,0,1-1.2,1.42.27.27,0,0,0-.14.24h0a2.49,2.49,0,0,0-1.15-.75l-.1,0c-.13,0-.16.18-.16.18l.2.1a1.82,1.82,0,0,1,1.09,1A3.1,3.1,0,0,1,89.94,53l-.33,0a2.79,2.79,0,0,1-1.17-.47l-.24-.2h0a.18.18,0,0,0-.15,0l.07-.1a2.49,2.49,0,0,0,.36-1.32s0-.07,0-.1,0,0,0-.05a.11.11,0,0,0-.21-.06h0a.12.12,0,0,0,0,.06v.07s0,.06,0,.09a1.81,1.81,0,0,1-.63,1.35,3.09,3.09,0,0,1-1.45.62c0-.1,0-.22-.06-.33a2.76,2.76,0,0,1,.09-1.26,2.84,2.84,0,0,1,.12-.29h0a.18.18,0,0,0,0-.18,2.09,2.09,0,0,0,.39,0,2.46,2.46,0,0,0,.48,0l.33-.08.15,0,.11,0v0a.22.22,0,0,0-.27-.16h0a2.48,2.48,0,0,1-.62.09,1.65,1.65,0,0,1-.56-.09,2,2,0,0,1-.73-.47,3.48,3.48,0,0,1-.66-.89,3.15,3.15,0,0,1,1.52-.47l.3,0h0a.26.26,0,0,0,.22-.12,2,2,0,0,0,.08.51,2.84,2.84,0,0,0,.41.82l0,0h0a.23.23,0,0,0,.08-.3h0l0-.07a1.73,1.73,0,0,1-.2-1.18,3,3,0,0,1,.82-1.45h0a4,4,0,0,1,.64.75,2.28,2.28,0,0,1,.33.83.23.23,0,0,0,.19.18,2.39,2.39,0,0,0-1.17.94l.08.07a.13.13,0,0,0,.17,0h0l.18-.18a1.7,1.7,0,0,1,1.12-.51h.14a2.89,2.89,0,0,1,1,.19l.34.14Z" style="fill:#fff"/><path d="M91.75,48.92l0,0a3.65,3.65,0,0,0-1.66-.45H89.8a2,2,0,0,0-.39.07,3.08,3.08,0,0,0-1.23-2.32l-.07-.06h0l-.06.06a3.76,3.76,0,0,0-1,1.53,2.08,2.08,0,0,0-.1.62,1.7,1.7,0,0,0-.68-.15h0a3.54,3.54,0,0,0-1.88.59l-.05,0V49l0,0,0,.05.15.23a5.28,5.28,0,0,0,.35.51,2.45,2.45,0,0,0,1.25.86h0a2.18,2.18,0,0,0-.41,1,4.07,4.07,0,0,0,.07,1.45v0a.17.17,0,0,0,.21.11A4.1,4.1,0,0,0,87.11,53a2.57,2.57,0,0,0,.83-.61h0a2.19,2.19,0,0,0,.85.7,4.07,4.07,0,0,0,1.4.38h0a.17.17,0,0,0,.17-.16,4.07,4.07,0,0,0,0-1.17A2.39,2.39,0,0,0,90,50.94,2.17,2.17,0,0,0,91,50.25,2.9,2.9,0,0,0,91.79,49l0-.07Zm-1.69,1.71a.27.27,0,0,0-.14.24h0a2.49,2.49,0,0,0-1.15-.75l-.1,0c-.13,0-.16.18-.16.18l.2.1a1.82,1.82,0,0,1,1.09,1A3.1,3.1,0,0,1,89.94,53l-.33,0a2.79,2.79,0,0,1-1.17-.47l-.24-.2h0a.18.18,0,0,0-.15,0l.07-.1a2.49,2.49,0,0,0,.36-1.32s0-.07,0-.1,0,0,0-.05a.11.11,0,0,0-.21-.06h0a.12.12,0,0,0,0,.06v.07s0,.06,0,.09a1.81,1.81,0,0,1-.63,1.35,3.09,3.09,0,0,1-1.45.62c0-.1,0-.22-.06-.33a2.76,2.76,0,0,1,.09-1.26,2.84,2.84,0,0,1,.12-.29h0a.18.18,0,0,0,0-.18,2.09,2.09,0,0,0,.39,0,2.46,2.46,0,0,0,.48,0l.33-.08.15,0,.11,0v0a.22.22,0,0,0-.27-.16h0a2.48,2.48,0,0,1-.62.09,1.65,1.65,0,0,1-.56-.09,2,2,0,0,1-.73-.47,3.48,3.48,0,0,1-.66-.89,3.15,3.15,0,0,1,1.52-.47l.3,0h0a.26.26,0,0,0,.22-.12,2,2,0,0,0,.08.51,2.84,2.84,0,0,0,.41.82l0,0h0a.23.23,0,0,0,.08-.3h0l0-.07a1.73,1.73,0,0,1-.2-1.18,3,3,0,0,1,.82-1.45h0a4,4,0,0,1,.64.75,2.28,2.28,0,0,1,.33.83.23.23,0,0,0,.19.18,2.39,2.39,0,0,0-1.17.94l.08.07a.13.13,0,0,0,.17,0h0l.18-.18a1.7,1.7,0,0,1,1.12-.51h.14a2.89,2.89,0,0,1,1,.19l.34.14.05,0A2.89,2.89,0,0,1,90.06,50.64Z" style="fill:#fff"/></svg>