<svg id="Layer_4" data-name="Layer 4" xmlns="http://www.w3.org/2000/svg" viewBox="0 0 100 100"><title>client1-cope</title><path d="M45.41,88.64c-1.83-.54-3.66-1.1-5.5-1.6C22.17,82.26,10.55,66,11.5,47.21c.88-17.36,14.53-32.41,32-35.31C64.37,8.44,84.31,22.08,87.89,42.24,91.75,64,78.5,83.63,57.22,87.74a16.89,16.89,0,0,0-2.5.9ZM56,77.21v.11a31,31,0,0,0,5.76-.48c1.27-.33,2.31-1.52,3.46-2.33a13.74,13.74,0,0,0-3.44-1.6c-10.69-1.67-15-6.91-13.92-17.45.22-2.3.82-4.55,1.18-6.84.64-4.07,1.38-8.13,1.79-12.23C51.11,33.57,52,30,50.68,28a13.67,13.67,0,0,0-7.86-5.25c-5-1.16-7.45,1.9-6.85,7.29a15.36,15.36,0,0,1-.22,1.9c-.11,5-.74,10-.17,14.91,1,8.43,3.07,16.71.4,25.23-1,3.32.76,5.11,4.29,5.12C45.5,77.22,50.74,77.21,56,77.21Zm-3-35c2.19,1.58,3.61,3.36,4.64,3.16,1.24-.24,3-2.18,3-3.34a4.61,4.61,0,0,0-3.08-3.31C56.53,38.56,55.19,40.45,53,42.2Zm6.3,23.35L59.69,59H55.52v6.57ZM54.88,55.21l2.24.81L60,49.88l-3.39-1.37Zm2.12-23,3.34-2.77-.41-1.12c-1.37.38-3.4.35-3.95,1.24a5.1,5.1,0,0,0-.18,4.53c.62,1,2.74,1,4.19,1.4l.38-1.21Z"/><path d="M56,77.21c-5.24,0-10.48,0-15.73,0-3.54,0-5.33-1.8-4.29-5.12,2.67-8.52.58-16.81-.4-25.23-.57-4.9.06-9.93.17-14.91a15.36,15.36,0,0,0,.22-1.9c-.59-5.38,1.85-8.44,6.85-7.29A13.67,13.67,0,0,1,50.68,28c1.29,2,.43,5.56.14,8.38-.41,4.09-1.15,8.16-1.79,12.23-.36,2.29-1,4.54-1.18,6.84-1,10.55,3.23,15.79,13.92,17.45a13.74,13.74,0,0,1,3.44,1.6c-1.14.81-2.19,2-3.46,2.33a31,31,0,0,1-5.76.48Z" style="fill:#fff"/><rect x="52.91" y="25.28" width="12.3" height="41.12"/><text transform="translate(57.4 28.71)" style="writing-mode:tb;text-orientation:upright;glyph-orientation-vertical:0deg;font-size:9.30974006652832px;fill:#fff;font-family:MyriadPro-Regular, Myriad Pro">COPE</text></svg>