<svg id="Layer_1" data-name="Layer 1" xmlns="http://www.w3.org/2000/svg" viewBox="0 0 100 100"><title>client-acts</title><path d="M26.28,33.3c-1.12-2.07-2.28-4.11-3.49-6.12-.58-1-1.23-1.91-1.74-2.92s-2.34-3.52-2.38-4.54c0,1-1.87,3.52-2.38,4.54s-1.16,2-1.74,2.92c-1.2,2-2.37,4.06-3.49,6.12C6.84,41.14,3,49.93,2.53,58.95c-.41,8.47,4.09,17.93,13.22,19.69-.45-1.31.51-17,1.48-32.9l1.45,33.34c9.13-1.76,16.56-11.65,16.15-20.13C34.38,49.93,30.5,41.14,26.28,33.3Z"/><path d="M36.18,35.06c-.7-2.24-1.45-4.47-2.25-6.68-.38-1.06-.84-2.11-1.14-3.2s-1.62-3.91-1.47-4.91c-.24,1-2.51,3.1-3.21,4S26.61,26,25.86,26.8c-1.57,1.75-3.1,3.53-4.6,5.34C15.61,39,10.12,46.9,8,55.67c-2,8.24.57,18.38,9.2,21.86-.19-1.37,3.76-16.58,7.76-32l-5,33c9.3,0,18.49-8.26,19.71-16.66C40.95,52.93,38.83,43.56,36.18,35.06Z"/><path d="M42.39,40.71c-.23-2.34-.51-4.67-.84-7-.16-1.12-.39-2.24-.47-3.37s-.79-4.15-.43-5.11c-.43.92-3.09,2.52-4,3.26s-1.83,1.35-2.73,2c-1.89,1.39-3.76,2.82-5.59,4.29C21.44,40.4,14.45,47,10.55,55.13c-3.67,7.65-3.19,18.11,4.54,23.28,0,0,0-.09,0-.12a6.83,6.83,0,0,0,1.62,1.18,6.75,6.75,0,0,0,.92.38l0,.1c.35.07.72.12,1.07.17l.35.05c8.76,1,18.51-4.95,21.27-12.5C43.41,59.18,43.24,49.58,42.39,40.71Z"/><path d="M21.74,56.55A8.92,8.92,0,0,1,21.1,52a19.8,19.8,0,0,1,8.43-1.87c4.85,0,7.48,1.72,7.48,6.55v8a9.2,9.2,0,0,1,2.19.64v3.25a15.56,15.56,0,0,1-5.81.9,14.31,14.31,0,0,1-.68-2.36c-.68.94-2.35,2.36-6.21,2.36-3.34,0-6.44-1.87-6.44-5.5,0-3.1,2.19-5.31,7-5.31h4.34v-1.8c0-1.94-1.08-2.92-3.3-2.92a7.17,7.17,0,0,0-2,.22,8.61,8.61,0,0,1-.48,2.43Zm9.71,7.93V61.41H28.66c-2,0-2.86.79-2.86,2.06s.79,2.13,2.43,2.13A4.7,4.7,0,0,0,31.44,64.48Z" style="fill:#f2f2f2"/><path d="M54.63,56.21A5.48,5.48,0,0,1,53.95,54c-.48,0-.92,0-1.27,0C50,53.93,49,56.29,49,59.84c0,4.23,1.59,5.35,3.94,5.35a26.72,26.72,0,0,0,5.33-.52l1.19,2.88a16.71,16.71,0,0,1-7.6,1.87c-5.17,0-8.59-2.66-8.59-9.35,0-7.59,4.77-9.95,9.39-9.95a14.27,14.27,0,0,1,6.44,1.35,10,10,0,0,1-1,4.75Z"/><path d="M63.37,51.27A7.49,7.49,0,0,1,66,49.85a5.45,5.45,0,0,1,2.27-4.15h2.9v4.71h5.69v3.14H71.17V63c0,1.46.32,2.28,1.75,2.28a10.7,10.7,0,0,0,3.22-.56l1.19,2.92a14.5,14.5,0,0,1-6.68,1.46c-3.94,0-5.05-2-5.05-5V53.56H63.81Z"/><path d="M92.29,55.54a4.91,4.91,0,0,1-.68-1.8,11.33,11.33,0,0,0-2.23-.26c-1.55,0-2.63.49-2.63,1.46,0,.75.52,1.5,2.75,2.06l3.14.79c3,.75,4.85,2.24,4.85,5.27,0,3.44-2.43,6.36-8.47,6.36a19.88,19.88,0,0,1-7.36-1.2,9.09,9.09,0,0,1,.84-4.53h3.3a5.59,5.59,0,0,1,.68,1.87,8.79,8.79,0,0,0,2.27.22c1.83,0,3.5-.3,3.5-1.87,0-.75-.36-1.23-2.35-1.76l-3.14-.86c-2.82-.75-5.13-2.09-5.13-5.5s2.94-5.68,7.83-5.68a20.26,20.26,0,0,1,6.92,1.08,8.36,8.36,0,0,1-.83,4.34Z"/></svg>