<svg xmlns="http://www.w3.org/2000/svg" viewBox="0 0 100 100"><title>client1-butterfly</title><g id="Layer_2" data-name="Layer 2"><path d="M65.55,33.78a30,30,0,0,1-3.92,14.94,2,2,0,0,0,0,2.2,28.13,28.13,0,0,1,3.6,15.55c-.3,3.57-1.38,6.9-4.26,9.26-3.82,3.13-8.11,2.84-12.32,1-6.85-2.94-11.28-8.36-14.4-14.92A26,26,0,0,1,31.47,48,33.26,33.26,0,0,1,36.84,33a28.47,28.47,0,0,1,10.3-9.86,14.94,14.94,0,0,1,8.61-2,9.61,9.61,0,0,1,8.11,5.61A14.36,14.36,0,0,1,65.55,33.78ZM43.47,58.65a12.31,12.31,0,0,0,6.53,10c3.77,2.09,7.3,0,7.33-4.33A12.46,12.46,0,0,0,51.4,53.47,5.1,5.1,0,0,0,46,52.9C44,54,43.48,55.84,43.47,58.65Zm13.87-23.4c0-2.1-.49-4-2.43-5.15s-3.81-.57-5.5.6a13.21,13.21,0,0,0-2.85,2.48c-2.38,3-3.8,6.32-2.73,10.23a4.23,4.23,0,0,0,5.67,3C53.7,45,57.29,39.95,57.34,35.25Z"/><path d="M97.15,37.84H88.77V48.58H82.31V37.88H73.86V31.39h8.37V21.2H88.7V31.31h8.45Z"/><path d="M26,47.39a.23.23,0,0,0,.27-.27c.34.12.53-.23.82-.27s.27.19.48.29V45.55c-.2-.15-.21.18-.24.19-.47.08-.67-.38-1-.25a.23.23,0,0,0-.18-.27H26a.23.23,0,0,0-.18-.27h-.09c.12-.34-.23-.53-.27-.82s.39-.48.27-.82A.23.23,0,0,0,26,43a.23.23,0,0,0,.27-.27c.34.12.53-.23.82-.27s.27.19.48.29v-1.6c-.2-.15-.21.18-.24.19-.47.08-.67-.38-1-.25a.23.23,0,0,0-.29-.28.23.23,0,0,0-.18-.27h-.09c.12-.34-.23-.53-.27-.82s.39-.48.27-.82a.23.23,0,0,0,.27-.29.23.23,0,0,0,.27-.27c.35.12.53-.24,1-.29.12.06.29.56.64.18a1.19,1.19,0,0,1-.09-1.39,3.5,3.5,0,0,1,.93,2c-.75.31.2.61,0,.93,0,.15-.33.15-.16.43h.88c.29,1.15.71,2.21.93,3.34s.44,2.37.58,3.58c.21,1.83.34,2.61,0,3.45a2.16,2.16,0,0,1,.24,1.92,30.7,30.7,0,0,1-.77,3.75c-.31.78-.4,1.61-.79,2.4s-.37,1.66-1,2.29a.42.42,0,0,0-.11.36A1.7,1.7,0,0,1,27,63.15c-.06-.38-.37-.28-.64-.29a.23.23,0,0,0-.37-.21.23.23,0,0,0-.18-.27h-.09c.12-.34-.23-.53-.27-.82s.39-.48.27-.82a.23.23,0,0,0,.27-.27.23.23,0,0,0,.27-.27c.34.12.53-.23.82-.27s.27.19.48.29V58.65c-.2-.15-.21.18-.24.19-.47.08-.67-.38-1-.25a.23.23,0,0,0-.18-.27H26a.23.23,0,0,0-.18-.27h-.09c.12-.34-.23-.53-.27-.82s.39-.48.27-.82a.23.23,0,0,0,.27-.27.23.23,0,0,0,.27-.27c.34.12.53-.23.82-.27s.27.19.48.29V54.27c-.2-.15-.21.18-.24.19-.47.08-.67-.38-1-.25a.23.23,0,0,0-.18-.27H26a.23.23,0,0,0-.18-.27h-.09c.12-.34-.23-.53-.27-.82s.39-.48.27-.82a.23.23,0,0,0,.25-.28.23.23,0,0,0,.27-.27c.34.12.53-.23.82-.27s.27.19.48.29V49.91c-.2-.15-.21.18-.24.19-.47.08-.67-.38-1-.25a.23.23,0,0,0-.18-.27H26a.23.23,0,0,0-.18-.27h-.09c.12-.34-.23-.53-.27-.82s.39-.48.27-.82a.23.23,0,0,0,.26-.28Zm3.56,10c-.09-.28.14-.4.29-.63H28.49l.26.44c0,.23-.15.31-.3.52a3.16,3.16,0,0,0,1.45,0Zm-.11-4c.18-.31.06-.62.1-.93-.3-.24-.65-.1-1-.11,0,.32.55.69,0,1Zm-.89-9.76c-.23.28.26.21.15.35.1.31-.1.44-.26.6a1.53,1.53,0,0,0,1,.08c.16-.3,0-.62.1-1Zm1,4.4a2,2,0,0,0-1.07,0l.27.41c.1.25-.23.32-.22.54.29.16.6,0,1,.09Z"/><path d="M25.75,44.94H24.24l-.65.73V47l.77.65h1.39a.23.23,0,0,1,.18-.27H26a.23.23,0,0,1,.18-.27h.09V45.48a.23.23,0,0,1-.27-.27.23.23,0,0,1-.27-.27Z"/><path d="M25.75,49.3H24.24l-.65.73v1.35l.77.65h1.39a.23.23,0,0,1,.17-.28H26a.23.23,0,0,1,.18-.27h.09V49.84a3.42,3.42,0,0,0-.52-.48A.23.23,0,0,1,25.75,49.3Z"/><path d="M25.75,53.65H24.24l-.65.73v1.35l.77.65h1.39a.23.23,0,0,1,.18-.27H26a.23.23,0,0,1,.18-.27h.09V54.2a.23.23,0,0,1-.27-.27.23.23,0,0,1-.27-.28Z"/><path d="M25.75,40.58H24.24l-.65.73v1.34l.77.65h1.39a.23.23,0,0,1,.18-.27H26a.23.23,0,0,1,.18-.27h.09V41.12a5.33,5.33,0,0,0-.54-.48A.23.23,0,0,1,25.75,40.58Z"/><path d="M25.75,58H24.24l-.65.73v1.35l.77.65h1.39a.23.23,0,0,1,.18-.27H26a.23.23,0,0,1,.18-.27h.09V58.56a.23.23,0,0,1-.27-.27.23.23,0,0,1-.27-.28Z"/><path d="M26.3,64.55V62.92a.23.23,0,0,1-.3-.27.23.23,0,0,1-.27-.27H24.24l-.65.73v1.34l.77.65h1.39a.23.23,0,0,1,.18-.27H26a.23.23,0,0,1,.17-.28Z"/><path d="M25.75,36.22H24.24l-.65.73V38.3l.77.65h1.39a.23.23,0,0,1,.15-.29H26a.23.23,0,0,1,.18-.27h.09V36.76a3.42,3.42,0,0,0-.52-.48A.23.23,0,0,1,25.75,36.22Z"/><path d="M22.54,49.84h.61l.94-1.19v-.58L23,47.14h-.65l-.94,1.09v.65Z"/><path d="M22.54,45.48h.59l1-1.12v-.65L23,42.78h-.65l-.94,1.09v.65Z"/><path d="M21.41,52.65v.63l.91.91h.88l.89-.89v-.88l-.89-.89h-.73Z"/><path d="M23,55.85h-.7l-.92,1v.8l1,.92h.75l.92-1v-.75Z"/><path d="M22.35,38.4l-1,1v.81l1,1h.81l1-1v-.82l-1-1Z"/><path d="M23.15,60.19h-.81l-1,1V62l1,1h.8l1-1v-.84Z"/><path d="M24.12,65.51l-1-1h-.81l-1,1v.81l1,1h.81l1-1Z"/><path d="M22.36,34l-1,1v.53l1.22,1.23h.54l1-1V35l-1-1Z"/><path d="M24.11,31.36v-.71l-1-.92h-.75l-.92,1v.75l1,.92h.75Z"/><path d="M26.3,34c0-.65-.58-.93-.8-1.43-.11-.24-.19-.57-.41-.72-.49-.2-.75.26-1.14.28a1.64,1.64,0,0,0,0,2.14,2.71,2.71,0,0,0,1.74.28.23.23,0,0,1,.18-.27H26A.23.23,0,0,1,26.3,34Z"/><path d="M20.6,49.3a2,2,0,0,0-1.38,1.35A2,2,0,0,0,20.56,52a2,2,0,0,0,1.38-1.38A2,2,0,0,0,20.6,49.3Z"/><path d="M20.56,36.22a2,2,0,0,0-1.34,1.38,2,2,0,0,0,1.38,1.34,2,2,0,0,0,1.34-1.38A2,2,0,0,0,20.56,36.22Z"/><path d="M20.82,65a1.72,1.72,0,0,0,1.11-1.27,1.72,1.72,0,0,0-1.31-1.38,1.72,1.72,0,0,0-1.4,1.27A1.57,1.57,0,0,0,20.82,65Z"/><path d="M21.94,46.28a2,2,0,0,0-1.38-1.34,2,2,0,0,0-1.34,1.38,2,2,0,0,0,1.38,1.33A2,2,0,0,0,21.94,46.28Z"/><path d="M19.21,28.82a1.85,1.85,0,0,0,1.31,1.4,1.56,1.56,0,0,0,1.37-1.36,1.64,1.64,0,0,0-1.25-1.37A1.78,1.78,0,0,0,19.21,28.82Z"/><path d="M20.82,60.65a1.72,1.72,0,0,0,1.11-1.27A1.72,1.72,0,0,0,20.62,58a1.72,1.72,0,0,0-1.39,1.31A1.57,1.57,0,0,0,20.82,60.65Z"/><path d="M20.58,34.58a2,2,0,0,0,1.36-1.36,2,2,0,0,0-1.36-1.36,2,2,0,0,0-1.36,1.36A2,2,0,0,0,20.58,34.58Z"/><path d="M19.22,68.12a2,2,0,0,0,1.38,1.34,2,2,0,0,0,1.34-1.38,2,2,0,0,0-1.38-1.34A2,2,0,0,0,19.22,68.12Z"/><path d="M21.88,41.65a1.71,1.71,0,0,0-1.26-1.11c-.65.18-1.25.47-1.33,1.34a1.59,1.59,0,0,0,1.26,1.36A1.57,1.57,0,0,0,21.88,41.65Z"/><path d="M20.5,56.37a1.77,1.77,0,0,0,1.44-1.31,1.84,1.84,0,0,0-1.32-1.41A1.84,1.84,0,0,0,19.22,55,1.82,1.82,0,0,0,20.5,56.37Z"/><path d="M17.36,53.57l.32.32h1.43l.35-.35V52.13l-.35-.35H17.68l-.32.32Z"/><path d="M17.64,34.36c-.71.86-.15,1.47.29,2.11H19.1c.68-.51.27-1.19.4-1.73l-.37-.37Z"/><path d="M16.46,27.77H15.8l-.67.72v.79l.91.67h.59l.67-.68v-.85Z"/><path d="M15.13,72.86l.67.67h.85l.64-.74V72l-.73-.45.13-.16h-.92l-.64.87Z"/><path d="M18.76,69.19H18l-.63.79v.75l.77.64h.7l.67-.67v-.85Z"/><path d="M17.31,50.9v-.66l-.72-.67H15.8l-.67.91v.59l.68.67h.84Z"/><path d="M18,25.59l-.67.67v.85l.8.64h.73l.61-.81v-.7l-.87-.64Z"/><path d="M16.08,69.19h.56l.67-1v-.54L16.62,67h-.84l-.63.75v.78Z"/><path d="M18,64.83l-.67.68v.85l.74.63h.79l.63-.9V65.5l-.92-.67Z"/><path d="M18.08,49.57h.74l.67-.72v-.79l-.91-.67H18l-.67.68v.85Z"/><path d="M18,29.95l-.67.68v.85l.74.63h.79l.63-.9v-.56L18.57,30Z"/><path d="M25.75,34.58v1.63a.23.23,0,0,1,.27.27.23.23,0,0,1,.27.27H28A10.89,10.89,0,0,0,26.35,34a.23.23,0,0,1-.18.27h-.09a.23.23,0,0,1-.33.28Z"/><path d="M15.9,23.3l-.76.82v.83l.79.61h.73l.67-.91C17.43,23.89,16.51,23.81,15.9,23.3Z"/><path d="M14.89,73.88c-.38-.08-.65-.09-.72-.35a1.73,1.73,0,0,0-1.22,1c-.06.35.38.49.32.82l.79.37c.27,0,.37-.41.69-.3l.38-.76C15.18,74.36,14.68,74.29,14.89,73.88Z"/><path d="M12.95,48.49c0,.28.42.37.29.69l.77.39c.3.06.37-.44.71-.27l.41-.78c-.09-.58-.55-.86-1-1.13-.35-.07-.48.39-.82.31Z"/><path d="M15.13,70.14c-.16-.15-.35-.29-.28-.55l-.78-.4c-.58.11-.84.58-1.12,1a1.67,1.67,0,0,0,1,1.19c.25.05.38-.41.73-.32C14.76,70.7,15.18,70.52,15.13,70.14Z"/><path d="M15.13,26.54c-.16-.15-.35-.29-.28-.55l-.78-.4c-.58.11-.84.58-1.12,1a1.65,1.65,0,0,0,1,1.16c.36.16.41-.53.81-.2C14.76,27.11,15.18,26.92,15.13,26.54Z"/><path d="M23.75,69.56c-.65-.62-.65-.62-1.42-.63l-.9.9v.93l.76.43c.09-.17.49-.3.61-.76S23.37,69.89,23.75,69.56Z"/><path d="M21.75,71.77l-1.09-.68a1.74,1.74,0,0,0-1.45,1.37l.44.89Z"/><path d="M16.55,32.13a1.37,1.37,0,0,0-1.16.44,3.35,3.35,0,0,0,1.25,1.73l.66-.65V32.8Z"/><path d="M19.48,44.87V43.43c-.19-.12-.26-.38-.55-.41a.33.33,0,0,0-.29.18c-.35.62-.69,1.25-1.07,2C18.21,45.17,18.85,45.41,19.48,44.87Z"/><path d="M14.92,30.24c-.45.08-.59-.21-.84-.29l-.8.35c-.12.19,0,.52-.56.6.83.14,1.06.68,1.47,1h.54l.39-.78C15.18,30.76,14.68,30.65,14.92,30.24Z"/><path d="M17.85,62.65h1.23l.4-.4V60.89a.79.79,0,0,0-1.06-.35h0A4.14,4.14,0,0,1,17.85,62.65Z"/><path d="M25.52,66.89c-.62-.46-1.08,0-1.56.16a1.61,1.61,0,0,0,0,2.11C24.39,68.35,25.16,67.76,25.52,66.89Z"/><path d="M12.68,51.07v-.82l-.4-.4h-.81c-.49.29-.49.76-.38,1.26.3.49.76.37,1.2.34Z"/><path d="M12.67,29.25v-.81c-.58-.58-.83-.58-1.6,0-.05.44-.14.9.35,1.22A1.09,1.09,0,0,0,12.67,29.25Z"/><path d="M11.45,76l-.39.39c0,.44-.15.91.35,1.21a1.07,1.07,0,0,0,1.21-.33c.06-.4.18-.84-.34-1.22C12.08,75.91,11.75,76,11.45,76Z"/><path d="M12.65,24.93v-.85c-.33-.51-.79-.42-1.23-.37a1,1,0,0,0-.18,1.4l.11.12C11.82,25.36,12.29,25.45,12.65,24.93Z"/><path d="M12.29,71.65h-.85c-.51.33-.42.79-.37,1.23a1,1,0,0,0,1.4.18l.12-.11C12.72,72.49,12.81,72,12.29,71.65Z"/><path d="M15.09,46.25c.06.67.46.8.67,1.11h.92l.58-.9a.88.88,0,0,0-.11-.74C16.51,45.94,15.95,46.51,15.09,46.25Z"/><path d="M11.47,45.49a1.06,1.06,0,0,0-.39,1.22c.29.55.77.4,1.21.4.27-.25.56-.48.3-1C12.33,45.85,11.79,45.89,11.47,45.49Z"/><path d="M10.63,22.41l-.81-.92c-.53.06-.63.53-1,.68.06.51.49.67.72,1C10.09,23.15,10.17,22.65,10.63,22.41Z"/><path d="M9.75,25.75l-.92.81c.11.49.49.67.76,1,.45-.06.61-.48.93-.71C10.49,26.29,10,26.16,9.75,25.75Z"/><path d="M10.61,48.55l-.8-.9c-.53.06-.63.53-1,.68.06.51.49.67.72,1C10.07,49.29,10.2,48.8,10.61,48.55Z"/><path d="M8.75,70.21l.8.9c.53-.06.63-.53,1-.68-.06-.51-.49-.67-.72-1C9.28,69.47,9.16,70,8.75,70.21Z"/><path d="M10.54,74.72l-.91-.83-.71,1c0,.15.4.34.7.64C10.06,75.36,10.26,75,10.54,74.72Z"/><path d="M9.75,53.71l.77-.75c-.09-.48-.48-.66-.74-1-.51,0-.62.55-1.07.78Z"/><path d="M13.08,21.95c-.29.6.25.77.2,1.1l.76.38.91-.52C14.4,22.27,13.64,22.39,13.08,21.95Z"/><path d="M17.35,74.53a.71.71,0,0,0,.09.66c.39-.63,1.35-.62,1.52-1.47-.25-.34-.59-.12-1-.21Z"/><path d="M19.44,56.46c-.21-.15-.29-.41-.58-.34,0,0-.17.07-.18.13-.17.71.45,1.28.44,2.08l.08-.56.24.2Z"/><path d="M18.86,41c.92-.63.5-1.32.64-1.87-.2-.2-.33-.44-.59-.47s-.22.11-.24.17C18.51,39.52,19.13,40.09,18.86,41Z"/><path d="M6.87,29.38H7.95c.19-.31.06-.62.1-.94-.31-.23-.66-.11-1-.1C6.84,28.65,7,29,6.87,29.38Z"/><path d="M8.09,54.5h-1c-.19.3-.06.62-.1.93a.79.79,0,0,0,.87.11C8.26,55.39,7.95,54.93,8.09,54.5Z"/><path d="M8.06,24H7c-.18.31-.06.63-.1.94a1.45,1.45,0,0,0,1,.09C8.13,24.71,8,24.39,8.06,24Z"/><path d="M8,73V72c-.3-.19-.62-.06-.93-.1a.79.79,0,0,0-.11.87C7.13,73.21,7.59,72.9,8,73Z"/><path d="M6.88,51.18H7.94c.21-.31,0-.63.14-.92a1.43,1.43,0,0,0-1-.11C6.85,50.45,7,50.77,6.88,51.18Z"/><path d="M8,46.88v-1c-.3-.19-.62-.06-.93-.1a.79.79,0,0,0-.07.87C7.13,47.06,7.59,46.75,8,46.88Z"/><path d="M8.09,76.29h-1c-.19.3-.06.62-.1.93a.79.79,0,0,0,.87.11C8.26,77.18,7.95,76.72,8.09,76.29Z"/><path d="M25.75,65.1v1.32c.32-.64,1.11-1,1.09-1.72-.18-.22-.38-.11-.54-.14a.23.23,0,0,1-.18.27H26a.23.23,0,0,1-.18.27Z"/><path d="M13.22,52.52H14.8l.05-.3c-.08-.4-.71,0-.62-.57l-1,.5Z"/><path d="M5.36,31.65l.5-.4c0-.44-.26-.55-.43-.72-.35-.07-.45.26-.66.4C4.74,31.29,5,31.45,5.36,31.65Z"/><path d="M5.9,26.65l-.4-.5c-.44,0-.55.26-.72.43-.07.35.28.44.38.65C5.57,27.26,5.73,27,5.9,26.65Z"/><path d="M5.87,57.22c0-.35-.36-.37-.41-.56C5,56.66,5,57,4.78,57c0,.41.26.52.43.7C5.61,57.77,5.75,57.5,5.87,57.22Z"/><path d="M4.74,39.65a.85.85,0,0,0,.57.63.77.77,0,0,0,.56-.5c0-.32-.27-.42-.47-.59S5,39.47,4.74,39.65Z"/><path d="M6,52.75l-.48-.44c-.41-.06-.5.25-.7.41,0,.39.23.54.51.68C5.6,53.35,5.73,53.12,6,52.75Z"/><path d="M4.73,70.31l.4.5c.44,0,.55-.26.72-.43.07-.35-.26-.45-.4-.66C5.07,69.65,4.91,69.95,4.73,70.31Z"/><path d="M4.68,44.21l.48.44c.41.06.5-.25.7-.41,0-.39-.23-.54-.51-.68C5,43.65,4.91,43.84,4.68,44.21Z"/><path d="M4.5,22.24l.66.61c.41.06.5-.25.7-.41,0-.39-.23-.54-.51-.67S5,22.12,4.5,22.24Z"/><path d="M5.87,48.5c0-.35-.36-.37-.41-.56-.45,0-.47.34-.68.39,0,.41.26.52.43.7C5.61,49,5.75,48.78,5.87,48.5Z"/><path d="M5.41,75.27l.44-.48c.06-.41-.25-.5-.41-.7-.39,0-.54.23-.68.51C4.8,74.92,5,75,5.41,75.27Z"/><path d="M8,42.4l-1-1C6.93,42.48,6.93,42.48,8,42.4Z"/><path d="M5.46,62.11c.24-.37.09-.73.09-1.07-.49-.11-.57.27-.82.39C4.88,61.83,5,62.11,5.46,62.11Z"/><path d="M9.79,45l.21-.33c-.11-.4-.47-.6-.73-.84a.37.37,0,0,0-.41.2A1.57,1.57,0,0,0,9.79,45Z"/><path d="M5.45,66.47c.37-.48.07-.79-.2-1l-.52.34C4.88,66.19,5,66.47,5.45,66.47Z"/><path d="M5.17,36.06a1.45,1.45,0,0,0,.07-1.15l-.45.3C4.72,35.65,5.08,35.72,5.17,36.06Z"/><path d="M3,64h.27a.33.33,0,0,0,.1-.44c-.09-.16-.24-.08-.37-.1A.32.32,0,0,0,3,64Z"/><path d="M3.33,37.86c.16-.45,0-.59-.33-.56a.33.33,0,0,0-.1.44C3,37.91,3.15,37.83,3.33,37.86Z"/><path d="M3.39,33.49v-.41c-.12-.19-.26-.11-.41-.13C2.78,33.29,2.78,33.51,3.39,33.49Z"/><path d="M3.41,29v-.27A.33.33,0,0,0,3,28.65c-.16.09-.08.24-.1.37a.32.32,0,0,0,.45,0Z"/><path d="M2.87,68v.27a.33.33,0,0,0,.44.1c.16-.09.08-.24.1-.37a.32.32,0,0,0-.54,0Z"/><path d="M3.41,24.65c0-.38-.12-.48-.38-.42s-.14.27-.16.4a.34.34,0,0,0,.47.08Z"/><path d="M3.28,72.18c-.37,0-.47.12-.41.38s.27.14.4.16a.32.32,0,0,0,0-.54Z"/><path d="M2.87,76.65c0,.37.12.47.38.41s.14-.27.16-.4a.32.32,0,0,0-.54,0Z"/><path d="M3.28,54.75c-.37,0-.47.12-.41.38s.27.14.4.16a.32.32,0,0,0,0-.54Z"/><path d="M2.87,41.8v.27a.33.33,0,0,0,.44.1c.16-.09.08-.24.1-.37a.32.32,0,0,0-.54,0Z"/><path d="M3,50.93h.27a.33.33,0,0,0,.1-.44c-.09-.16-.24-.08-.37-.1a.32.32,0,0,0,0,.54Z"/><path d="M3.28,59.1c-.37,0-.47.12-.41.38s.27.14.4.16a.32.32,0,0,0,0-.54Z"/><path d="M3,46.57c.37,0,.47-.12.41-.38S3.14,46,3,46a.32.32,0,0,0,0,.54Z"/><path d="M11.88,68.8c.19.17.46.18.5,0s-.24,0-.36-.11S11.93,68.75,11.88,68.8Z"/><path d="M7.09,68.65q.2-.13,0-.27Q7,68.5,7.09,68.65Z"/><path d="M13.22,52.57a.19.19,0,0,0-.23.13v0s.06.08.08.08a.19.19,0,0,0,.17-.21Z"/><path d="M15.67,76a.19.19,0,0,0-.23.13v0s.06.08.08.08a.19.19,0,0,0,.17-.21Z"/><path d="M15.67,76a.19.19,0,0,0,.23-.13v0s-.06-.08-.08-.08a.19.19,0,0,0-.17.21Z"/><path d="M17,64.28a.19.19,0,0,0,.23-.13v0s-.06-.08-.08-.08a.19.19,0,0,0-.17.21Z"/><path d="M17,64.28a.19.19,0,0,0-.23.13v0s.06.08.08.08A.19.19,0,0,0,17,64.3Z"/><path d="M28.75,38.94a.19.19,0,0,0,.13.23h0s.08-.06.08-.08a.19.19,0,0,0-.21-.17Z"/><path d="M12.4,68.65a.19.19,0,0,0,.23-.13v0s-.06-.08-.08-.08a.19.19,0,0,0-.17.21Z"/><path d="M29.57,50.93A3,3,0,0,1,30.39,52c-.12,1-.06,2-1,2.72"/><path d="M29.57,46.71c.41.26.45.8.81,1.08,0,1,.16,2-.81,2.6"/><path d="M27.66,57.74l1,.82-.32,1.79-.67.67"/><path d="M29.57,43c.16.21.45.32.42.68a4.58,4.58,0,0,0,.12,1,3,3,0,0,1-.54,1.09"/><path d="M25.35,67c-.8,0-1,.74-1.36,1.23v.82"/><path d="M17,45.89c0,.47-.42.66-.68,1-.4.07-.72-.21-1.09-.27"/><path d="M18.94,38.81c.11.63.47,1.24.14,1.91"/><path d="M18.94,56.24c.11.63.47,1.24.14,1.91"/><path d="M18.81,73.82c-.66.18-1.22.47-1.36,1.23"/><path d="M26.57,64.83a2.14,2.14,0,0,0-.68,1.5"/><path d="M27.93,37.17a2.51,2.51,0,0,0,.26,1,.65.65,0,0,1-.26.81"/><path d="M7.09,41.53a1,1,0,0,0,.82.82"/><path d="M29.84,56.24l.27.41c0,.28-.58.42-.15.83.16.16-.09.38-.26.53"/><path d="M13.22,22.32a1.59,1.59,0,0,0,1.5.54"/><path d="M12.54,68.5c-.15.16-.29.34-.54.27"/></g></svg>