<svg id="Layer_1" data-name="Layer 1" xmlns="http://www.w3.org/2000/svg" viewBox="0 0 100 100"><title>client-rshopping</title><path d="M50.29,6.1A29.71,29.71,0,1,0,80,35.81,29.71,29.71,0,0,0,50.29,6.1Zm0,57.35A27.64,27.64,0,1,1,77.93,35.81,27.64,27.64,0,0,1,50.29,63.45Z"/><circle cx="50.29" cy="35.81" r="28.19" style="fill:#333"/><path d="M69.36,45.44l2.24-4.8H55.25v1.65H68.87l-1.74,3.91h1A1.31,1.31,0,0,0,69.36,45.44Z"/><polygon points="69.01 43.91 57.69 43.91 58.07 44.5 68.63 44.5 69.01 43.91"/><path d="M61.86,41.87h.57a0,0,0,0,1,0,0v3.89a.44.44,0,0,1-.44.44h-.13a0,0,0,0,1,0,0V41.87A0,0,0,0,1,61.86,41.87Z"/><path d="M65.16,41.83h.57a0,0,0,0,1,0,0v3.92a.44.44,0,0,1-.44.44h-.13a0,0,0,0,1,0,0V41.83A0,0,0,0,1,65.16,41.83Z"/><path d="M71.6,40.63l.51-1.1h1.41l.34-.86H71.41a1.23,1.23,0,0,0-1.1.68l-1.44,2.92,1.92.1Z"/><circle cx="56.16" cy="53.35" r="2.86"/><circle cx="64.97" cy="53.35" r="2.86" transform="matrix(0.54, -0.84, 0.84, 0.54, -14.95, 79.42)"/><path d="M29.77,23.22l25.4.18a4.06,4.06,0,0,1,3.51,2.86,5.14,5.14,0,0,1-1.34,4.68S54.2,33.78,46.71,36l3.48,8s1.25,2.87,1.64,3.5a3.45,3.45,0,0,0,3.33,2.17l9,0,2.46-.06a1.2,1.2,0,0,0,1.06-.7l.69-1.5-7.63-.15s-4.59-8.92-4.85-10.24c0-.06,4.13-1.85,4.51-2a24.27,24.27,0,0,0,4.56-3c2.56-2.17,4.59-5.55,3.57-9a6.85,6.85,0,0,0-3.43-3.93,13.77,13.77,0,0,0-5.87-1.58c-3.26-.08-25.94-.08-25.94-.08Z" style="fill:#fff"/><path d="M34.19,48.39,42,26h7a1,1,0,0,1,.91,1.29L42,49.75l-6.93-.08A1,1,0,0,1,34.19,48.39Z" style="fill:#fff"/><text transform="translate(6.21 81.23) scale(1.06 1)" style="font-size:12.595000267028809px;font-family:PatuaOne-Regular, Patua One;letter-spacing:0.06799972453751114em">SHOPPING.<tspan x="69.79" y="0" style="font-family:Poppins-ExtraLight, Poppins ExtraLight;letter-spacing:0.06803618551581542em">la</tspan></text><rect x="6.21" y="84.97" width="85.87" height="1"/><text transform="translate(6.2 93.91) scale(1.01 1)" style="font-size:6.862430095672607px;font-family:Poppins-ExtraLightItalic, Poppins ExtraLight;font-style:italic;letter-spacing:0.08698993752728398em">we deliver your needs</text></svg>