<svg xmlns="http://www.w3.org/2000/svg" viewBox="0 0 1418.29 456"><title>logo-light</title><g id="Layer_2" data-name="Layer 2"><g id="Layer_1-2" data-name="Layer 1"><circle cx="228" cy="228" r="228" style="fill:#ccc"/><circle cx="228" cy="228" r="228" style="fill:#ccc"/><path d="M228,56.55,75,285.9h25.47a52.28,52.28,0,0,0,43.47-23.23l84.42-126.31L313,262.72a52.28,52.28,0,0,0,43.43,23.18h25.51Z" style="fill:#333"/><path d="M75,316.42h291a16,16,0,0,1,16,16V355a0,0,0,0,1,0,0H91a16,16,0,0,1-16-16V316.42A0,0,0,0,1,75,316.42Z" style="fill:#333"/><path d="M672.63,294H597l-12.12,35.8H533.2l73.32-202.65h57.16L737,329.76H684.75Zm-37.82-112.3L610,255.86h49.94Z" style="fill:#ccc"/><path d="M808.6,127.11V291.65h64.66v38.11h-114V127.11Z" style="fill:#ccc"/><path d="M886,127.11h156.75v39.55H989v163.1H939.66V166.66H886Z" style="fill:#ccc"/><path d="M1066.68,127.11H1116V248.35c0,24,11.84,37.82,35.22,37.82s35.8-13.86,35.8-37.82V127.11h49.37v121c0,56-39.26,83.72-86,83.72-47.05,0-83.72-27.71-83.72-83.72Z" style="fill:#ccc"/><path d="M1344.39,331.78c-43.59,0-77.66-21.65-79.1-62.64h52.54c1.45,15.59,11.26,23.09,25.12,23.09,14.43,0,23.67-7.22,23.67-19.05,0-37.53-101.33-17.32-100.75-89.2,0-38.4,31.46-59.76,73.9-59.76,44.17,0,73.9,21.94,75.92,60.62h-53.41c-.87-13-10.1-20.79-23.38-21.07-11.84-.29-20.79,5.77-20.79,18.48,0,35.22,100.17,19.34,100.17,87.18C1418.29,303.49,1391.73,331.78,1344.39,331.78Z" style="fill:#ccc"/></g></g></svg>