<svg xmlns="http://www.w3.org/2000/svg" viewBox="0 0 470 470"><title>step4</title><g style="isolation:isolate"><g id="Layer_1" data-name="Layer 1"><path d="M-62,399c9.67-1.14,23.87-13.55,30.62-31s12.17-38.5,24.6-46.16c11.63-7.17,25.14,20.33,37.36,15.91,25-9,27.89-142.52,59.53-142.52,30,0,82.33,106.61,124,67.55,40-37.48,63.56-152.63,96.53-168.88,63.58-31.35,76.86,203.76,122.55,203.76,12.93,0,22.33-56.24,32.15-63.25C496.93,211.84,482,356.72,527,399Z" style="fill:#d3e1ea"/><path d="M0,282s234-123,377,0c0,0,72,69,93,136v52H0Z" style="fill:#2e3190"/><g style="opacity:0.4"><circle cx="232.45" cy="293.1" r="11.59" transform="translate(-127.33 395.56) rotate(-67.48)" style="fill:#fff"/><circle cx="121.61" cy="240.47" r="11.6" transform="translate(-147.1 260.69) rotate(-67.48)" style="fill:#fff"/><circle cx="188.15" cy="277.94" r="11.6" transform="translate(-140.66 345.28) rotate(-67.48)" style="fill:#fff"/><circle cx="108.49" cy="247.03" r="11.6" transform="translate(-140.96 144.23) rotate(-43.89)" style="fill:#fff"/><circle cx="197.85" cy="304.46" r="24.24" transform="translate(-159.18 370.61) rotate(-67.48)" style="fill:#fff"/><circle cx="117.25" cy="279.81" r="21.17" transform="translate(-186.13 280.93) rotate(-67.48)" style="fill:#fff"/><circle cx="135.34" cy="264.63" r="21.17" transform="translate(-145.67 167.77) rotate(-43.89)" style="fill:#fff"/><circle cx="158.57" cy="288.77" r="33.25" transform="translate(-155.92 190.62) rotate(-43.89)" style="fill:#fff"/><circle cx="218.26" cy="279.62" r="8.78" transform="translate(-123.63 374.13) rotate(-67.48)" style="fill:#fff"/><circle cx="93.81" cy="267.51" r="8.78" transform="translate(-189.23 251.71) rotate(-67.48)" style="fill:#fff"/><circle cx="221.42" cy="316.97" r="8.78" transform="translate(-156.18 400.09) rotate(-67.48)" style="fill:#fff"/><circle cx="214.85" cy="261.39" r="4.85" transform="translate(-108.9 359.72) rotate(-67.48)" style="fill:#fff"/><circle cx="83.99" cy="239.44" r="4.85" transform="translate(-169.36 225.32) rotate(-67.48)" style="fill:#fff"/></g><path d="M21.41,195.49c0,.31,1.34.54,1.62.43.61-.47.33-.82,1-1.17a6.49,6.49,0,0,1-1.91.38C21.73,195.12,21.35,195,21.41,195.49Z" style="fill:#fcd2c5"/><path d="M24.46,194.46a16.19,16.19,0,0,0-1.88,1.25c-.72.54-2.2,1.94-2.3,2A11.33,11.33,0,0,0,19.05,199a1.72,1.72,0,0,0,0,1,.52.52,0,0,0,.52.25c.12.43,1.11-.06,1.12,0,0,.45.64.56,1.77-.56.07-.07,3.38-2.27,4.38-3.06A16.13,16.13,0,0,0,24.46,194.46Z" style="fill:#fcd2c5"/><path d="M38.47,157c-.7,3.49,0,15-.65,20.51-.85,6.81,4.2,5,5.13,3,2.43-5.21,6.64-20.67,4.06-22.22C45.9,157.6,38.6,156.35,38.47,157Z" style="fill:#fcd2c5"/><path d="M39.43,177.45a2.34,2.34,0,0,0-.61.41c-2.76,2.68-11.25,14.39-14.57,16.72A12.76,12.76,0,0,1,26.42,197c5.38-4,17.67-15.31,16.76-17.82A2.59,2.59,0,0,0,39.43,177.45Z" style="fill:#fcd2c5"/><path d="M27.84,196.95c4.57-3.46,14.4-12.65,16.14-16.69s6.73-20.65,3.3-22.64c-1.15-.67-7.82-1.83-9-1.24a.92.92,0,0,0-.5.65,64.66,64.66,0,0,0-.2,9.39,99,99,0,0,1-.16,10.66,12.1,12.1,0,0,0-.08,1.31c-1,1.24-2.38,3-3.79,4.76-3.09,4-6.93,8.87-8.78,10.22Z" style="fill:#01d06a"/><path d="M98.33,257.7l-2.64,1.14s.31.92.46,1.58c.28,1.28-1.62,4.95-.49,5.81.57.44,2-.37,2.79-1.32a5.87,5.87,0,0,0,1.49-2.61c.12-.95.73-2.45.54-2.93a2,2,0,0,0-1.26-1.09C98.67,257.7,98.33,257.7,98.33,257.7Z" style="fill:#febb00"/><path d="M96.15,260.42a4.2,4.2,0,0,0,2-.31c.56-.25,1.07-1.83,1.07-1.83-.55-.59-.94-1-.94-1l-2.75,1.48A6.25,6.25,0,0,1,96.15,260.42Z" style="fill:#fcd2c5"/><path d="M62.56,185.92c2.12.54,10.93,0,16.83-1.41,0,0,1.65,28.35,3.54,43.27.81,6.4,16.09,30.3,16.09,30.3a3.39,3.39,0,0,1-3.17,1.41s-21.36-20.08-23.71-29.93C67.22,209,62.6,187.62,62.56,185.92Z" style="fill:#ff4746"/><path d="M55.35,214.72c.08.94,2.7,47.89,2.7,47.89a3.85,3.85,0,0,0,3,.66s4.23-47.91,4.07-50.07C63.9,214.15,56.12,215.48,55.35,214.72Z" style="fill:#fcd2c5"/><path d="M60.89,262.61l-2.51-1.4s-.54.81-1,1.33c-.85,1-4.91,1.73-4.91,3.15,0,.72,1.51,1.36,2.75,1.41a8.45,8.45,0,0,0,3-.41,7.54,7.54,0,0,0,2.65-1.36,2,2,0,0,0,.1-1.66C61.1,262.88,60.89,262.61,60.89,262.61Z" style="fill:#febb00"/><path d="M57.41,262.54a4.2,4.2,0,0,0,1.46,1.4c.54.3,2.1-.26,2.1-.26.13-.79.19-1.33.19-1.33l-2.85-1.28A6.24,6.24,0,0,1,57.41,262.54Z" style="fill:#fcd2c5"/><path d="M51.3,179.16c2,.88,10.78,1.77,16.83,1.38v15.78c-1.18.93-.86,15.05-3,29.94-2.46,17.25-3.74,35.53-3.74,35.53-1.23,1.35-3.67,0-3.7-.11S50.85,182.38,51.3,179.16Z" style="fill:#ff4746"/><path d="M76.28,175.14s4,6.45,4,11.3c0,0-7.1,6.12-19.54,9.2l-2.16-1.95.21,2.76c-2.59,1-4.18,1.49-6.47.66-1.14-.41-3.8-8.66-3.8-8.66Z" style="fill:#802b52"/><path d="M45.72,140.27c-.28.44-3.45,4.29-4.68,4.57.14.32,2.25,3.41,2.22,5.53,1,1.57,5.7-.27,5.87-3.66C48.28,146.1,46.11,141.92,45.72,140.27Z" style="fill:#fcd2c5"/><path d="M62,150.92c-1.48-3-3.66-5.38-7.61-4.83-1.32.19-5.27.61-5.27.61s-1.67,3.19-3.29,4a3.21,3.21,0,0,1-2.58-.32s-3.64,2.88-4.21,3.62a6.92,6.92,0,0,0-.41,8.14c4.58,7.62,7.67,28.11,10.54,28.31,3.92.27,26.62-9.34,28.21-13.28C79.52,171.94,62.58,152.06,62,150.92Z" style="fill:#01d06a"/><path d="M60.19,178c-1.74,3.16-6.56,6.72-11.76,9.53,3.89-5.54,4.68-14.92,6-21.6,1-4.81,2.89-9.19,3.2-13.86a4.57,4.57,0,0,0,1.14,1.17C66.16,157,62.69,173.48,60.19,178Z" style="fill:#01b85e"/><path d="M36.7,192c0,.31,1.36.47,1.64.35.58-.49.29-.83.9-1.22a6.46,6.46,0,0,1-1.89.47C37,191.64,36.61,191.56,36.7,192Z" style="fill:#fcd2c5"/><path d="M39.7,190.86a16.09,16.09,0,0,0-1.81,1.34c-.69.58-2.1,2-2.2,2.15a11.33,11.33,0,0,0-1.18,1.31,1.72,1.72,0,0,0,0,1,.52.52,0,0,0,.53.22c.14.42,1.11-.12,1.12,0,0,.45.67.53,1.74-.65.06-.07,3.27-2.43,4.23-3.27A16.17,16.17,0,0,0,39.7,190.86Z" style="fill:#fcd2c5"/><path d="M51.89,152.75c-.53,3.52.76,14.93.33,20.51-.52,6.85,4.44,4.77,5.27,2.75,2.18-5.33,5.63-21,3-22.39C59.33,153,52,152.11,51.89,152.75Z" style="fill:#fcd2c5"/><path d="M53.83,173.14a2.32,2.32,0,0,0-.59.44C50.62,176.39,42.71,188.49,39.5,191a12.75,12.75,0,0,1,2.27,2.32c5.19-4.21,16.92-16.15,15.89-18.61A2.59,2.59,0,0,0,53.83,173.14Z" style="fill:#fcd2c5"/><path d="M43.52,193c4.39-3.67,13.78-13.33,15.32-17.45s5.73-21,2.2-22.78c-1.18-.61-7.9-1.45-9-.81a.91.91,0,0,0-.47.67c-.24,1.79.78,17.36.61,20a12,12,0,0,0,0,1.31c-1,1.29-2.23,3.06-3.56,4.94-2.89,4.1-6.49,9.19-8.28,10.63Z" style="fill:#01d06a"/><path d="M45.26,156.73c-.37-5-1.95-6-3-7.83a13.69,13.69,0,0,1-1.44-6.25c-.06,0-4-2.2-4.53-.27a12.7,12.7,0,0,0,1.93,6.8,11.25,11.25,0,0,1,1.75,7.6,12.53,12.53,0,0,0,1,6.13c3,7.09,8.47,9.19,9.5,8.07S45.8,163.87,45.26,156.73Z" style="fill:#272063"/><path d="M38.76,136.08c-2.19.7-3.57,2.23-3.25,4.44.11.79,3,7.18,6.85,6.79,1.63-.16,3.47-3.79,2.91-5.54l-.77-2.42A4.84,4.84,0,0,0,38.76,136.08Z" style="fill:#fcd2c5"/><path d="M60,155.25a10.91,10.91,0,0,0-3.82-6,9.79,9.79,0,0,1-4-7.94,11.2,11.2,0,0,0-5.93-9.52,6.63,6.63,0,0,0-7.59.57c-1.77,1.61-1.68,2-1.68,2a3.64,3.64,0,0,0-2.09,1.17c-2,2.25.16,7.87,2.76,8.92-3.48-5.63,0-7.95,0-7.95s2.76-.67,4.62.41a11.36,11.36,0,0,1,4.51,7.47c.23,2.39-.92,4.58,2.71,9.14,5.22,6.55,2.64,16.38,5.1,16.5C56.76,170.1,62,163.79,60,155.25Z" style="fill:#272063"/><path d="M44.06,138.48a2.09,2.09,0,0,0-.82.7,29.91,29.91,0,0,0,2,2.23,2.2,2.2,0,0,0,.53-2.07A1.57,1.57,0,0,0,44.06,138.48Z" style="fill:#fcd2c5"/><polygon points="134.23 54.72 137.89 62.94 145.41 62.94 146.43 54.72 134.23 54.72" style="fill:#d3e1ea"/><path d="M109.7,32.14l5.63,10.23L122.46,40c0-.09,0-3.75,0-3.75,0-2.32-1.88-2.85-4.21-2.85Z" style="fill:#d3e1ea"/><path d="M109.7,56.44l5.63-10.23,7.13,2.33c0,.09,0,3.75,0,3.75,0,2.32-1.88,2.85-4.21,2.85Z" style="fill:#d3e1ea"/><path d="M108.07,44.74s58.32-.11,58.42,0C159.64,20.59,111.31,34,108.07,44.74Z" style="fill:#edf5f8"/><path d="M108.07,44.74s58.32.11,58.42,0C159.64,68.9,111.31,55.44,108.07,44.74Z" style="fill:#d3e1ea"/><path d="M142.78,36.76c21.11,0,23.61,7.87,23.71,8H108.07C108.28,44.66,121.63,36.76,142.78,36.76Z" style="fill:#d3e1ea"/><path d="M142.78,52.73c21.11,0,23.61-7.87,23.71-8H108.07C108.28,44.83,121.63,52.73,142.78,52.73Z" style="fill:#edf5f8"/><polygon points="166.49 44.74 166.49 44.74 166.49 44.75 166.49 44.74" style="fill:#d3e1ea"/><path d="M474.6,82.46c-2.42,0-4.26,4.13-6.44,3.4-4.77-1.6-6.74-10.43-12-10.43-4,0-6.38,7.2-10.12,6.71-5.91-.77-8.57-12.21-14.94-12.21-5.88,0-8.77,9.79-14.21,10.66-3.2.51-5.54-5-9-5-6.56,0-7.14,3.74-13.18,6.44-1.73.78-3.06,5.63-5,5.63A6.24,6.24,0,0,0,384,91H484.45C482.77,86.38,479,82.46,474.6,82.46Z" style="fill:#edf5f8"/><path d="M28.95,106.15c2.3,0,4.35,2,5.66,4.85H23.29C24.6,108.19,26.65,106.15,28.95,106.15Z" style="fill:#edf5f8"/><path d="M56.71,100.62c2.42,0,4.26,5,6.44,4.13,4.77-1.95,6.74-12.67,12-12.67,4,0,6.38,8.75,10.12,8.16,5.91-.94,8.57-14.85,14.94-14.85,5.88,0,8.77,11.91,14.21,13,3.2.62,5.54-6.09,9-6.09,6.56,0,7.14,4.55,13.18,7.83,1.73.94,3.06,6.84,5,6.84,2.3,0,4.35,1.26,5.66,4.07H46.86C48.55,105.39,52.32,100.62,56.71,100.62Z" style="fill:#edf5f8"/><g style="opacity:0.4"><circle cx="238.64" cy="308.18" r="11.59" transform="translate(-99.85 114.91) rotate(-22.52)" style="fill:#fff"/><circle cx="354.51" cy="240.47" r="11.59" transform="translate(-65.07 154.14) rotate(-22.52)" style="fill:#fff"/><circle cx="287.96" cy="277.94" r="11.6" transform="translate(-84.5 131.5) rotate(-22.52)" style="fill:#fff"/><circle cx="367.62" cy="247.03" r="11.59" transform="translate(-65.27 340.68) rotate(-46.11)" style="fill:#fff"/><circle cx="278.27" cy="304.46" r="24.24" transform="translate(-95.39 129.8) rotate(-22.52)" style="fill:#fff"/><circle cx="358.87" cy="279.81" r="21.17" transform="translate(-79.81 158.8) rotate(-22.52)" style="fill:#fff"/><circle cx="340.78" cy="264.63" r="21.17" transform="translate(-86.19 326.72) rotate(-46.11)" style="fill:#fff"/><circle cx="317.55" cy="288.77" r="33.25" transform="translate(-110.71 317.39) rotate(-46.11)" style="fill:#fff"/><circle cx="257.86" cy="279.62" r="8.78" transform="translate(-87.44 120.09) rotate(-22.52)" style="fill:#fff"/><circle cx="382.3" cy="267.51" r="8.78" transform="translate(-73.31 166.83) rotate(-22.52)" style="fill:#fff"/><circle cx="254.7" cy="316.97" r="8.78" transform="translate(-101.98 121.73) rotate(-22.52)" style="fill:#fff"/><circle cx="261.27" cy="261.39" r="4.85" transform="translate(-80.2 120.02) rotate(-22.52)" style="fill:#fff"/><circle cx="392.13" cy="239.44" r="4.85" transform="translate(-61.81 168.46) rotate(-22.52)" style="fill:#fff"/></g><path d="M322.26,318.78H249.83a14.5,14.5,0,0,1-14.49-14.49v-5.23H237v5.23a12.89,12.89,0,0,0,12.88,12.88h72.43a19.34,19.34,0,0,0,19.32-19.32v-29c0-11.51,9.19-20.52,20.92-20.52,18.25,0,28-5.79,28.08-5.85l.84,1.38c-.41.25-10.21,6.09-28.91,6.09-10.83,0-19.32,8.31-19.32,18.91v29A21,21,0,0,1,322.26,318.78Z" style="fill:#fff"/><g id="_Group_" data-name="&lt;Group&gt;"><path d="M24.93,227.49l2.94-.69-1.45-6.2-2.94.69a17.4,17.4,0,0,0-4.23-5.88l1.59-2.57-5.42-3.36L13.83,212a17.41,17.41,0,0,0-5.58-1.17c-.5,0-1,0-1.52,0H6.68L6,207.93l-6.2,1.45.69,2.94a17.42,17.42,0,0,0-5.89,4.23L-8,215l-3.36,5.41L-8.77,222a17.41,17.41,0,0,0-1.17,7.15l-2.94.69,1.45,6.2,2.94-.69a17.36,17.36,0,0,0,4.23,5.89l-1.59,2.56,5.41,3.36,1.59-2.57a17.28,17.28,0,0,0,7.15,1.17L9,248.68l6.2-1.45-.69-2.94a17.82,17.82,0,0,0,1.74-.88,17.37,17.37,0,0,0,4.15-3.35L23,241.65l3.36-5.42-2.56-1.59A17.42,17.42,0,0,0,24.93,227.49Zm-11,12A12.89,12.89,0,0,1,1,217.15a12.93,12.93,0,0,1,5.71-1.71,11.89,11.89,0,0,1,1.52,0,12.89,12.89,0,0,1,5.7,24Z" style="fill:#ff4745"/></g><path d="M27.63,228l1.19.49a19.2,19.2,0,0,1,17.82-11.93v-1.29A20.49,20.49,0,0,0,27.63,228Z" style="fill:#272063"/><path d="M26.09,235.78h1.29a19.29,19.29,0,0,1,.9-5.83L27,229.56A20.57,20.57,0,0,0,26.09,235.78Z" style="fill:#272063"/><path d="M45,213.47l-.88.94,1.56,1.45-1.62,1.46.86,1,2.15-1.94a.64.64,0,0,0,0-1Z" style="fill:#272063"/><rect x="-19.47" y="233.99" width="39.44" height="33.8" style="fill:#fff"/><rect x="19.97" y="233.99" width="14.49" height="33.8" style="fill:#e3eef7"/><polygon points="-19.47 254.92 13.45 254.92 20.01 233.99 -19.47 233.99 -19.47 254.92" style="fill:#afc4d6"/><polygon points="20.14 234.92 26.53 262.16 34.45 262.16 34.45 233.99 19.97 233.99 20.14 234.92" style="fill:#afc4d6"/><polygon points="-27.05 247.81 13.45 247.81 20.04 233.94 -19.23 233.94 -27.05 247.81" style="fill:#fff"/><polygon points="20.18 233.94 26.1 250.62 40.4 250.62 34.47 233.94 20.18 233.94" style="fill:#e3eef7"/><g id="_Group_2" data-name="&lt;Group&gt;"><rect x="59.35" y="376.04" width="20.12" height="9.2" style="fill:#edf5f8"/></g><g id="_Group_3" data-name="&lt;Group&gt;"><rect x="33.92" y="335.61" width="71.35" height="41.85" rx="3.31" ry="3.31" style="fill:#fff"/></g><g id="_Group_4" data-name="&lt;Group&gt;"><rect x="36.12" y="337.55" width="66.95" height="34" style="fill:#afc4d5"/></g><g id="_Group_5" data-name="&lt;Group&gt;"><path d="M85.14,383.92H52.47a1.28,1.28,0,1,0,0,2.56H85.14a1.28,1.28,0,0,0,0-2.56Z" style="fill:#fff;fill-rule:evenodd"/></g><g id="_Group_6" data-name="&lt;Group&gt;"><path d="M81.94,348.44a10.92,10.92,0,0,0-7.64,3.12l-.85.83a11,11,0,0,1-7.66,3.12,11,11,0,0,0-5.05,1.24,3.31,3.31,0,0,1-2.34.27L56,356.41l-.07,0a8.15,8.15,0,0,0-8.51,3.25l-2.1,2.93H91.66V344.83l-4.77,2.43A10.92,10.92,0,0,1,81.94,348.44Z" style="fill:#d3e1ea"/></g><path d="M83.3,355.53l-3.2,0a6.31,6.31,0,0,0-4.34,1.8,6.31,6.31,0,0,1-4.41,1.8H61.52a26.66,26.66,0,0,0-7.11,1l-8.81,2.44H91.66V352.16L86,354.9A6.31,6.31,0,0,1,83.3,355.53Z" style="fill:#fff"/><rect x="25.68" y="379.75" width="1.87" height="62.04" style="fill:#fff"/><rect x="49.78" y="379.75" width="1.87" height="62.04" style="fill:#fff"/><rect x="115.92" y="379.75" width="1.87" height="62.04" style="fill:#fff"/><rect x="140.02" y="379.75" width="1.87" height="62.04" style="fill:#fff"/><rect x="21.58" y="372.48" width="37.05" height="6.94" transform="translate(-57.28 10.62) rotate(-8.84)" style="fill:#edf5f8"/><rect x="57.62" y="369.48" width="90.43" height="6.94" style="fill:#e4eef9"/><path d="M110.28,395c-5.2.25-32.52,10-43.61,16.69-4.72,2.83-2.76,7.89,2.43,7.57,15-.91,34.89-.35,43.72-6.68C126.87,402.51,113.05,394.84,110.28,395Z" style="fill:#272063"/><path d="M81.63,447.56l-.11,2.39a3.86,3.86,0,0,0,2.93,1,7.89,7.89,0,0,0,.2-3.19C84.45,447.75,83,446.3,81.63,447.56Z" style="fill:#fcd2c5"/><path d="M64.66,419.46c9,16.27,16.77,29.84,16.77,29.84a3.05,3.05,0,0,1,3.45-1.35s-5.24-15.29-10.52-30.78C70.88,406.95,61,412.82,64.66,419.46Z" style="fill:#272063"/><path d="M81.55,449.1a7.22,7.22,0,0,1-.68.71c-.95.91-5.23,2.81-5.37,4.23-.07.71,1.36,1.51,2.58,1.69a5.86,5.86,0,0,0,3-.1A13.58,13.58,0,0,0,84,453a6.36,6.36,0,0,0,.54-2.71C83.86,448.55,81.55,449.1,81.55,449.1Z" style="fill:#fb0"/><path d="M81.46,450.89c-1.23.86-5.2,2.25-5.32,3.44-.06.6,1.15,1.27,2.18,1.42a5,5,0,0,0,2.53-.08,11.2,11.2,0,0,0,2.48-2.25C84.71,451.49,82.66,450.05,81.46,450.89Z" style="fill:#fb0;mix-blend-mode:multiply"/><path d="M104.74,448.25a6.2,6.2,0,0,0,.86,3.61,9.85,9.85,0,0,0,3.72-1.91s-.8-1.24-1.39-2.4C106.57,446.29,104.93,448.27,104.74,448.25Z" style="fill:#fcd2c5"/><path d="M88.86,421.87c9,16.27,16,27.43,16,27.43a3.05,3.05,0,0,1,3.45-1.35s-4.43-12.88-9.71-28.37C95.09,409.36,85.18,415.23,88.86,421.87Z" style="fill:#272063"/><path d="M109.15,449.81a7.22,7.22,0,0,1-.68-.71s-2.31-.55-3,1.15A6.36,6.36,0,0,0,106,453a13.58,13.58,0,0,0,2.94,2.68,5.86,5.86,0,0,0,3,.1c1.22-.18,2.66-1,2.58-1.69C114.37,452.62,110.09,450.72,109.15,449.81Z" style="fill:#fb0"/><path d="M108.56,450.89c-1.19-.83-3.25.6-1.86,2.53a11.22,11.22,0,0,0,2.48,2.25,5,5,0,0,0,2.53.08c1-.15,2.24-.82,2.18-1.42C113.76,453.14,109.8,451.75,108.56,450.89Z" style="fill:#fb0;mix-blend-mode:multiply"/><path d="M118.64,394.5a174.4,174.4,0,0,1-18.06,1.74A36.73,36.73,0,0,1,89.92,395c0,5.62-1.13,6.48-3.64,8,1.78,6.18,5.34,7.9,8.42,8.91,8.13,2.65,28.45-3.43,29-3.47a135.91,135.91,0,0,0-1-14.52C121.39,394.15,120,394.32,118.64,394.5Z" style="fill:#edf5f8"/><path d="M106.2,345.17c-.42.31-4.77,2.74-6,2.56,0,.35.86,4,.06,6,.35,1.82,5.41,1.82,6.8-1.27C106.45,351.54,106,346.86,106.2,345.17Z" style="fill:#fcd2c5"/><path d="M101.61,339.13c-2.29-.15-4.51.39-5,2.56-.18.78.17,7.77,3.91,8.82,1.58.44,4.61-2.27,4.73-4.1,0,0,.16-2.51.17-2.53A4.19,4.19,0,0,0,101.61,339.13Z" style="fill:#fcd2c5"/><path d="M112.17,353.77c-1.29-.31-5.13-1.35-5.13-1.35a5.14,5.14,0,0,1-3.09,1.55,6.45,6.45,0,0,1-3.7-.28s-4.44,1.36-5.24,1.83c-3.12,1.83-3.14,3.14-3.34,7.44-.09,2-.14,32.76-5,39.83.16.28,1.92,4.48,5.93,5.54l1-8.7.89,9.1c9.4,2,16.61-1.7,24.16-2.86l.72-11.42,2.17,11c.73-.09,1.39-.16,2-.21-.1-17.44-4.93-43.64-5.14-44.43C117.45,357.47,116.05,354.69,112.17,353.77Z" style="fill:#febb00"/><path d="M106.41,336.36c-3.59-2.81-9.63-.09-11.22,3.59-1.18,2.74-2.29.84-2.17.11-.36,1.82.41,3.4,3.94,3.14.74-.06-1.64.68-1.64.68s3.76,7.8,9.57,5.89a8.93,8.93,0,0,0,3.23-2.25s-1.88.31-.89-1.22C109.15,343.31,109.57,338.84,106.41,336.36Z" style="fill:#ff4745"/><path d="M63.48,383.86c-.17.26.78,1.21,1.07,1.29.76,0,.74-.47,1.46-.4a6.46,6.46,0,0,1-1.77-.8C64,383.75,63.71,383.45,63.48,383.86Z" style="fill:#fcd2c5"/><path d="M64.32,384.74c-.9,0-2.91.31-3.06.33a11.33,11.33,0,0,0-1.74.3,1.72,1.72,0,0,0-.61.82.52.52,0,0,0,.28.5c-.15.41.94.59.88.69-.25.38.2.83,1.77.57.09,0,4.07.11,5.35.05a16.16,16.16,0,0,0-.62-3.2A16.14,16.14,0,0,0,64.32,384.74Z" style="fill:#fcd2c5"/><path d="M87,379.16a2.32,2.32,0,0,0-.71.17c-3.53,1.52-16.44,4.61-20.37,5.61a12.72,12.72,0,0,1,1.15,3c6.44-1.78,22.77-3.19,22.81-5.86A2.6,2.6,0,0,0,87,379.16Z" style="fill:#fcd2c5"/><path d="M93.37,359.7c-1.89,3-5.28,14-7.91,18.93-3.22,6.06,2.16,6.15,3.73,4.63,4.13-4,13.56-17,11.71-19.31C100.09,362.92,93.72,359.15,93.37,359.7Z" style="fill:#fcd2c5"/><path d="M92.54,357.73c-1.11,3.46-2.18,6.66-3.6,10.41a101.38,101.38,0,0,1-4.2,10.11,12.51,12.51,0,0,0-.57,1.22c-1.46.79-15.46,4-17.74,4.61l.83,4.67c5.68-.78,19.34-1.77,22.52-5,3.36-3.28,12.83-15.58,11.44-19.42C98.92,358,92.63,357.45,92.54,357.73Z" style="fill:#febb00"/><path d="M83.49,391.08c-.34-.08-.7-.26-.74.22-.05.3,1.2.8,1.5.76.69-.33.49-.73,1.18-.95A6.45,6.45,0,0,1,83.49,391.08Z" style="fill:#fcd2c5"/><path d="M86,390.93a16.1,16.1,0,0,0-2.09.84c-.82.38-2.55,1.45-2.67,1.52a11.26,11.26,0,0,0-1.47,1,1.71,1.71,0,0,0-.23,1,.52.52,0,0,0,.46.35c0,.44,1.1.17,1.08.28-.07.45.52.68,1.85-.18.08-.05,3.78-1.52,4.92-2.09A16.1,16.1,0,0,0,86,390.93Z" style="fill:#fcd2c5"/><path d="M104.12,377.38a2.32,2.32,0,0,0-.68.27c-3.25,2.05-14,11.75-17.71,13.35a12.77,12.77,0,0,1,1.61,2.82c6.08-2.76,20.46-11.33,20.08-14A2.6,2.6,0,0,0,104.12,377.38Z" style="fill:#fcd2c5"/><path d="M107.41,357.16c-1.4,3.27-3,14.64-4.88,19.93-2.24,6.49,3.09,5.74,4.4,4,3.46-4.6,10.76-18.86,8.57-20.9C114.54,359.3,107.66,356.57,107.41,357.16Z" style="fill:#fcd2c5"/><path d="M106.28,355.34c-.56,3.59-1.12,6.92-1.94,10.85a101.4,101.4,0,0,1-2.57,10.64,12.51,12.51,0,0,0-.37,1.29c-1.32,1-3.05,2.42-4.88,3.91-4,3.26-8.94,7.31-11.11,8.24l2.26,4.29c5.36-2.43,17.29-9.4,19.93-13,2.81-3.76,10.26-17.39,8.29-21C112.62,354.63,106.33,355.06,106.28,355.34Z" style="fill:#febb00"/><polygon points="125.83 421.42 137.64 455.79 138.96 455.79 127.16 421.42 125.83 421.42" style="fill:#edf5f8"/><polygon points="105.87 421.42 117.68 455.79 119 455.79 107.19 421.42 105.87 421.42" style="fill:#edf5f8"/><path d="M128.46,370.6c-8.28,0-16.25,6.71-17.8,15l-5.18,21.53c-.91,4.87-6.24,8.39-11.19,8.39H83.5a2.94,2.94,0,0,0,0,5.88l44.46,0a4.3,4.3,0,0,0,4.23-3.49l8.46-32.36C142.19,377.31,136.74,370.6,128.46,370.6Z" style="fill:#edf5f8"/><path d="M128.46,370.6c-8.28,0-16.25,6.71-17.8,15l-5.18,21.55c-.91,4.87-6.24,8.41-11.19,8.41H83.5a2.93,2.93,0,1,0,0,5.85l1.4,0a3,3,0,0,1,2.71-1.81H98.38c5,0,10.28-3.51,11.19-8.38l5.18-21.52c1.55-8.28,9.52-15,17.8-15a13.07,13.07,0,0,1,6.66,1.73A12.09,12.09,0,0,0,128.46,370.6Z" style="fill:#fff"/><polygon points="79.93 455.79 81.25 455.79 93.06 421.42 91.74 421.42 79.93 455.79" style="fill:#fff"/><polygon points="99.89 455.79 101.21 455.79 113.02 421.42 111.7 421.42 99.89 455.79" style="fill:#fff"/><path d="M298,220.27c-.18-.31-.28-.69-.66-.4s.22,1.42.46,1.61c.71.28.87-.13,1.5.23A6.48,6.48,0,0,1,298,220.27Z" style="fill:#fcd2c5"/><path d="M296.69,221.3a8,8,0,0,0-1.44-.25,1.89,1.89,0,0,0-.82.55.49.49,0,0,0,0,.54c-.29.33.45.81.37.88-.35.27-.21.8,1.08,1,.08,0,3,1.31,4,1.64a18.69,18.69,0,0,0,.91-3,10.56,10.56,0,0,0-1.67-.73C298.44,221.67,296.8,221.33,296.69,221.3Z" style="fill:#fcd2c5"/><path d="M322.21,205.74c-1.24-.38-8.63.17-8.6.82.17,3.55,3.66,14.5,4.33,20.06.82,6.82,5.28,3.81,5.7,1.67C324.74,222.64,325.08,206.62,322.21,205.74Z" style="fill:#fcd2c5"/><path d="M322.21,205.74c-1.24-.38-8.63.17-8.6.82.12,2.51,1.7,8.83,2.41,14.26a42.77,42.77,0,0,0,6.19-.29c.74-.09,3-.31,3.71-.46C326.13,213.58,324.12,206.33,322.21,205.74Z" style="fill:#febb00"/><path d="M322,226.21a2.3,2.3,0,0,0-.66-.31c-3.71-1-18.11-2.36-21.81-4a12.73,12.73,0,0,1-1,3.09c6.14,2.62,22.18,7.42,23.87,5.36A2.59,2.59,0,0,0,322,226.21Z" style="fill:#fcd2c5"/><path d="M124.35,316.34c-.44-.52-1-1.33-1-1.33l-2.51,1.4s-.2.28-.07,1.07a2,2,0,0,0,.1,1.66,7.54,7.54,0,0,0,2.65,1.36,8.45,8.45,0,0,0,3,.41c1.23,0,2.75-.69,2.75-1.41C129.26,318.07,125.2,317.35,124.35,316.34Z" style="fill:#272063"/><path d="M124.1,314.94l-3.37.6a10.78,10.78,0,0,0,.06,1.94s1.57.56,2.1.26a4.2,4.2,0,0,0,1.46-1.4A1.23,1.23,0,0,1,124.1,314.94Z" style="fill:#fcd2c5"/><path d="M113.64,234.34v15.78c1.18.93,4.08,15.05,6.21,29.94,2.46,17.25.52,35.53.52,35.53,1.23,1.35,3.67,0,3.7-.11A218.85,218.85,0,0,0,130.28,280a341.65,341.65,0,0,0,.18-47C128.46,233.84,119.68,234.74,113.64,234.34Z" style="fill:#01d06a"/><path d="M161.18,233.81a6.48,6.48,0,0,1-1.94.08c.7.19.51.6,1.21.91.3,0,1.54-.5,1.48-.8C161.87,233.53,161.52,233.72,161.18,233.81Z" style="fill:#fcd2c5"/><path d="M163.55,235.94c-.12-.07-1.89-1.08-2.72-1.44a16.11,16.11,0,0,0-2.12-.77,16.14,16.14,0,0,0-1.77,2.74c1.16.53,4.9,1.89,5,1.94,1.36.82,1.94.57,1.85.12,0-.11,1.06.13,1.07-.31a.52.52,0,0,0,.45-.36,1.72,1.72,0,0,0-.26-1A11.2,11.2,0,0,0,163.55,235.94Z" style="fill:#fcd2c5"/><path d="M140.14,220.75a2.6,2.6,0,0,0-3.23,2.57c-.29,2.65,14.34,10.78,20.51,13.34a12.74,12.74,0,0,1,1.52-2.87c-3.78-1.49-14.8-10.85-18.11-12.8A2.32,2.32,0,0,0,140.14,220.75Z" style="fill:#fcd2c5"/><path d="M136.22,200.64c-.27-.58-7.07,2.36-8,3.27-2.13,2.11,5.61,16.13,9.21,20.62,1.37,1.7,6.72,2.29,4.27-4.13C139.72,215.18,137.73,203.86,136.22,200.64Z" style="fill:#fcd2c5"/><path d="M139.56,209.57A66.26,66.26,0,0,0,137,200.3a.94.94,0,0,0-.67-.51c-1.32-.28-7.65,2.59-8.62,3.55-2.9,2.87,6.19,18,9.11,21.65,2.75,3.56,14.9,10.15,20.33,12.41l2.13-4.36c-2.19-.86-15-10.68-16.35-11.64C142.77,221,140.51,213.49,139.56,209.57Z" style="fill:#febb00"/><path d="M261.79,269.12c9,6.09,31.23,21,34.81,23V262.41l-34.81-41.69Z" style="fill:#272063"/><path d="M302.49,215.18v0h0Z" style="fill:#edf5f8"/><path d="M307.45,234.57a16.13,16.13,0,0,1-4.95.91c-1.7,0-5.83-.8-6.25-1.51,0,.06,0,.12-.06.18v0c-2.61,8.75-5,18.5-5,24.47,0,5.45.89,17.41,1.6,26.58a14.22,14.22,0,0,0,3.17,8.14,8.69,8.69,0,0,0,6.58,3.28c5,0,9.25-4.93,9.75-11.42.71-9.18,1.59-21.14,1.59-26.6,0-6-2.44-15.77-5.05-24.55C308.35,234.25,307.91,234.42,307.45,234.57Z" style="fill:#edf5f8"/><path d="M307.38,234.55a16,16,0,0,1-4.91.9,16.66,16.66,0,0,1-4.92-.82.57.57,0,0,1,0,.09c-1.47,6.69-2.71,13.57-2.71,18,0,4.71.59,15,1.08,23a14.36,14.36,0,0,0,2.15,7,5.53,5.53,0,0,0,4.45,2.83c3.4,0,6.25-4.27,6.59-9.87.48-7.94,1.07-18.27,1.07-23,0-4.49-1.16-11.45-2.77-18.16Z" style="fill:#fff"/><path d="M208.53,293.76h49.78c.44-6.65,3.88-37.12,5.72-60.47H202.81C204.65,256.64,208.09,287.11,208.53,293.76Z" style="fill:#272063"/><path d="M208.53,293.76c-.44,1.48-3.88,8.26-5.72,13.46H264c-1.85-5.2-5.28-12-5.72-13.46Z" style="fill:#febb00"/><path d="M170.07,292.14c3.57-2,25.79-16.94,34.81-23v-48.4l-34.81,41.69Z" style="fill:#272063"/><path d="M233.44,81h0s-10,17.9-20,40c-9.71,21.64-19.33,47.42-19.33,64.49,0,14.59,3.07,46.6,5.55,71.16a33.95,33.95,0,0,0,67.56,0c2.47-24.55,5.54-56.54,5.54-71.13,0-17.06-9.61-42.83-19.32-64.47C243.48,98.89,233.44,81,233.44,81Z" style="fill:#edf5f8"/><path d="M233.4,81.07s-32.08,58.85-32.08,88.7c0,12.62,2.51,40.31,4.53,61.56,1.42,15,13.34,26.43,27.58,26.43h0c14.23,0,26.15-11.42,27.58-26.43,2-21.23,4.53-48.91,4.53-61.53,0-29.85-32.08-88.73-32.08-88.73Z" style="fill:#fff"/><g id="_Group_7" data-name="&lt;Group&gt;"><g id="_Group_8" data-name="&lt;Group&gt;"><path d="M233.41,136.21l-.24,0V148H221.8a11.62,11.62,0,1,0,11.61-11.78Z" style="fill:#febb00"/></g></g><g id="_Group_9" data-name="&lt;Group&gt;"><g id="_Group_10" data-name="&lt;Group&gt;"><path d="M233.42,168.35l-.24,0V180l-10.09-5.23a11.49,11.49,0,0,0-1.3,5.23,11.62,11.62,0,1,0,11.63-11.62Z" style="fill:#272063"/></g></g><g id="_Group_11" data-name="&lt;Group&gt;"><g id="_Group_12" data-name="&lt;Group&gt;"><path d="M233.41,200.5c-.29,0-.57.07-.86.08v11.07l-5.78-9a11.6,11.6,0,1,0,6.64-2.11Z" style="fill:#ff4745"/></g></g><path d="M233.39,81s-10,17.89-20,40a76.15,76.15,0,0,0,40,.06c-9.94-22.13-20-40.06-20-40.06Z" style="fill:#ff4745"/><path d="M167.28,252.69c-.8-5.91-4.51-15.26-8.27-23.59-.42.22-.84.43-1.27.63a17.05,17.05,0,0,1-4.8,1.47,20.23,20.23,0,0,1-6.41-.49c-1.42,9-2.54,19.07-1.74,25,.72,5.4,3.2,17.14,5.14,26.14,1.36,6.36,6.2,10.69,11.19,10,4.76-.64,8.16-5.62,8.16-11.7q0-.46,0-.92C168.73,270.07,168,258.09,167.28,252.69Z" style="fill:#edf5f8"/><path d="M162.86,247.32c-.6-4.43-2.75-11.15-5.13-17.59a16.71,16.71,0,0,1-4.8,1.47,16.4,16.4,0,0,1-5-.21c-.58,6.86-.88,13.93-.28,18.37.64,4.67,2.61,14.83,4.14,22.63,1.09,5.5,4.48,9.35,7.86,8.89,3.11-.42,5.27-4.36,5.27-9.36,0-.42,0-.85,0-1.3C164.27,262.32,163.49,252,162.86,247.32Z" style="fill:#fff"/><path d="M105.35,316.79c-.4-.55-.87-1.4-.87-1.4l-2.61,1.19s-.22.26-.16,1.06a2,2,0,0,0,0,1.66c.23.46,1.75,1,2.54,1.56a5.87,5.87,0,0,0,2.93.64c1.23,0,2.79-.48,2.85-1.19C110.1,318.9,106.11,317.86,105.35,316.79Z" style="fill:#272063"/><path d="M105,315.29l-3.33.36s0,1.2,0,2c0,0,1.52.68,2.08.43a4.19,4.19,0,0,0,1.56-1.28A1.77,1.77,0,0,1,105,315.29Z" style="fill:#fcd2c5"/><path d="M101.09,234.2s1.65,31.06,2.6,46.07c1.1,17.39-2.26,35.47-2.26,35.47,1.12,1.45,3.65.31,3.7.18a216.37,216.37,0,0,0,8.95-34.76,344.61,344.61,0,0,0,3.89-47C115.9,234.87,107.08,235.07,101.09,234.2Z" style="fill:#01d06a"/><path d="M125.72,186.91c0,1.7-1,6.28-1.73,7.08,1,3.24,6,3.87,6.59,2.11-.55-2,.74-5.56.8-5.9C130.11,190.23,126.09,187.27,125.72,186.91Z" style="fill:#fcd2c5"/><path d="M131,181.49a4.19,4.19,0,0,0-4.35,4.23l-.15,2.53c-.11,1.84,2.56,4.9,4.18,4.66,3.84-.58,5.06-7.48,5-8.27C135.45,182.43,133.32,181.62,131,181.49Z" style="fill:#fcd2c5"/><path d="M135.55,198.57c-.74-.57-5-2.47-5-2.47a3.21,3.21,0,0,1-2.42.94c-1.77-.36-4.17-3-4.17-3s-4,.36-5.26.7c-11.49,3-18.48,16.53-18.48,49.71.57.11,2.09.25,2.8.43l3.52-10.65-.7,11.42c10.74,5.78,18.41,3.6,26.38.37-1.09-17.74,3.89-35.87,4.16-37.86C136.88,204.7,138.42,200.77,135.55,198.57Z" style="fill:#febb00"/><path d="M118.92,206.83c.2-2.62-6.66-2.65-6.8,1.63-.18,5.59,8.33,17.3,9,18.1,1.84,2.27,11.84,4.18,11.84,4.18S118.29,214.95,118.92,206.83Z" style="fill:#fb0;mix-blend-mode:multiply"/><path d="M128.15,197c-1.77-.36-4.17-3-4.17-3l-2.68.19a11.53,11.53,0,0,0-2.59.51c4.68,3.05,11.44,10.64,11.44,10.64s4.57-3.26,5.29-6.83c-.93-.63-4.88-2.41-4.88-2.41A3.21,3.21,0,0,1,128.15,197Z" style="fill:#272063"/><path d="M126.21,177.27c-3.69,2.91-3.54,8.86-.71,11.72,0,0,.73-3.84,2.07-5.5,9.95,2.83,11.14.29,11.17-.78C138.88,177.84,131,173.47,126.21,177.27Z" style="fill:#272063"/><path d="M126.37,184.7c-.63.05-1.17,1-1.12,1.59a2.2,2.2,0,0,0,1.46,1.56,29.78,29.78,0,0,0,.72-2.92A2.1,2.1,0,0,0,126.37,184.7Z" style="fill:#fcd2c5"/><path d="M148.64,232.2a6.46,6.46,0,0,1-1.93.19c.71.15.55.57,1.26.84.3,0,1.51-.59,1.43-.88C149.31,231.88,149,232.09,148.64,232.2Z" style="fill:#fcd2c5"/><path d="M151.12,234.19c-.13-.06-1.94-1-2.79-1.28a16.2,16.2,0,0,0-2.16-.65,16.13,16.13,0,0,0-1.61,2.83c1.19.47,5,1.61,5.09,1.66,1.41.74,2,.46,1.86,0,0-.11,1.07.07,1.06-.37A.52.52,0,0,0,153,236a1.72,1.72,0,0,0-.32-1A11.28,11.28,0,0,0,151.12,234.19Z" style="fill:#fcd2c5"/><path d="M129.67,220.84a12.57,12.57,0,0,0-.49-1.26,101.57,101.57,0,0,1-3.49-10.37,66.28,66.28,0,0,0-3.13-9.11.94.94,0,0,0-.7-.47c-1.34-.21-7.49,3-8.4,4-2.74,3,7.19,17.61,10.31,21.1,3,3.41,15.45,9.31,21,11.26l1.88-4.47c-2.24-.74-7.53-4.34-11.78-7.24C132.92,223,131.08,221.73,129.67,220.84Z" style="fill:#febb00"/><path d="M338.58,270.13c.08.94,2.7,47.89,2.7,47.89a3.85,3.85,0,0,0,3,.66s4.23-47.91,4.07-50.07C347.13,269.57,339.36,270.9,338.58,270.13Z" style="fill:#fcd2c5"/><path d="M344.13,318l-2.51-1.4s-.54.81-1,1.33c-.85,1-4.91,1.73-4.91,3.15,0,.72,1.51,1.36,2.75,1.41a5.87,5.87,0,0,0,3-.41c.82-.49,2.39-.91,2.65-1.36a2,2,0,0,0,.1-1.66C344.33,318.3,344.13,318,344.13,318Z" style="fill:#272063"/><path d="M340.64,318a4.2,4.2,0,0,0,1.46,1.4c.54.3,2.1-.26,2.1-.26.13-.79.19-1.33.19-1.33l-2.85-1.28A6.26,6.26,0,0,1,340.64,318Z" style="fill:#fcd2c5"/><path d="M334.53,234.57c-.45,3.22,6.4,82.53,6.4,82.53s2.47,1.46,3.7.11c0,0,1.28-18.28,3.74-35.53,2.13-14.89,3-45.73,3-45.73C345.31,236.35,336.54,235.45,334.53,234.57Z" style="fill:#802b52"/><path d="M325.47,270.13c.08.94,2.7,47.89,2.7,47.89a3.85,3.85,0,0,0,3,.66s4.23-47.91,4.07-50.07C334,269.57,326.25,270.9,325.47,270.13Z" style="fill:#fcd2c5"/><path d="M331,318l-2.51-1.4s-.54.81-1,1.33c-.85,1-4.91,1.73-4.91,3.15,0,.72,1.51,1.36,2.75,1.41a8.45,8.45,0,0,0,3-.41,7.54,7.54,0,0,0,2.65-1.36,2,2,0,0,0,.1-1.66C331.22,318.3,331,318,331,318Z" style="fill:#272063"/><path d="M327.53,318a4.2,4.2,0,0,0,1.46,1.4c.54.3,2.1-.26,2.1-.26.13-.79.19-1.33.19-1.33l-2.85-1.28A6.26,6.26,0,0,1,327.53,318Z" style="fill:#fcd2c5"/><path d="M321.42,234.57c-.45,3.22,6.4,82.53,6.4,82.53s2.47,1.46,3.7.11c0,0,1.28-18.28,3.74-35.53,2.13-14.89,1.81-29,3-29.94V235.95C332.2,236.35,323.42,235.45,321.42,234.57Z" style="fill:#802b52"/><path d="M321.4,237s-1.82,7.24-.74,7.81c2.45,1.29,9.7-2.15,15.34-4.23s16.62-3.44,16.62-4.69c0-3.38-3.1-10.12-3.1-10.12Z" style="fill:#febb00"/><path d="M319.25,193.21c.09.33,1.74,3.69,1.41,5.79.76,1.7,5.68.55,6.33-2.78-.77-.72-2.31-5.17-2.46-6.87C324.2,189.75,320.51,193.11,319.25,193.21Z" style="fill:#fcd2c5"/><path d="M323.46,188.26a4.19,4.19,0,0,0-4.77-3.76c-2.27.37-4.3,1.4-4.3,3.63,0,.8,1.93,7.53,5.81,7.7,1.64.07,4-3.25,3.67-5.07Z" style="fill:#fcd2c5"/><path d="M332.3,196.36c-1.33,0-5.31-.15-5.31-.15s-2.11,2.92-3.83,3.46a3.21,3.21,0,0,1-2.5-.68s-4,2.33-4.69,3a6.81,6.81,0,0,0-1.57,8c8.72,19,4.76,28.51,5.85,29.69,2.69,2.9,31.31-6,31.08-10.27-.83-15.17-10.06-26.91-10.75-28C338.34,198,336.29,196.38,332.3,196.36Z" style="fill:#272063"/><path d="M323.45,182.21c-4-2.18-8.27,2.13-8.27,2.13-3.67,1.64-1.51,7.07.45,7.47-1.81-3.94.68-5.94.68-5.94,5.19-1.3,8.47,4.48,8.5,6.17C324.81,192,329.4,185.5,323.45,182.21Z" style="fill:#ff4746"/><path d="M323.15,187.34a2.1,2.1,0,0,0-.91.58,29.79,29.79,0,0,0,1.69,2.49,2.2,2.2,0,0,0,.83-2C324.57,187.83,323.76,187.17,323.15,187.34Z" style="fill:#fcd2c5"/><path d="M291.66,225.6a15.82,15.82,0,0,0,10.79,6.84c3-10.3,5.16-19.85,5.16-19.85h0S299.78,218.6,291.66,225.6Z" style="fill:#ff4745"/><path d="M301,226.45c-.12.28,1,1.07,1.27,1.1.75-.15.66-.59,1.38-.63a6.48,6.48,0,0,1-1.88-.5C301.47,226.26,301.17,226,301,226.45Z" style="fill:#fcd2c5"/><path d="M302,227.17c-.89.17-2.82.78-3,.82a11.28,11.28,0,0,0-1.66.58,1.72,1.72,0,0,0-.47.91.52.52,0,0,0,.36.45c-.08.43,1,.43,1,.53-.18.41.33.79,1.84.27.09,0,4-.55,5.28-.83a16.09,16.09,0,0,0-1.14-3.05A16,16,0,0,0,302,227.17Z" style="fill:#fcd2c5"/><path d="M333.26,199.35c-2.16,2.83-6.53,13.45-9.59,18.13-3.76,5.75,1.59,6.32,3.29,4.95,4.48-3.62,15-15.66,13.41-18.17C339.66,203.17,333.65,198.84,333.26,199.35Z" style="fill:#fcd2c5"/><path d="M333.26,199.35c-2.12,1.35-4.38,7.85-7.33,12.46A18.61,18.61,0,0,0,334,217.6c4.34-4.83,7-10.26,7-12.26C341,200.57,336,197.6,333.26,199.35Z" style="fill:#febb00"/><path d="M325.13,218.16a2.31,2.31,0,0,0-.72.1c-3.66,1.2-16.42,8-20.43,8.63a12.71,12.71,0,0,1,.87,3.13c6.57-1.19,22.6-6,22.89-8.65A2.59,2.59,0,0,0,325.13,218.16Z" style="fill:#fcd2c5"/><path d="M341,188.71c-1.65-1.12-2.83-1.27-4.24-5.75-4.67-14.87-15.45-5.59-14.23-1.69.3,1,1,1.41,1.53.19.94-2.06,5.41-4.75,4.77,5.13-.17,2.61-2.59,6.49,5.32,9.26,7.16,2.51,2.39,5.24,3.17,7C339.28,207.35,349.1,194.24,341,188.71Z" style="fill:#ff4746"/><path d="M293.67,221.75a11.34,11.34,0,0,0,.85,1.54,1.71,1.71,0,0,0,1,.31.52.52,0,0,0,.39-.43c.44,0,.25-1.08.36-1.06.44.11,1-.68,0-1.86C295.7,219.7,293.37,221.11,293.67,221.75Z" style="fill:#fcd2c5"/><path d="M323.15,180.8a1.52,1.52,0,0,0-.94,0,2,2,0,0,0-1,.83,8.07,8.07,0,0,1,3.36,1.3C324.74,182.06,324.52,181.24,323.15,180.8Z" style="fill:#272063"/><path d="M368,283c-.65,3.06.3,6.68-.24,9.82-.67,3.93-3.16,5.05-4.85,7.53-2,2.93-2.92,8.44-2.18,13.12a68.3,68.3,0,0,0,2.18,8,18.77,18.77,0,0,1,.6,8.7c-.95,4.18-6,7.42-6,25.11,0,16.15,11.53,22.43,14.8,26.39V276.93l-1.48,1.43A8.53,8.53,0,0,0,368,283Z" style="fill:#01d06a"/><path d="M381.46,321.47a68.26,68.26,0,0,0,2.18-8c.73-4.69-.18-10.19-2.18-13.12-1.69-2.48-4.19-3.6-4.85-7.53-.54-3.14.41-6.77-.24-9.82a8.54,8.54,0,0,0-2.81-4.61l-1.48-1.43V381.67c3.27-4,14.8-10.24,14.8-26.39,0-17.7-5.07-20.94-6-25.11A18.72,18.72,0,0,1,381.46,321.47Z" style="fill:#01d06a"/><path d="M386.86,345.55c-.76,1-.42,2.5-1.11,3.56-.86,1.32-2.76,1.26-4.21,1.85a4.66,4.66,0,0,0-2.82,4.4,17.21,17.21,0,0,0,.81,3.34,3.82,3.82,0,0,1-.4,3.3c-1.08,1.35-5,1.59-6.73,8.08-1.54,5.92,6.16,10.39,8.14,12.45l10-38.39-1.2.25A3.93,3.93,0,0,0,386.86,345.55Z" style="fill:#febb00"/><path d="M392.12,350.77c-.09-1.25.94-2.4.77-3.65a4,4,0,0,0-1.58-2.22l-.93-.8-10,38.39c2.73-.84,11.64-1,13.18-6.9,1.69-6.49-1.65-8.63-1.94-10.33a3.82,3.82,0,0,1,1.26-3.08,17.2,17.2,0,0,0,2.33-2.53,4.66,4.66,0,0,0-.32-5.22C393.91,353.21,392.23,352.33,392.12,350.77Z" style="fill:#febb00"/><path d="M353.2,379s7.19,7.7,7.19,12.88a22.87,22.87,0,0,1-1.23,5.87A11.69,11.69,0,0,0,370.28,413h19a11.69,11.69,0,0,0,11.12-15.22,22.87,22.87,0,0,1-1.23-5.87c0-5.18,7.19-12.88,7.19-12.88Z" style="fill:#fff"/></g></g></svg>