<svg id="Layer_2" data-name="Layer 2" xmlns="http://www.w3.org/2000/svg" viewBox="0 0 100 100"><title>client-rotihouse</title><path d="M85.71,56a6.36,6.36,0,0,1,0-11.37H86c.14-2.85-.16-11.86-.32-12.84-1.07-6.86-6.19-11-12.14-13.59-4.62-2-9.78-2.53-14.28-4.87A24,24,0,0,1,49.91,3.8a24,24,0,0,1-9.32,9.48c-4.49,2.35-9.65,2.86-14.28,4.87-5.95,2.59-11.07,6.72-12.14,13.59-.15,1-.45,10-.32,12.84h.53a6.36,6.36,0,0,1,0,11.37h-.56V75.61a7.21,7.21,0,0,0,2,4.14l.84.77L45.53,95.15a9.68,9.68,0,0,0,8.75,0L83.12,80.52l.84-.77a7.21,7.21,0,0,0,2-4.14V56Z"/><text transform="translate(28.51 70.89)" style="font-size:13.07487964630127px;fill:#fff;font-family:Righteous-Regular, Righteous">HOUSE</text><path d="M41.2,77a.39.39,0,0,0-.35-.39c-1.95-.21-3.49-.88-4.38-.94s-1.77.7-1.56,1.53a1.34,1.34,0,0,0,.61.78,2,2,0,0,0,1.36.27c.93-.14,1.85-.52,2.78-.71.11,0,.62-.09,1.2-.16A.39.39,0,0,0,41.2,77Z" style="fill:#fff"/><path d="M41.6,74.18c-.5,0-.93.8-1.08,1.92l.37,0a.84.84,0,0,1,0,1.66l-.38,0c.14,1.15.58,2,1.09,2s1.14-1.27,1.14-2.83S42.23,74.18,41.6,74.18Z" style="fill:#fff"/><path d="M63.77,75.65c-.71,0-1.81.47-3.2.75,0,.2,0,.41,0,.61s0,.34,0,.52h0c.93.19,1.85.57,2.78.71A2,2,0,0,0,64.73,78a1.34,1.34,0,0,0,.61-.78C65.54,76.35,64.53,75.6,63.77,75.65Z" style="fill:#fff"/><path d="M59,74.18c-.5,0-.93.8-1.08,1.92l.37,0a.84.84,0,0,1,0,1.66l-.38,0c.14,1.15.58,2,1.09,2s1.14-1.27,1.14-2.83S59.64,74.18,59,74.18Z" style="fill:#fff"/><path d="M42.44,74.18a5.74,5.74,0,0,1,0,5.67H59V74.18Z" style="fill:#fff"/><path id="svg_24" data-name="svg 24" d="M48.77,17.51c1.24,1.53-.61,3.84-2.89,7.74s2.81,5.86,3.22,5.9-2-1.49-1.22-3.81,2.57-3.63,3-5.4S47.53,16,48.77,17.51Z" style="fill:#fff"/><path id="svg_25" data-name="svg 25" d="M51.78,22a2,2,0,0,1,0,1.28,5.12,5.12,0,0,1-.77,1.64,25.62,25.62,0,0,0-1.69,2.55c-.8,1.44.83,2.85.52,2.37s.07-1.48.56-2.07.83-1.07,1.16-1.55a3.74,3.74,0,0,0,.83-2.12,2.78,2.78,0,0,0-.21-1.28C52,22.27,51.53,21.52,51.78,22Z" style="fill:#fff"/><path id="svg_26" data-name="svg 26" d="M51,31.09c-.2.36-.26-.75.1-1.7s1.49-1.8,2-2.7a3.76,3.76,0,0,0,.4-3c-.39-.73.07.08.4.6a2.74,2.74,0,0,1,.5,1.75,4,4,0,0,1-1.7,3.15C51.16,30.5,51.16,30.74,51,31.09Z" style="fill:#fff"/><path d="M66,35.09h0a1.59,1.59,0,0,1-.31-.62l-10.95.29a.9.9,0,0,1-.78-.68v-.24a.82.82,0,0,1,.76-.63l10.9.24a1.11,1.11,0,0,1,.37-.69h0a2.11,2.11,0,0,1,.88-.45l5,.2v.2L68,32.87c-.06,0-.1.06-.1.13v0a.13.13,0,0,0,.1.14L72,33.4v.2l-4,.19a.13.13,0,0,0-.1.14V34a.13.13,0,0,0,.1.13l3.91.19v.22l-3.9.17a.13.13,0,0,0-.11.13A.13.13,0,0,0,68,35l3.91.39-4.72.13A1.16,1.16,0,0,1,66,35.09Z" style="fill:#fff"/><path d="M46.54,33.9a.74.74,0,0,0-.7-.66l-11.21.21S34.29,32,32.1,32.1a7.54,7.54,0,0,0-2,.24,3,3,0,0,0-1,.52,1.68,1.68,0,0,0-.55.72.7.7,0,0,0,.09.55,2.19,2.19,0,0,0,.6.73,4.08,4.08,0,0,0,2.78.66s2,.12,2.61-1.23l11.23.17S46.46,34.39,46.54,33.9Z" style="fill:#fff"/><rect x="48.71" y="32.94" width="2.35" height="2.35" style="fill:#fff"/><path d="M25.91,41V39.85l1.53.06q.64,0,1.82,0,1,0,1.72-.06,1.19-.07,2-.07a6.16,6.16,0,0,1,2.25.31,2.68,2.68,0,0,1,1.27,1.29A5,5,0,0,1,37,43.8a6.44,6.44,0,0,1-.72,3A5.18,5.18,0,0,1,34.07,49q.24.62.55,1.27t.36.79l.11.26,1.48,3.22.64,1.38q.72,1.38.88,1.63a1.14,1.14,0,0,0,.32.35A1.34,1.34,0,0,0,39,58v1.15q-1.47-.06-2.13-.06t-1.52.06a4.26,4.26,0,0,0-.23-.79l-2-4.88q-.88-2.1-1.49-3.3a3.92,3.92,0,0,0-.59-.91l.11-.46a2.86,2.86,0,0,0,1.73-.34,3,3,0,0,0,1-1.41,6.13,6.13,0,0,0,.4-2.27,4.71,4.71,0,0,0-.42-2.11,2.57,2.57,0,0,0-1-1.17,3.45,3.45,0,0,0-1.44-.21,3.8,3.8,0,0,0-.91.11q0,.5-.06,2.24-.06,3.91-.06,5.22,0,2.07,0,4.39,0,2.85.06,3.23a4.63,4.63,0,0,0,.11,1,.54.54,0,0,0,.12.2.61.61,0,0,0,.28.15,6.79,6.79,0,0,0,1.11.08v1.22q-1.64-.08-3.31-.08-1.49,0-2.77.08V57.95a5.17,5.17,0,0,0,1.29-.15.3.3,0,0,0,.17-.14,1.18,1.18,0,0,0,.08-.39q.07-.54.1-1.63l.08-4V46.48l0-2.92a12.6,12.6,0,0,0-.11-2.07.5.5,0,0,0-.14-.23A4,4,0,0,0,25.91,41Z" style="fill:#fff"/><path d="M59,59.17V58a3.33,3.33,0,0,0,1.36-.22.89.89,0,0,0,.29-.55,32.58,32.58,0,0,0,.11-3.58V45.4q0-3.39,0-3.79H59.41a15.07,15.07,0,0,0-1.82.1q-.32,0-.36.11a1.23,1.23,0,0,0-.11.48A19.53,19.53,0,0,0,57,44.48h-.79q0-2.83,0-3.19,0-.61-.1-1.31l.09-.14q.45.07,1,.1.82,0,3.17,0h3.87q2.41,0,3.22,0,.44,0,.89-.1l.1.14q-.09.84-.11,1.48,0,.11,0,3h-.79q0-1.08-.12-2.06a1.82,1.82,0,0,0-.12-.59.51.51,0,0,0-.31-.1,13.77,13.77,0,0,0-1.88-.11H63.57q0,.48,0,3.79v8.28a32.89,32.89,0,0,0,.11,3.59.84.84,0,0,0,.29.53,3.25,3.25,0,0,0,1.37.23v1.13Q63.45,59,62.18,59T59,59.17Z" style="fill:#fff"/><path d="M75.68,39.83V41a6.49,6.49,0,0,0-1.15.1.58.58,0,0,0-.26.15.5.5,0,0,0-.11.23,4.65,4.65,0,0,0-.1.9q0,.36,0,1.35,0,3.4,0,3.66V53l0,2.53a10.91,10.91,0,0,0,.1,1.85.52.52,0,0,0,.42.46,6.23,6.23,0,0,0,1.13.09v1.22q-1.56-.08-3.33-.08-1.54,0-2.75.08V57.95a10.08,10.08,0,0,0,1.15-.1.42.42,0,0,0,.36-.37q0-.17.08-1.3.08-1.66.08-3.07V47.34q0-2.75,0-3.54,0-1.75-.11-2.2a.73.73,0,0,0-.09-.28.45.45,0,0,0-.23-.16A7.1,7.1,0,0,0,69.6,41V39.83q1.21.08,2.77.08Q74.12,39.92,75.68,39.83Z" style="fill:#fff"/><path d="M49.37,59.15a4.7,4.7,0,0,1-.61,0A4.53,4.53,0,0,1,47.35,59,10.64,10.64,0,0,1,46,55,4.12,4.12,0,0,1,49.37,59.15Z" style="fill:#fff"/><path d="M52.06,57.41a3.33,3.33,0,0,1-1.14,1.21,3.54,3.54,0,0,1-.46.24c-1.62-3.18,1.09-5.77,1.09-5.77A11.15,11.15,0,0,1,52.06,57.41Z" style="fill:#fff"/><path d="M48.25,54.83S45.92,56.22,44.92,50C44.92,50,48.39,49.89,48.25,54.83Z" style="fill:#fff"/><path d="M47.13,49.79s-.95.53-1.9-.73a6,6,0,0,1-.83-1.66,15.16,15.16,0,0,1-.55-2.2l-.73-3.79,1,3.57a3.68,3.68,0,0,1,2.3,1.6,4.21,4.21,0,0,1,.5,1.11A6.22,6.22,0,0,1,47.13,49.79Z" style="fill:#fff"/><path d="M49.58,54.3s2.59-.23.9-6.17C50.48,48.13,47.41,50.13,49.58,54.3Z" style="fill:#fff"/><path d="M49.89,46.37a5.38,5.38,0,0,1-.09,1.17c-.32,1.6-1.33,1.72-1.33,1.72a5.9,5.9,0,0,1-.67-1.79,4.68,4.68,0,0,1-.08-1.1,4.86,4.86,0,0,1,1.35-3.1l-.56-4.18.9,4.19A12.93,12.93,0,0,1,49.89,46.37Z" style="fill:#fff"/><path d="M46.93,45s-2.49-.06-1.56-5.88L44.8,35.3l1,3.68S48.66,42.19,46.93,45Z" style="fill:#fff"/><path d="M54.62,46.18A11.62,11.62,0,0,0,54,43.84a8.19,8.19,0,0,0-1.23-2.08,5.7,5.7,0,0,0-1.86-1.55,6.54,6.54,0,0,0-1.39-.5l.55,2.55a5.82,5.82,0,0,1,.71,1.14,10.67,10.67,0,0,1,.84,2.73,19.8,19.8,0,0,1,.29,3.54c0,.39,0,.76,0,1.13a5.89,5.89,0,0,1-.3,2.75c-.06.32-.13.63-.21.92a5.62,5.62,0,0,1-1.49,2.81,3.2,3.2,0,0,1-2.16.83,3.25,3.25,0,0,1-2.26-.87,6.42,6.42,0,0,1-1.57-3,19.46,19.46,0,0,1-.61-5.33,19.94,19.94,0,0,1,.1-2c-.13-.48-.25-1-.35-1.56l-.63-3.25,0,0a9.62,9.62,0,0,0-1.52,3.19,16.3,16.3,0,0,0-.53,4.41,14.79,14.79,0,0,0,.88,5.47,7.37,7.37,0,0,0,2.43,3.32,6.11,6.11,0,0,0,3.7,1.13,6.31,6.31,0,0,0,5.55-2.9,9.72,9.72,0,0,0,1.34-2.94A17.86,17.86,0,0,0,54.84,49,16.87,16.87,0,0,0,54.62,46.18Z" style="fill:#fff"/></svg>