<svg id="Layer_1" data-name="Layer 1" xmlns="http://www.w3.org/2000/svg" viewBox="0 0 100 100"><title>client-butterfly</title><rect width="100" height="100" style="fill:#925fff"/><path d="M65.55,34.13a30,30,0,0,1-3.92,14.94,2,2,0,0,0,0,2.2,28.13,28.13,0,0,1,3.6,15.55c-.3,3.57-1.38,6.9-4.26,9.26-3.82,3.13-8.11,2.84-12.32,1-6.85-2.94-11.28-8.36-14.4-14.92a26,26,0,0,1-2.78-13.83,33.26,33.26,0,0,1,5.37-14.94,28.47,28.47,0,0,1,10.3-9.86,14.94,14.94,0,0,1,8.61-2,9.61,9.61,0,0,1,8.11,5.61A14.36,14.36,0,0,1,65.55,34.13ZM43.47,59A12.31,12.31,0,0,0,50,69c3.77,2.09,7.3,0,7.33-4.33a12.46,12.46,0,0,0-5.93-10.85,5.1,5.1,0,0,0-5.42-.57C44,54.31,43.48,56.19,43.47,59ZM57.34,35.6c0-2.1-.49-4-2.43-5.15s-3.81-.57-5.5.6a13.21,13.21,0,0,0-2.85,2.48c-2.38,3-3.8,6.32-2.73,10.23a4.23,4.23,0,0,0,5.67,2.95C53.7,45.38,57.29,40.3,57.34,35.6Z" style="fill:#fff"/><path d="M97.15,38.19H88.77V48.93H82.31V38.23H73.86V31.74h8.37V21.55H88.7V31.66h8.45Z" style="fill:#fff"/><path d="M26,47.74a.23.23,0,0,0,.27-.27c.34.12.53-.23.82-.27s.27.19.48.29V45.9c-.2-.15-.21.18-.24.19-.47.08-.67-.38-1.05-.25a.23.23,0,0,0-.27-.27.23.23,0,0,0-.27-.27c.12-.34-.23-.53-.27-.82s.39-.48.27-.82a.23.23,0,0,0,.27-.27.23.23,0,0,0,.27-.27c.34.12.53-.23.82-.27s.27.19.48.29V41.54c-.2-.15-.21.18-.24.19-.47.08-.67-.38-1.05-.25A.23.23,0,0,0,26,41.2a.23.23,0,0,0-.27-.27c.12-.34-.23-.53-.27-.82s.39-.48.27-.82A.23.23,0,0,0,26,39a.23.23,0,0,0,.27-.27c.35.12.53-.24,1-.29.12.06.29.56.64.18a1.19,1.19,0,0,1-.09-1.39c.71.59.72,1.36.93,2-.75.31.2.61,0,.93,0,.15-.33.15-.16.43h.88c.29,1.15.71,2.21.93,3.34s.44,2.37.58,3.58c.21,1.83.34,2.61,0,3.45a2.16,2.16,0,0,1,.24,1.92,30.7,30.7,0,0,1-.77,3.75c-.31.78-.4,1.61-.79,2.4s-.37,1.66-1,2.29a.42.42,0,0,0-.11.36,1.7,1.7,0,0,1-1.54,1.82c-.06-.38-.37-.28-.64-.29A.23.23,0,0,0,26,63a.23.23,0,0,0-.27-.27c.12-.34-.23-.53-.27-.82s.39-.48.27-.82a.23.23,0,0,0,.27-.27.23.23,0,0,0,.27-.27c.34.12.53-.23.82-.27s.27.19.48.29V59c-.2-.15-.21.18-.24.19-.47.08-.67-.38-1.05-.25a.23.23,0,0,0-.27-.27.23.23,0,0,0-.27-.27c.12-.34-.23-.53-.27-.82s.39-.48.27-.82a.23.23,0,0,0,.27-.27.23.23,0,0,0,.27-.27c.34.12.53-.23.82-.27s.27.19.48.29V54.62c-.2-.15-.21.18-.24.19-.47.08-.67-.38-1.05-.25a.23.23,0,0,0-.27-.27.23.23,0,0,0-.27-.27c.12-.34-.23-.53-.27-.82s.39-.48.27-.82A.23.23,0,0,0,26,52.1a.23.23,0,0,0,.27-.27c.34.12.53-.23.82-.27s.27.19.48.29V50.26c-.2-.15-.21.18-.24.19-.47.08-.67-.38-1.05-.25a.23.23,0,0,0-.27-.27.23.23,0,0,0-.27-.27c.12-.34-.23-.53-.27-.82s.39-.48.27-.82A.23.23,0,0,0,26,47.74Zm3.56,9.95c-.09-.28.14-.4.29-.63H28.49l.26.44c0,.23-.15.31-.3.52a3.16,3.16,0,0,0,1.45,0Zm-.11-4c.18-.31.06-.62.1-.93-.3-.24-.65-.1-1-.11,0,.32.55.69,0,1Zm-.89-9.76c-.23.28.26.21.15.35.1.31-.1.44-.26.6a1.53,1.53,0,0,0,1,.08c.16-.3.05-.62.1-1Zm1,4.4a2.05,2.05,0,0,0-1.07,0l.27.41c.1.25-.23.32-.22.54.29.16.6,0,1,.09Z" style="fill:#fff"/><path d="M25.75,45.29H24.24l-.65.73v1.35l.77.65h1.39a.23.23,0,0,1,.27-.27.23.23,0,0,1,.27-.27V45.83a.23.23,0,0,1-.27-.27A.23.23,0,0,1,25.75,45.29Z" style="fill:#fff"/><path d="M25.75,49.65H24.24l-.65.73v1.35l.77.65h1.39A.23.23,0,0,1,26,52.1a.23.23,0,0,1,.27-.27V50.19a.23.23,0,0,1-.27-.27A.23.23,0,0,1,25.75,49.65Z" style="fill:#fff"/><path d="M25.75,54H24.24l-.65.73v1.35l.77.65h1.39a.23.23,0,0,1,.27-.27.23.23,0,0,1,.27-.27V54.55a.23.23,0,0,1-.27-.27A.23.23,0,0,1,25.75,54Z" style="fill:#fff"/><path d="M25.75,40.93H24.24l-.65.73V43l.77.65h1.39a.23.23,0,0,1,.27-.27.23.23,0,0,1,.27-.27V41.47A.23.23,0,0,1,26,41.2.23.23,0,0,1,25.75,40.93Z" style="fill:#fff"/><path d="M25.75,58.36H24.24l-.65.73v1.35l.77.65h1.39a.23.23,0,0,1,.27-.27.23.23,0,0,1,.27-.27V58.91a.23.23,0,0,1-.27-.27A.23.23,0,0,1,25.75,58.36Z" style="fill:#fff"/><path d="M26.3,64.9V63.27A.23.23,0,0,1,26,63a.23.23,0,0,1-.27-.27H24.24l-.65.73V64.8l.77.65h1.39a.23.23,0,0,1,.27-.27A.23.23,0,0,1,26.3,64.9Z" style="fill:#fff"/><path d="M25.75,36.57H24.24l-.65.73v1.35l.77.65h1.39A.23.23,0,0,1,26,39a.23.23,0,0,1,.27-.27V37.11a.23.23,0,0,1-.27-.27A.23.23,0,0,1,25.75,36.57Z" style="fill:#fff"/><path d="M22.54,50.19h.61L24.09,49v-.58L23,47.49h-.65l-.94,1.09v.65Z" style="fill:#fff"/><path d="M22.54,45.83h.59l1-1.12v-.65L23,43.13h-.65l-.94,1.09v.65Z" style="fill:#fff"/><path d="M21.41,53v.63l.91.91h.88l.89-.89v-.88l-.89-.89h-.73Z" style="fill:#fff"/><path d="M23,56.2h-.7l-.92,1V58l1,.92h.75l.92-1v-.75Z" style="fill:#fff"/><path d="M22.35,38.75l-1,1v.81l1,1h.81l1-1c0-.27,0-.55,0-.82l-1-1Z" style="fill:#fff"/><path d="M23.15,60.54h-.81l-1,1v.8l1,1h.8l1-1V61.5Z" style="fill:#fff"/><path d="M24.12,65.86l-1-1h-.81l-1,1v.81l1,1h.81l1-1Z" style="fill:#fff"/><path d="M22.36,34.39l-1,1v.53l1.22,1.23h.54l1-1v-.81l-1-1Z" style="fill:#fff"/><path d="M24.11,31.71V31l-1-.92h-.75l-.92,1v.75l1,.92h.75Z" style="fill:#fff"/><path d="M26.3,34.39c.05-.65-.58-.93-.8-1.43-.11-.24-.19-.57-.41-.72-.49-.2-.75.26-1.14.28A1.64,1.64,0,0,0,24,34.66a2.71,2.71,0,0,0,1.74.28.23.23,0,0,1,.27-.27A.23.23,0,0,1,26.3,34.39Z" style="fill:#fff"/><path d="M20.6,49.65A2,2,0,0,0,19.22,51a2,2,0,0,0,1.34,1.38A2,2,0,0,0,21.94,51,2,2,0,0,0,20.6,49.65Z" style="fill:#fff"/><path d="M20.56,36.57a2,2,0,0,0-1.34,1.38,2,2,0,0,0,1.38,1.34,2,2,0,0,0,1.34-1.38A2,2,0,0,0,20.56,36.57Z" style="fill:#fff"/><path d="M20.82,65.38a1.72,1.72,0,0,0,1.11-1.27,1.72,1.72,0,0,0-1.31-1.38A1.72,1.72,0,0,0,19.22,64,1.57,1.57,0,0,0,20.82,65.38Z" style="fill:#fff"/><path d="M21.94,46.63a2,2,0,0,0-1.38-1.34,2,2,0,0,0-1.34,1.38A2,2,0,0,0,20.6,48,2,2,0,0,0,21.94,46.63Z" style="fill:#fff"/><path d="M19.21,29.17a1.85,1.85,0,0,0,1.31,1.4,1.56,1.56,0,0,0,1.37-1.36,1.64,1.64,0,0,0-1.25-1.37A1.78,1.78,0,0,0,19.21,29.17Z" style="fill:#fff"/><path d="M20.82,61a1.72,1.72,0,0,0,1.11-1.27,1.72,1.72,0,0,0-1.31-1.38,1.72,1.72,0,0,0-1.39,1.31A1.57,1.57,0,0,0,20.82,61Z" style="fill:#fff"/><path d="M20.58,34.93a2,2,0,0,0,1.36-1.36,2,2,0,0,0-1.36-1.36,2,2,0,0,0-1.36,1.36A2,2,0,0,0,20.58,34.93Z" style="fill:#fff"/><path d="M19.22,68.47a2,2,0,0,0,1.38,1.34,2,2,0,0,0,1.34-1.38,2,2,0,0,0-1.38-1.34A2,2,0,0,0,19.22,68.47Z" style="fill:#fff"/><path d="M21.88,42a1.71,1.71,0,0,0-1.26-1.11c-.65.18-1.25.47-1.33,1.34a1.59,1.59,0,0,0,1.26,1.36A1.57,1.57,0,0,0,21.88,42Z" style="fill:#fff"/><path d="M20.5,56.72a1.77,1.77,0,0,0,1.44-1.31A1.84,1.84,0,0,0,20.62,54a1.84,1.84,0,0,0-1.4,1.32A1.82,1.82,0,0,0,20.5,56.72Z" style="fill:#fff"/><path d="M17.36,53.92l.32.32h1.43l.35-.35V52.48l-.35-.35H17.68l-.32.32Z" style="fill:#fff"/><path d="M17.64,34.71c-.71.86-.15,1.47.29,2.11H19.1c.68-.51.27-1.19.4-1.73l-.37-.37Z" style="fill:#fff"/><path d="M16.46,28.12H15.8l-.67.72v.79l.91.67h.59l.67-.68v-.85Z" style="fill:#fff"/><path d="M15.13,73.21l.67.67h.85l.64-.74v-.79l-.73-.45.13-.16h-.92l-.64.87Z" style="fill:#fff"/><path d="M18.76,69.54H18l-.63.79v.75l.77.64h.7l.67-.67V70.2Z" style="fill:#fff"/><path d="M17.31,51.25v-.66l-.72-.67H15.8l-.67.91v.59l.68.67h.84Z" style="fill:#fff"/><path d="M18,25.94l-.67.67v.85l.8.64h.73l.61-.81v-.7l-.87-.64Z" style="fill:#fff"/><path d="M16.08,69.54h.56l.67-1V68l-.69-.66h-.84l-.63.75v.78Z" style="fill:#fff"/><path d="M18,65.18l-.67.68v.85l.74.63h.79l.63-.9v-.59l-.92-.67Z" style="fill:#fff"/><path d="M18.08,49.92h.74l.67-.72v-.79l-.91-.67H18l-.67.68v.85Z" style="fill:#fff"/><path d="M18,30.3l-.67.68v.85l.74.63h.79l.63-.9V31l-.92-.67Z" style="fill:#fff"/><path d="M25.75,34.93v1.63a.23.23,0,0,1,.27.27.23.23,0,0,1,.27.27H28a10.89,10.89,0,0,0-1.65-2.72.23.23,0,0,1-.27.27A.23.23,0,0,1,25.75,34.93Z" style="fill:#fff"/><path d="M15.9,23.65l-.76.82v.83l.79.61h.73l.67-.91C17.43,24.24,16.51,24.16,15.9,23.65Z" style="fill:#fff"/><path d="M14.89,74.23c-.38-.08-.65-.09-.72-.35a1.73,1.73,0,0,0-1.22,1c-.06.35.38.49.32.82l.79.37c.27,0,.37-.41.69-.3l.38-.76C15.18,74.71,14.68,74.64,14.89,74.23Z" style="fill:#fff"/><path d="M12.95,48.84c0,.28.42.37.29.69l.77.39c.3.06.37-.44.71-.27l.41-.78c-.09-.58-.55-.86-1-1.13-.35-.07-.48.39-.82.31Z" style="fill:#fff"/><path d="M15.13,70.49c-.16-.15-.35-.29-.28-.55l-.78-.4c-.58.11-.84.58-1.12,1A1.67,1.67,0,0,0,14,71.73c.25.05.38-.41.73-.32C14.76,71.05,15.18,70.87,15.13,70.49Z" style="fill:#fff"/><path d="M15.13,26.89c-.16-.15-.35-.29-.28-.55l-.78-.4c-.58.11-.84.58-1.12,1a1.65,1.65,0,0,0,1,1.16c.36.16.41-.53.81-.2C14.76,27.46,15.18,27.27,15.13,26.89Z" style="fill:#fff"/><path d="M23.75,69.91c-.65-.62-.65-.62-1.42-.63l-.9.9v.93l.76.43c.09-.17.49-.3.61-.76C22.88,70.46,23.37,70.24,23.75,69.91Z" style="fill:#fff"/><path d="M21.75,72.12l-1.09-.68a1.74,1.74,0,0,0-1.45,1.37l.44.89Z" style="fill:#fff"/><path d="M16.55,32.48a1.37,1.37,0,0,0-1.16.44,3.35,3.35,0,0,0,1.25,1.73L17.3,34v-.85Z" style="fill:#fff"/><path d="M19.48,45.22V43.78c-.19-.12-.26-.38-.55-.41-.12,0-.23.07-.29.18-.35.62-.69,1.25-1.07,2C18.21,45.52,18.85,45.76,19.48,45.22Z" style="fill:#fff"/><path d="M14.92,30.59c-.45.08-.59-.21-.84-.29l-.8.35c-.12.19,0,.52-.56.6.83.14,1.06.68,1.47.95h.54l.39-.78C15.18,31.11,14.68,31,14.92,30.59Z" style="fill:#fff"/><path d="M17.85,63h1.23l.4-.4V61.24a.79.79,0,0,0-1.08-.34A4.14,4.14,0,0,1,17.85,63Z" style="fill:#fff"/><path d="M25.52,67.24c-.62-.46-1.08,0-1.56.16a1.61,1.61,0,0,0,0,2.11C24.39,68.7,25.16,68.11,25.52,67.24Z" style="fill:#fff"/><path d="M12.68,51.42q0-.41,0-.82l-.4-.4h-.81c-.49.29-.49.76-.38,1.26.3.49.76.37,1.2.34Z" style="fill:#fff"/><path d="M12.67,29.6v-.81c-.58-.58-.83-.58-1.6,0-.05.44-.14.9.35,1.22A1.09,1.09,0,0,0,12.67,29.6Z" style="fill:#fff"/><path d="M11.45,76.35l-.39.39c0,.44-.15.91.35,1.21a1.07,1.07,0,0,0,1.21-.33c.06-.4.18-.84-.34-1.22C12.08,76.26,11.75,76.39,11.45,76.35Z" style="fill:#fff"/><path d="M12.65,25.28v-.85c-.33-.51-.79-.42-1.23-.37a1,1,0,0,0-.07,1.52C11.82,25.71,12.29,25.8,12.65,25.28Z" style="fill:#fff"/><path d="M12.29,72h-.85c-.51.33-.42.79-.37,1.23a1,1,0,0,0,1.52.07C12.72,72.84,12.81,72.38,12.29,72Z" style="fill:#fff"/><path d="M15.09,46.6c.06.67.46.8.67,1.11h.92l.58-.9a.88.88,0,0,0-.11-.74C16.51,46.29,15.95,46.86,15.09,46.6Z" style="fill:#fff"/><path d="M11.47,45.84a1.06,1.06,0,0,0-.39,1.22c.29.55.77.4,1.21.4.27-.25.56-.48.3-1C12.33,46.2,11.79,46.24,11.47,45.84Z" style="fill:#fff"/><path d="M10.63,22.76l-.81-.92c-.53.06-.63.53-1,.68.06.51.49.67.72,1C10.09,23.5,10.17,23,10.63,22.76Z" style="fill:#fff"/><path d="M9.75,26.1l-.92.81c.11.49.49.67.76,1,.45-.06.61-.48.93-.71C10.49,26.64,10,26.51,9.75,26.1Z" style="fill:#fff"/><path d="M10.61,48.9l-.8-.9c-.53.06-.63.53-1,.68.06.51.49.67.72,1C10.07,49.64,10.2,49.15,10.61,48.9Z" style="fill:#fff"/><path d="M8.75,70.56l.8.9c.53-.06.63-.53,1-.68-.06-.51-.49-.67-.72-1C9.28,69.82,9.16,70.31,8.75,70.56Z" style="fill:#fff"/><path d="M10.54,75.07l-.91-.83-.71,1c0,.15.4.34.7.64C10.06,75.71,10.26,75.31,10.54,75.07Z" style="fill:#fff"/><path d="M9.75,54.06l.77-.75c-.09-.48-.48-.66-.74-1-.51.05-.62.55-1.07.78Z" style="fill:#fff"/><path d="M13.08,22.3c-.29.6.25.77.2,1.1l.76.38.91-.52C14.4,22.62,13.64,22.74,13.08,22.3Z" style="fill:#fff"/><path d="M17.35,74.88a.71.71,0,0,0,.09.66c.39-.63,1.35-.62,1.52-1.47-.25-.34-.59-.12-1-.21Z" style="fill:#fff"/><path d="M19.44,56.81c-.21-.15-.29-.41-.58-.34-.05,0-.17.07-.18.13-.17.71.45,1.28.44,2.08l.08-.56.24.2Z" style="fill:#fff"/><path d="M18.86,41.33c.92-.63.5-1.32.64-1.87-.2-.2-.33-.44-.59-.47-.11.07-.22.11-.24.17C18.51,39.87,19.13,40.44,18.86,41.33Z" style="fill:#fff"/><path d="M6.87,29.73H7.95c.19-.31.06-.62.1-.94-.31-.23-.66-.11-1-.1C6.84,29,7,29.32,6.87,29.73Z" style="fill:#fff"/><path d="M8.09,54.85h-1c-.19.3-.06.62-.1.93a.79.79,0,0,0,.87.11C8.26,55.74,7.95,55.28,8.09,54.85Z" style="fill:#fff"/><path d="M8.06,24.33H7c-.18.31-.06.63-.1.94a1.45,1.45,0,0,0,1,.09C8.13,25.06,8,24.74,8.06,24.33Z" style="fill:#fff"/><path d="M8,73.39v-1c-.3-.19-.62-.06-.93-.1a.79.79,0,0,0-.11.87C7.13,73.56,7.59,73.25,8,73.39Z" style="fill:#fff"/><path d="M6.88,51.53H7.94c.21-.31,0-.63.14-.92a1.43,1.43,0,0,0-1-.11C6.85,50.8,7,51.12,6.88,51.53Z" style="fill:#fff"/><path d="M8,47.23v-1c-.3-.19-.62-.06-.93-.1A.79.79,0,0,0,7,47C7.13,47.41,7.59,47.1,8,47.23Z" style="fill:#fff"/><path d="M8.09,76.64h-1c-.19.3-.06.62-.1.93a.79.79,0,0,0,.87.11C8.26,77.53,7.95,77.07,8.09,76.64Z" style="fill:#fff"/><path d="M25.75,65.45v1.32c.32-.64,1.11-1,1.09-1.72-.18-.22-.38-.11-.54-.14a.23.23,0,0,1-.27.27A.23.23,0,0,1,25.75,65.45Z" style="fill:#fff"/><path d="M13.22,52.87H14.8l.05-.3c-.08-.4-.71,0-.62-.57l-1,.5Z" style="fill:#fff"/><path d="M5.36,32l.5-.4c0-.44-.26-.55-.43-.72-.35-.07-.45.26-.66.4C4.74,31.64,5,31.8,5.36,32Z" style="fill:#fff"/><path d="M5.9,27l-.4-.5c-.44,0-.55.26-.72.43-.07.35.28.44.38.65C5.57,27.61,5.73,27.35,5.9,27Z" style="fill:#fff"/><path d="M5.87,57.57c0-.35-.36-.37-.41-.56-.45,0-.47.34-.68.39,0,.41.26.52.43.7C5.61,58.12,5.75,57.85,5.87,57.57Z" style="fill:#fff"/><path d="M4.74,40a.85.85,0,0,0,.57.63.77.77,0,0,0,.56-.5c0-.32-.27-.42-.47-.59S5,39.82,4.74,40Z" style="fill:#fff"/><path d="M6,53.1l-.48-.44c-.41-.06-.5.25-.7.41,0,.39.23.54.51.68C5.6,53.7,5.73,53.47,6,53.1Z" style="fill:#fff"/><path d="M4.73,70.66l.4.5c.44,0,.55-.26.72-.43.07-.35-.26-.45-.4-.66C5.07,70,4.91,70.3,4.73,70.66Z" style="fill:#fff"/><path d="M4.68,44.56l.48.44c.41.06.5-.25.7-.41,0-.39-.23-.54-.51-.68C5,44,4.91,44.19,4.68,44.56Z" style="fill:#fff"/><path d="M4.5,22.59l.66.61c.41.06.5-.25.7-.41,0-.39-.23-.54-.51-.67S5,22.47,4.5,22.59Z" style="fill:#fff"/><path d="M5.87,48.85c0-.35-.36-.37-.41-.56-.45,0-.47.34-.68.39,0,.41.26.52.43.7C5.61,49.4,5.75,49.13,5.87,48.85Z" style="fill:#fff"/><path d="M5.41,75.62l.44-.48c.06-.41-.25-.5-.41-.7-.39,0-.54.23-.68.51C4.8,75.27,5,75.39,5.41,75.62Z" style="fill:#fff"/><path d="M8,42.75l-1-1C6.93,42.83,6.93,42.83,8,42.75Z" style="fill:#fff"/><path d="M5.46,62.46c.24-.37.09-.73.09-1.07-.49-.11-.57.27-.82.39C4.88,62.18,5,62.46,5.46,62.46Z" style="fill:#fff"/><path d="M9.79,45.33,10,45c-.11-.4-.47-.6-.73-.84a.37.37,0,0,0-.41.2A1.57,1.57,0,0,0,9.79,45.33Z" style="fill:#fff"/><path d="M5.45,66.82c.37-.48.07-.79-.2-1l-.52.34C4.88,66.54,5,66.82,5.45,66.82Z" style="fill:#fff"/><path d="M5.17,36.41a1.45,1.45,0,0,0,.07-1.15l-.45.3C4.72,36,5.08,36.07,5.17,36.41Z" style="fill:#fff"/><path d="M3,64.36h.27a.33.33,0,0,0,.1-.44c-.09-.16-.24-.08-.37-.1A.32.32,0,0,0,3,64.36Z" style="fill:#fff"/><path d="M3.33,38.21c.16-.45,0-.59-.33-.56a.33.33,0,0,0-.1.44C3,38.26,3.15,38.18,3.33,38.21Z" style="fill:#fff"/><path d="M3.39,33.84v-.41c-.12-.19-.26-.11-.41-.13C2.78,33.64,2.78,33.86,3.39,33.84Z" style="fill:#fff"/><path d="M3.41,29.35c0-.09,0-.18,0-.27A.33.33,0,0,0,3,29c-.16.09-.08.24-.1.37A.32.32,0,0,0,3.41,29.35Z" style="fill:#fff"/><path d="M2.87,68.31c0,.09,0,.18,0,.27a.33.33,0,0,0,.44.1c.16-.09.08-.24.1-.37A.32.32,0,0,0,2.87,68.31Z" style="fill:#fff"/><path d="M3.41,25c0-.38-.12-.48-.38-.42s-.14.27-.16.4A.34.34,0,0,0,3.41,25Z" style="fill:#fff"/><path d="M3.28,72.53c-.37,0-.47.12-.41.38s.27.14.4.16A.32.32,0,0,0,3.28,72.53Z" style="fill:#fff"/><path d="M2.87,77c0,.37.12.47.38.41s.14-.27.16-.4A.32.32,0,0,0,2.87,77Z" style="fill:#fff"/><path d="M3.28,55.1c-.37,0-.47.12-.41.38s.27.14.4.16A.32.32,0,0,0,3.28,55.1Z" style="fill:#fff"/><path d="M2.87,42.15c0,.09,0,.18,0,.27a.33.33,0,0,0,.44.1c.16-.09.08-.24.1-.37A.32.32,0,0,0,2.87,42.15Z" style="fill:#fff"/><path d="M3,51.28h.27a.33.33,0,0,0,.1-.44c-.09-.16-.24-.08-.37-.1A.32.32,0,0,0,3,51.28Z" style="fill:#fff"/><path d="M3.28,59.45c-.37,0-.47.12-.41.38s.27.14.4.16A.32.32,0,0,0,3.28,59.45Z" style="fill:#fff"/><path d="M3,46.92c.37,0,.47-.12.41-.38s-.27-.14-.4-.16A.32.32,0,0,0,3,46.92Z" style="fill:#fff"/><path d="M11.88,69.15c.19.17.46.18.5,0s-.24,0-.36-.11S11.93,69.1,11.88,69.15Z" style="fill:#fff"/><path d="M7.09,69c.13-.09.13-.18,0-.27C7,68.81,7,68.9,7.09,69Z" style="fill:#fff"/><path d="M13.22,52.92a.19.19,0,0,0-.24.16s.06.08.08.08A.19.19,0,0,0,13.22,52.92Z" style="fill:#fff"/><path d="M15.67,76.35a.19.19,0,0,0-.24.16s.06.08.08.08A.19.19,0,0,0,15.67,76.35Z" style="fill:#fff"/><path d="M15.67,76.35a.19.19,0,0,0,.24-.16s-.06-.08-.08-.08A.19.19,0,0,0,15.67,76.35Z" style="fill:#fff"/><path d="M17,64.63a.19.19,0,0,0,.24-.16s-.06-.08-.08-.08A.19.19,0,0,0,17,64.63Z" style="fill:#fff"/><path d="M17,64.63a.19.19,0,0,0-.24.16s.06.08.08.08A.19.19,0,0,0,17,64.63Z" style="fill:#fff"/><path d="M28.75,39.29a.19.19,0,0,0,.16.24s.08-.06.08-.08A.19.19,0,0,0,28.75,39.29Z" style="fill:#fff"/><path d="M12.4,69a.19.19,0,0,0,.24-.16s-.06-.08-.08-.08A.19.19,0,0,0,12.4,69Z" style="fill:#fff"/><path d="M29.57,51.28a3,3,0,0,1,.82,1.09c-.12,1-.06,2-1,2.72" style="fill:#fff"/><path d="M29.57,47.06c.41.26.45.8.81,1.08,0,1,.16,2-.81,2.6" style="fill:#fff"/><path d="M27.66,58.09l1,.82-.32,1.79-.67.67" style="fill:#fff"/><path d="M29.57,43.38c.16.21.45.32.42.68a4.58,4.58,0,0,0,.12,1,3,3,0,0,1-.54,1.09" style="fill:#fff"/><path d="M25.35,67.36c-.8,0-1,.74-1.36,1.23v.82" style="fill:#fff"/><path d="M17,46.24c0,.47-.42.66-.68,1-.4.07-.72-.21-1.09-.27" style="fill:#fff"/><path d="M18.94,39.16c.11.63.47,1.24.14,1.91" style="fill:#fff"/><path d="M18.94,56.59c.11.63.47,1.24.14,1.91" style="fill:#fff"/><path d="M18.81,74.17c-.66.18-1.22.47-1.36,1.23" style="fill:#fff"/><path d="M26.57,65.18a2.14,2.14,0,0,0-.68,1.5" style="fill:#fff"/><path d="M27.93,37.52a2.51,2.51,0,0,0,.26,1,.65.65,0,0,1-.26.81" style="fill:#fff"/><path d="M7.09,41.88a1,1,0,0,0,.82.82" style="fill:#fff"/><path d="M29.84,56.59l.27.41c0,.28-.58.42-.15.83.16.16-.09.38-.26.53" style="fill:#fff"/><path d="M13.22,22.67a1.59,1.59,0,0,0,1.5.54" style="fill:#fff"/><path d="M12.54,68.85c-.15.16-.29.34-.54.27" style="fill:#fff"/></svg>