<svg id="Layer_1" data-name="Layer 1" xmlns="http://www.w3.org/2000/svg" viewBox="0 0 100 100"><title>client-ilao</title><text transform="translate(28.25 22.5)" style="font-size:21.868860244750977px;font-family:PatuaOne-Regular, Patua One">i<tspan x="6.39" y="0" style="letter-spacing:0.010985226130276346em">L</tspan><tspan x="17.6" y="0" style="letter-spacing:-0.01897854107872946em">A</tspan><tspan x="31.29" y="0">O</tspan></text><path d="M97.32,65.22s-.77,1.76-1.89,4.16l-.11.24L60.14,70v0h-.86l-1.62,0H56.28l-1.86,0h-.24l-3.14,0h-.24l-2.37,0h-.14l-9.23-.13h-.32l-8.4-.12H29.18l-7.63-.1-1.65,0-8.09-.11L7.4,69.32H7.07l-2.3,0c-1.66-3.7-2.63-6.51-2.63-6.51a6.4,6.4,0,0,0,4-1.59s2.66-.67,3.88-6.76c0,0,4.44-5.76,7.87-7.09,0,0,16.52-14.64,20.18-16.41,0,0,6.76-3.88,10.2-4.21,0,0,10.93-1.77,31.62,19.15C89.91,56,94.87,61.85,97.32,65.22Z"/><path d="M57.68,70l0,0c-.56-1.36-1.8-2.18-2.75-3.21-.1-.11-.37-.08-.57-.1-1-.07-2.09-.11-3.13-.21a3.42,3.42,0,0,1-.89-.35c0-.09.05-.18.08-.27h3.8V62h-1l-21.5.38c-.29,0-.66.11-.87,0-1.11-.73-2.32-.31-3.48-.42a11.05,11.05,0,0,0-5.34.9,39.53,39.53,0,0,1-4.2,1.48c-1.2.35-1.51,1.4-2.1,2.28a3.25,3.25,0,0,1,2.87-.94c2.32,0,4.63,0,7,0,.2,0,.4,0,.6,0l.06.23a5.31,5.31,0,0,1-1,.4c-1.73.33-3.47.62-5.2.93,0,.08,0,.16,0,.24a3.08,3.08,0,0,0,.75.15,9.16,9.16,0,0,0,1.08-.19l3.68-.66.09.23a4.22,4.22,0,0,1-.94.51c-2,.53-4.08,1-6.09,1.53a1.53,1.53,0,0,1-2-.68,17.52,17.52,0,0,0-1.35-1.64c-.13.73-.22,1.23-.33,1.86L12.17,65.2l.09-.08,2.58,1.55a.6.6,0,0,0-.15-.39L11.4,62.43c-.47-.56-.31-1.87.27-2a19.32,19.32,0,0,1,3.53-.53c13,0,25.9,0,38.85,0H55l.14-.21c-.37-.67-.75-1.33-1.12-2a14.73,14.73,0,0,1-1.21-2.39c-.39-1.26,0-1.48,1.21-2.43.45-.36.45-1.85.85-2.28.66-.71.61-.95-.29-1.38l-1-.46,0-.15H55l-.6-3.67a12.94,12.94,0,0,1-1.83.32c-1.8,0-3.61.06-5.41,0a5.73,5.73,0,0,1-1.54-.5l.06-.21h8.7c-.53-2.39-.44-4.9-2.13-6.83l-.21.06.57,4.41-.13,0L50,38.27a2.39,2.39,0,0,1-2.86.4,2.78,2.78,0,0,0-2.19-.1c-1.08.41-1.1.36-1.72-.85h6.42c-1-1.57-1.9-3-2.85-4.42a2.86,2.86,0,0,1-.57-2c.06-.71,0-1.43,0-2.23-.39.12-.72.2-1,.31A34.81,34.81,0,0,0,35,35.08C29.1,39.73,23.24,44.46,17.39,49.2a23.1,23.1,0,0,0-7.18,9.46,6.89,6.89,0,0,1-4.12,4.1,10.91,10.91,0,0,1-4.14,1.18q.3.82.63,1.63H3.3v1.69q.46,1,1,2l0,0,3,0,0,0,.41-.86c-.68-.59-2-.7-1.59-2.14l2.4,2-1.11,1,0,0,12.73.18h1.45c2.37,0,4.75,0,7.13,0,.24,0,.47,0,.67,0l0,.06a.14.14,0,0,1,0,0h1l-.05,0-.24-.15H39.8l0,.07-.77.2-.12,0,9.54.13-.06,0-.49-.29.06-.12h3.57l-.54.45,0,0,3.38,0,0,0a2,2,0,0,1,2-.27c0,.1,0,.2,0,.3v0Zm-9.6-33.41.05.25-3.33.31c0-.08,0-.15,0-.23C45.82,36.37,47,36.85,48.08,36.64Zm-3,4.67c-.82.32-1.63.9-2.48,0Zm6.56,1.57A2.45,2.45,0,0,1,49.59,44a41.62,41.62,0,0,0-4.52,0,7.21,7.21,0,0,1-3.3-1.09ZM8.8,63.28,9,63.09c.79.86,1.58,1.71,2.35,2.57a1.4,1.4,0,0,1,.25.59A18.38,18.38,0,0,1,12,68.1c0,.28,0,.75-.16.83-.42.22-.86.56-1.4,0C8.28,66.55,8.26,66.57,8.8,63.28Zm18.33.56c-1,.22-2.09.4-3.14.58-.88.15-1-.77-1.55-1.16h5.29l.08.17A2.57,2.57,0,0,1,27.13,63.84ZM39,64.13c-2.13,0-4.17,0-6.21,0a2.16,2.16,0,0,1-1.12-.67C34.14,63.4,36.6,63,39,64.13Zm-3.43,2.45a2.6,2.6,0,0,0-1.9.22,1.79,1.79,0,0,1-1.16.09A27.23,27.23,0,0,1,29,65.68H41A6.7,6.7,0,0,1,35.57,66.57Z" style="fill:#fff"/><path d="M82.3,65.7c1.05,0,2.11,0,3.2,0a3.77,3.77,0,0,0-2.36-2.41c-.62-.25-1.27-.44-1.89-.71s-1-.62-.8-1.26c.1-.42-.08-.58-.36-.79C78.41,59.28,76.74,58,75,56.75a1.88,1.88,0,0,1-.85-1.35A5,5,0,0,0,70.49,51a3.91,3.91,0,0,1-1.18-.53,36.61,36.61,0,0,1-8.79-9,25.05,25.05,0,0,0-5-5.76,9.91,9.91,0,0,0-.88-.56c.05.52.06.82.12,1.1.25,1.08.51,2.16.77,3.23.83,3.44,1.66,6.88,2.46,10.34a1.91,1.91,0,0,1-.11,1.31,1,1,0,0,0-.06,1.07,2.26,2.26,0,0,1,0,2.19.65.65,0,0,0,0,.81c.76,1.21,1.53,2.43,2.26,3.66.63,1,.58,1.37-.22,2.32a2.41,2.41,0,0,0-.37,3.17,37.61,37.61,0,0,0,2.49,3c.47-.28.76-.58,1.07-.61a17.83,17.83,0,0,1,2.41,0c.15,0,.42.2.43.33.08.81.55,1,1.25.88a4.05,4.05,0,0,1,.61,0c-1.59.47-3.07,1.6-4.86.73l-.25,1,16.47-.19a2.72,2.72,0,0,1,1.48,0h.05c.67.13,1.34.21,2,.32l.09-.18-.21-.17-1.74-1.41a14.54,14.54,0,0,0,.47-1.52C81.47,65.83,81.76,65.68,82.3,65.7ZM63.83,56l-2,.87-.25-1h2.27Zm-.93-8.13c-.68.71-1,.72-1.61,0ZM63,52.32c.09.44.15.77.22,1.14l-1.6.71-.47-1.55Zm0,12,.49,1.29c-.59-.08-1.26,0-1.51-.23a1.65,1.65,0,0,1-.18-2.2h2.07c.08,0,.21,0,.25,0,.66.94,1.75.79,2.67,1.11Zm5.73,3.74h2.8C70.56,68.3,69.65,69.24,68.68,68.06Zm2-8.43a1.21,1.21,0,0,1-.73.17c-1.87,0-3.74,0-5.61,0a2.31,2.31,0,0,0-1.59.78c-.14.12,0,.54,0,.93l-1,.54c-.09.05-.18.08-.29.13a12.19,12.19,0,0,0,.6-2.31,12.86,12.86,0,0,0-.3-2.46h8.39V55.9l2,2.27C71.67,58.69,71.22,59.19,70.72,59.63Zm3.18,3.61,1.2.67-1.52.51Zm4.35,5.88a.56.56,0,0,1-.46-.23,1.88,1.88,0,0,0-2-.94c-.18,0-.36,0-.55,0-1.45,0-1.44,0-1.61-1.41h5.25c0,.06,0,.12,0,.18-1.14.25-2.33,0-3.49.14-.12.45,0,.6.48.59a19.89,19.89,0,0,1,2.34,0c.82.08,1.61.28,2.42.43l0,.26C79.86,68.5,79.06,68.83,78.24,69.12Z" style="fill:#fff"/><path d="M64.38,91.78a2.38,2.38,0,0,1,.59.52l.51-.42Q64.94,91.82,64.38,91.78Z" style="fill:none"/><path d="M95.43,69.38l-.11.24c-.79,1.68-1.75,3.65-2.74,5.53H7.7c-1.1-2-2.07-4-2.88-5.77Z"/><path d="M68.75,69.85V96.61H61.34L65,69.85Z"/><path d="M8.81,74.9h-.1a.67.67,0,0,1-.37-.77l2.56-16.3v-14c0-.36.21-.65.48-.65h6.52c.26,0,.48.29.48.65v14l2.56,16.3a.67.67,0,0,1-.37.77c-.26.07-.51-.15-.57-.5L17.43,58a.87.87,0,0,1,0-.14V44.47H11.86V57.89a.87.87,0,0,1,0,.14L9.27,74.39a.54.54,0,0,1-.47.51"/><polygon points="20.15 72.72 10.09 65.78 10.31 65.2 20.37 72.14 20.15 72.72"/><polygon points="18.98 65.21 19.2 65.78 9.14 72.72 8.92 72.14 18.98 65.21"/><polygon points="18.48 63.49 11.04 58.02 11.27 57.45 18.7 62.92 18.48 63.49"/><polygon points="10.82 63.49 10.59 62.92 18.02 57.45 18.25 58.02 10.82 63.49"/><rect x="11.38" y="57.57" width="6.52" height="0.65"/><rect x="11.38" y="50.51" width="6.52" height="0.65"/><polygon points="17.75 58.15 11.23 51.09 11.53 50.58 18.04 57.64 17.75 58.15"/><polygon points="11.53 58.15 11.23 57.64 17.75 50.58 18.04 51.09 11.53 58.15"/><polygon points="17.75 51.09 11.23 44.03 11.53 43.53 18.04 50.58 17.75 51.09"/><polygon points="11.53 51.09 11.23 50.58 17.75 43.53 18.04 44.03 11.53 51.09"/><path d="M23.38,58.17H17.89v-1h4.36l-4.52-4.3.41-.8,5.45,5.18a.59.59,0,0,1,.14.54.39.39,0,0,1-.34.34"/><path d="M11.38,58.17H5.89a.39.39,0,0,1-.34-.34.59.59,0,0,1,.14-.54l5.45-5.18.41.8L7,57.2h4.36Z"/><path d="M23.38,50.71H17.89v-1h4.36l-4.52-4.3.41-.8,5.45,5.18a.59.59,0,0,1,.14.54.39.39,0,0,1-.34.34"/><path d="M11.38,50.71H5.89a.39.39,0,0,1-.34-.34.59.59,0,0,1,.14-.54l5.45-5.18.41.8L7,49.74h4.36Z"/><path d="M5.89,57.69v3.74c0,.29.17.53.39.53H6.5c.21,0,.39-.24.39-.53V57.69Z"/><path d="M7.35,58.92c0,.18-.11.32-.24.32H5.66c-.13,0-.24-.15-.24-.32s.11-.32.24-.32H7.12c.13,0,.24.14.24.32"/><path d="M7.35,59.81c0,.18-.11.32-.24.32H5.66c-.13,0-.24-.14-.24-.32s.11-.32.24-.32H7.12c.13,0,.24.15.24.32"/><path d="M7.35,60.7c0,.18-.11.32-.24.32H5.66c-.13,0-.24-.15-.24-.32s.11-.32.24-.32H7.12c.13,0,.24.14.24.32"/><path d="M5.89,50.22V54c0,.29.17.53.39.53H6.5c.21,0,.39-.24.39-.53V50.22Z"/><path d="M7.35,51.45c0,.18-.11.32-.24.32H5.66c-.13,0-.24-.14-.24-.32s.11-.32.24-.32H7.12c.13,0,.24.14.24.32"/><path d="M7.35,52.34c0,.18-.11.32-.24.32H5.66c-.13,0-.24-.14-.24-.32s.11-.32.24-.32H7.12c.13,0,.24.14.24.32"/><path d="M7.35,53.23c0,.18-.11.32-.24.32H5.66c-.13,0-.24-.14-.24-.32s.11-.32.24-.32H7.12c.13,0,.24.14.24.32"/><path d="M22.38,50.22V54c0,.29.17.53.39.53H23c.21,0,.39-.24.39-.53V50.22Z"/><path d="M23.85,51.45c0,.18-.11.32-.24.32H22.16c-.13,0-.24-.14-.24-.32s.11-.32.24-.32h1.45c.13,0,.24.14.24.32"/><path d="M23.85,52.34c0,.18-.11.32-.24.32H22.16c-.13,0-.24-.14-.24-.32S22,52,22.16,52h1.45c.13,0,.24.14.24.32"/><path d="M23.85,53.23c0,.18-.11.32-.24.32H22.16c-.13,0-.24-.14-.24-.32s.11-.32.24-.32h1.45c.13,0,.24.14.24.32"/><path d="M22.38,57.69v3.74c0,.29.17.53.39.53H23c.21,0,.39-.24.39-.53V57.69Z"/><path d="M23.85,58.92c0,.18-.11.32-.24.32H22.16c-.13,0-.24-.15-.24-.32s.11-.32.24-.32h1.45c.13,0,.24.14.24.32"/><path d="M23.85,59.81c0,.18-.11.32-.24.32H22.16c-.13,0-.24-.14-.24-.32s.11-.32.24-.32h1.45c.13,0,.24.15.24.32"/><path d="M23.85,60.7c0,.18-.11.32-.24.32H22.16c-.13,0-.24-.15-.24-.32s.11-.32.24-.32h1.45c.13,0,.24.14.24.32"/><path d="M79.68,74.9h-.1a.67.67,0,0,1-.37-.77l2.56-16.3v-14c0-.36.21-.65.48-.65h6.52c.26,0,.48.29.48.65v14l2.56,16.3a.67.67,0,0,1-.37.77c-.26.07-.51-.15-.57-.5L88.3,58a.87.87,0,0,1,0-.14V44.47H82.72V57.89a.87.87,0,0,1,0,.14L80.14,74.39a.54.54,0,0,1-.47.51"/><polygon points="91.02 72.72 80.96 65.78 81.18 65.2 91.24 72.14 91.02 72.72"/><polygon points="89.85 65.21 90.07 65.78 80.01 72.72 79.79 72.14 89.85 65.21"/><polygon points="89.34 63.49 81.91 58.02 82.14 57.45 89.57 62.92 89.34 63.49"/><polygon points="81.69 63.49 81.46 62.92 88.89 57.45 89.12 58.02 81.69 63.49"/><rect x="82.25" y="57.57" width="6.52" height="0.65"/><rect x="82.25" y="50.51" width="6.52" height="0.65"/><polygon points="88.61 58.15 82.1 51.09 82.4 50.58 88.91 57.64 88.61 58.15"/><polygon points="82.4 58.15 82.1 57.64 88.61 50.58 88.91 51.09 82.4 58.15"/><polygon points="88.61 51.09 82.1 44.03 82.4 43.53 88.91 50.58 88.61 51.09"/><polygon points="82.4 51.09 82.1 50.58 88.61 43.53 88.91 44.03 82.4 51.09"/><path d="M94.24,58.17H88.75v-1h4.36l-4.52-4.3.41-.8,5.45,5.18a.59.59,0,0,1,.14.54.39.39,0,0,1-.34.34"/><path d="M82.25,58.17H76.76a.39.39,0,0,1-.34-.34.59.59,0,0,1,.14-.54L82,52.11l.41.8-4.52,4.3h4.36Z"/><path d="M94.24,50.71H88.75v-1h4.36l-4.52-4.3.41-.8,5.45,5.18a.59.59,0,0,1,.14.54.39.39,0,0,1-.34.34"/><path d="M82.25,50.71H76.76a.39.39,0,0,1-.34-.34.59.59,0,0,1,.14-.54L82,44.64l.41.8-4.52,4.3h4.36Z"/><path d="M76.76,57.69v3.74c0,.29.17.53.39.53h.22c.21,0,.39-.24.39-.53V57.69Z"/><path d="M78.22,58.92c0,.18-.11.32-.24.32H76.53c-.13,0-.24-.15-.24-.32s.11-.32.24-.32H78c.13,0,.24.14.24.32"/><path d="M78.22,59.81c0,.18-.11.32-.24.32H76.53c-.13,0-.24-.14-.24-.32s.11-.32.24-.32H78c.13,0,.24.15.24.32"/><path d="M78.22,60.7c0,.18-.11.32-.24.32H76.53c-.13,0-.24-.15-.24-.32s.11-.32.24-.32H78c.13,0,.24.14.24.32"/><path d="M76.76,50.22V54c0,.29.17.53.39.53h.22c.21,0,.39-.24.39-.53V50.22Z"/><path d="M78.22,51.45c0,.18-.11.32-.24.32H76.53c-.13,0-.24-.14-.24-.32s.11-.32.24-.32H78c.13,0,.24.14.24.32"/><path d="M78.22,52.34c0,.18-.11.32-.24.32H76.53c-.13,0-.24-.14-.24-.32s.11-.32.24-.32H78c.13,0,.24.14.24.32"/><path d="M78.22,53.23c0,.18-.11.32-.24.32H76.53c-.13,0-.24-.14-.24-.32s.11-.32.24-.32H78c.13,0,.24.14.24.32"/><path d="M93.25,50.22V54c0,.29.17.53.39.53h.22c.21,0,.39-.24.39-.53V50.22Z"/><path d="M94.71,51.45c0,.18-.11.32-.24.32H93c-.13,0-.24-.14-.24-.32s.11-.32.24-.32h1.45c.13,0,.24.14.24.32"/><path d="M94.71,52.34c0,.18-.11.32-.24.32H93c-.13,0-.24-.14-.24-.32S92.89,52,93,52h1.45c.13,0,.24.14.24.32"/><path d="M94.71,53.23c0,.18-.11.32-.24.32H93c-.13,0-.24-.14-.24-.32s.11-.32.24-.32h1.45c.13,0,.24.14.24.32"/><path d="M93.25,57.69v3.74c0,.29.17.53.39.53h.22c.21,0,.39-.24.39-.53V57.69Z"/><path d="M94.71,58.92c0,.18-.11.32-.24.32H93c-.13,0-.24-.15-.24-.32s.11-.32.24-.32h1.45c.13,0,.24.14.24.32"/><path d="M94.71,59.81c0,.18-.11.32-.24.32H93c-.13,0-.24-.14-.24-.32s.11-.32.24-.32h1.45c.13,0,.24.15.24.32"/><path d="M94.71,60.7c0,.18-.11.32-.24.32H93c-.13,0-.24-.15-.24-.32s.11-.32.24-.32h1.45c.13,0,.24.14.24.32"/><path d="M23.38,57.69a281.36,281.36,0,0,0,53.38.49" style="fill:none;stroke:#000;stroke-miterlimit:10;stroke-width:0.5px"/><path d="M23.38,61.43a309.66,309.66,0,0,0,53.38,0" style="fill:none;stroke:#000;stroke-miterlimit:10;stroke-width:0.5px"/><path d="M23,54a327.88,327.88,0,0,0,54.71,0" style="fill:none;stroke:#fff;stroke-miterlimit:10;stroke-width:2.06126532586132px"/><circle cx="50.99" cy="59.24" r="5.85"/><path d="M51.76,56.05l-2.75,3a.06.06,0,0,0,0,.1l2.43,0a.06.06,0,0,1,0,.09L49.7,62.1a.06.06,0,0,0,.09.07l3.47-3.47a.06.06,0,0,0,0-.1H50.48a.06.06,0,0,1-.05-.09l1.43-2.39A.06.06,0,0,0,51.76,56.05Z" style="fill:#fff"/><path d="M29.68,96.61V69.85h7.41L33.42,96.61Z"/><path d="M63.2,75.15q-.62,4.53-1.25,9.07c-.55,4-1.11,8-1.65,12,0,.35-.23.33-.48.33H34.74c.19-1.43.36-2.78.54-4.13l1.19-9.09q.5-3.82,1-7.64l.07-.5Z"/><path d="M58.55,77a46.3,46.3,0,0,0-3,20H49.65c.05-.7.09-1.4.17-2.09a48,48,0,0,1,2.55-11.53,22.19,22.19,0,0,1,3.09-6,1,1,0,0,1,.92-.45C57.07,77,57.76,77,58.55,77Z" style="fill:#fff"/><path d="M51.86,77a46.34,46.34,0,0,0-3,20H43c.08-.92.13-1.81.24-2.7a48.32,48.32,0,0,1,2.29-10.39,26.7,26.7,0,0,1,2.88-6,1.76,1.76,0,0,1,1.89-1A10.94,10.94,0,0,0,51.86,77Z" style="fill:#fff"/><path d="M42.13,97H36.21c.06-.78.11-1.54.19-2.29a48.24,48.24,0,0,1,2.37-10.9,24,24,0,0,1,3.15-6.27A1.23,1.23,0,0,1,43.12,77c.63,0,1.26,0,2,0A46.43,46.43,0,0,0,42.13,97Z" style="fill:#fff"/><path d="M46.63,74.87v4.72h-1.4V76.3H41.94V74.87Z" style="fill:#fff"/><path d="M53.33,74.88v4.71h-1.4V76.3H48.65V74.88Z" style="fill:#fff"/><path d="M55.31,76.31V74.88H60a2.64,2.64,0,0,1,0,.32c0,1.34,0,2.67,0,4,0,.29-.07.44-.39.41s-.64,0-1,0V76.31Z" style="fill:#fff"/><line x1="8.92" y1="72.14" x2="23.92" y2="72.14" style="fill:none;stroke:#fff;stroke-miterlimit:10;stroke-width:0.75px"/><line x1="34.34" y1="72.14" x2="70.81" y2="72.14" style="fill:none;stroke:#fff;stroke-miterlimit:10;stroke-width:0.75px;stroke-dasharray:31.25827980041504,10.419426918029785"/><line x1="76.02" y1="72.14" x2="91.02" y2="72.14" style="fill:none;stroke:#fff;stroke-miterlimit:10;stroke-width:0.75px"/></svg>