<svg id="Layer_5" data-name="Layer 5" xmlns="http://www.w3.org/2000/svg" viewBox="0 0 100 100"><title>client1-ajedimsum</title><path d="M72.19,44.55c0,.12,0,.24,0,.36,0,4.49,0,9,0,13.47A8.65,8.65,0,0,1,69.3,65a17,17,0,0,1-7.53,3.9,45.08,45.08,0,0,1-13.31,1.3,31.21,31.21,0,0,1-9.75-1.67,14.13,14.13,0,0,1-6.7-4.6,9.24,9.24,0,0,1-2-5.8c0-4.51,0-9,0-13.52,0-.16,0-.31,0-.6.22.63.37,1.15.58,1.64a12,12,0,0,0,5.07,5.59A24.47,24.47,0,0,0,45,54.38a42.27,42.27,0,0,0,12,.19A21.72,21.72,0,0,0,67.3,50.7,13.71,13.71,0,0,0,72,44.77l.1-.21Z"/><path d="M69.61,11.72l1.14,1.35-2.87,2-11,7.39c-.85.58-.85.58-.52,1.58.05.16.13.31.22.52L72,15.34a1.64,1.64,0,0,0,1,1.45L57.21,25.57c.17.3.3.56.46.8a9.48,9.48,0,0,1,1.54,5c0,.39.24.42.5.49a22.39,22.39,0,0,1,5.75,2.3,13.48,13.48,0,0,1,4.13,3.51,7.38,7.38,0,0,1-.17,9.58,15,15,0,0,1-6.08,4.32,31.41,31.41,0,0,1-14.28,2.3,29.21,29.21,0,0,1-10.83-2.6,14.78,14.78,0,0,1-5.34-3.93A7.44,7.44,0,0,1,33,37.19a16,16,0,0,1,6.81-4.48,8.11,8.11,0,0,0,2.47-1.31.53.53,0,0,0,.24-.59c-.28-1.17-.5-2.36-.84-3.52-.4-1.38,0-2.36,1.3-2.69a.65.65,0,0,0,.34-.35,3.69,3.69,0,0,1,3.18-2.18,2.11,2.11,0,0,0,.91-.33,2.61,2.61,0,0,1,1.7-.41,3.57,3.57,0,0,0,.81-.13,2.86,2.86,0,0,1,.87-.15,2.92,2.92,0,0,0,1.33-.13,2.13,2.13,0,0,1,2,.44,1.93,1.93,0,0,0,2.07,0L69.4,11.86ZM43,33.45l-1.33.74c-.28.15-.55.39-.9.11-.07-.06-.27,0-.39.06a16.84,16.84,0,0,0-5.64,3.5,5.86,5.86,0,0,0-.42,8.44A14.39,14.39,0,0,0,40,50.11a26.85,26.85,0,0,0,8.92,2,29.8,29.8,0,0,0,13.52-2A14.08,14.08,0,0,0,68,46.25a5.71,5.71,0,0,0,.18-7.63,11.77,11.77,0,0,0-3.64-3,22.47,22.47,0,0,0-5.18-2.09c-.15,0-.4,0-.46,0a12.26,12.26,0,0,0-.64,1.11h1.51c.32,0,.64,0,1,0s.37.06.55.08c.6.09,1.2.15,1.79.29.22.05.4.28.6.43a3.24,3.24,0,0,0,.56.37c.3.13.55.3.47.66A5.2,5.2,0,0,0,65,39.21a5.69,5.69,0,0,1,.09,2.89,2.66,2.66,0,0,1-2.15,2.28c-.49.09-1,.22-1.41.33a19.3,19.3,0,0,1,0,2.67,2.6,2.6,0,0,1-2.07,2.29,12.38,12.38,0,0,1-4.76.35c-2.08-.26-2.76-1.2-3-2.78-.14-.89-.13-.89-1.05-.78,0,0-.05,0-.07,0a12.65,12.65,0,0,1-.2,1.44,2.71,2.71,0,0,1-2.05,2.16,13.93,13.93,0,0,1-4.76.36,3.1,3.1,0,0,1-3-3.26,5.21,5.21,0,0,1,0-1c.06-.42-.06-.59-.5-.69a3,3,0,0,1-2.64-3,6.79,6.79,0,0,1,0-1c.07-1.31.15-2.63.23-3.94a1.08,1.08,0,0,1,1-1.1,1.25,1.25,0,0,0,.59-.3,2.25,2.25,0,0,1,1.53-.63c.51,0,1-.05,1.53-.06a3.44,3.44,0,0,1,.56.06l1.09.17ZM48.5,37.9c.6-.09,1.21-.15,1.8-.29a24.2,24.2,0,0,0,6.3-2.41,4,4,0,0,0,2.15-3.79,9.68,9.68,0,0,0-1.7-5.2c-.19-.3-.35-.32-.64-.15-.94.53-1.89,1-2.84,1.57L43.89,33c-.3.16-.41.34-.28.67s.22.69.36,1C44.88,36.83,46.05,37.91,48.5,37.9ZM41,42.84c0,.43-.07.85-.09,1.27-.07,1-.2,2.07-.18,3.1a2.62,2.62,0,0,0,2.41,2.88,11.84,11.84,0,0,0,5-.29A2.21,2.21,0,0,0,50,47.89a9.28,9.28,0,0,0,0-2.46c-.12-1-.39-2-.6-3-.54,0-.69.07-.83.66s-.37.69-.89.39a.7.7,0,0,0-1,.18c-.46.51-.62.52-1.16.06s-1-.41-1.29.32c-.11.29-.3.48-.59.43a1,1,0,0,1-.65-.33,1.77,1.77,0,0,0-1-.58c-.34-.12-.59-.49-.89-.75Zm11.29-.55-.14.1c-.1,1.32-.27,2.65-.3,4,0,2,.88,3.16,2.68,3.34a13,13,0,0,0,4.94-.39,2.11,2.11,0,0,0,1.54-1.56A4.77,4.77,0,0,0,61.27,46c-.16-1.34-.45-2.66-.69-4-.62,0-.71.07-.86.73s-.39.65-.84.36a.71.71,0,0,0-1,.15c-.5.52-.63.53-1.16.07s-1-.43-1.29.3c-.13.33-.34.51-.67.45a.87.87,0,0,1-.53-.29,1.81,1.81,0,0,0-1-.64C52.85,43,52.61,42.58,52.33,42.29Zm11.79-5.6c-.54,0-.69.08-.81.67s-.37.68-.83.41a.75.75,0,0,0-1,.17c-.45.47-.65.47-1.14,0s-1-.39-1.34.28a1.09,1.09,0,0,1-.56.46.53.53,0,0,1-.66-.31,1,1,0,0,0-.9-.59c-.11,0-.23-.16-.33-.26l-.66-.62a6.46,6.46,0,0,0,0,2.94l1.4.18.32,0c.61.09,1.23.13,1.83.27.25.06.44.32.67.49a1.93,1.93,0,0,0,.44.31c.51.19.6.33.54.87a4.69,4.69,0,0,0,0,1.17c.19,1.21.27,1.24,1.47,1a2.5,2.5,0,0,0,2-1.44,5.34,5.34,0,0,0,.2-3.19C64.54,38.6,64.33,37.68,64.12,36.69ZM46.38,40.45a4.62,4.62,0,0,0,.08-.66c0-.4-.09-.81-.06-1.21,0-.6-.32-.73-.81-.84-.06.19-.12.34-.15.51-.12.52-.36.63-.84.36a.74.74,0,0,0-1,.2c-.39.45-.66.46-1.11.07-.66-.56-1-.49-1.35.3a.66.66,0,0,1-1.19.12,1.24,1.24,0,0,0-.91-.6c-.15,0-.28-.2-.41-.31l-.68-.6c-.09,1-.19,1.92-.23,2.81a13.87,13.87,0,0,0,0,2.34,2.68,2.68,0,0,0,2.84,2.32c0-.86.11-1.73.12-2.6,0-.5.07-1.05.57-1.18a4.6,4.6,0,0,0,1.57-.85.92.92,0,0,1,.48-.18C44.3,40.44,45.3,40.45,46.38,40.45Zm9.21-17.66c-1.08.2-1.36.54-1.28,1.57a3.31,3.31,0,0,1,0,.38.71.71,0,0,1-.94.67c-1-.3-1.37-.15-1.8.82a1,1,0,0,1-1.5.57c-.14-.07-.27-.15-.42-.22a1.11,1.11,0,0,0-1.74.88,1.63,1.63,0,0,0,0,.37.83.83,0,0,1-.66.86c-.39.14-.77.24-1.12-.14a1.62,1.62,0,0,0-1.7-.55.62.62,0,0,1-.72-.26,1.48,1.48,0,0,0-1.41-.54l1,5.18,12.78-7.6Zm-.17,15.55c-.71,0-.86.07-1,.66s-.37.69-.86.41a.72.72,0,0,0-1,.19c-.38.45-.63.45-1.08.09-.73-.6-1-.54-1.41.31a.66.66,0,0,1-1.17.1,1.67,1.67,0,0,0-1-.65c-.36-.12-.63-.49-.94-.75,0,0-.05,0-.11,0l-.11,1.76a7.2,7.2,0,0,1,1.09.2,7,7,0,0,1,1.06.52,4.26,4.26,0,0,0,.52.35.74.74,0,0,1,.52.86,10,10,0,0,0,.12,1.81c.07.48.29.94.34,1.41s.46.4.79.43.41-.24.43-.51c.07-1.17.14-2.35.2-3.52a1.09,1.09,0,0,1,1-1.19,1.11,1.11,0,0,0,.52-.25A2.27,2.27,0,0,1,55.15,40a1.43,1.43,0,0,0,.27,0Zm-1.74-15a8,8,0,0,0-3.59-.06,1,1,0,0,1,.25,1.32A2.55,2.55,0,0,1,48,25.78c-.83,0-1.47-.31-1.57-1.29A8.07,8.07,0,0,0,44,26.65c-.07.1-.12.33-.07.4s.39.4.53.36A2.11,2.11,0,0,1,46.5,28c.34.29.6.21.75-.2a1.6,1.6,0,0,0,.1-.46,1.61,1.61,0,0,1,2.51-1.3c.76.39,1,.33,1.34-.45a1.45,1.45,0,0,1,1.23-.88,3.41,3.41,0,0,1,.84.06c.32,0,.49,0,.46-.39S53.7,23.67,53.69,23.3ZM42.09,26.57a9.78,9.78,0,0,0,1,.08.59.59,0,0,0,.41-.2,8.71,8.71,0,0,1,5.63-3.57,12.83,12.83,0,0,1,4.63-.1.65.65,0,0,0,.32,0c.46-.17.9-.37,1.41-.57a1.36,1.36,0,0,0-.48-.1,1.4,1.4,0,0,1-1.25-.39,1.77,1.77,0,0,0-1.68-.31,9.75,9.75,0,0,1-1.23.12c-.25,0-.49.08-.73.12l-1,.17c-.44.08-.88.13-1.31.25a13.18,13.18,0,0,1-1.39.48,3.19,3.19,0,0,0-2.62,1.82,1.19,1.19,0,0,1-.83.74A1.11,1.11,0,0,0,42.09,26.57ZM55,41.38c-.54.28-1.06.55-1.57.83-.1.06-.21.24-.18.32s.2.2.32.28a5.82,5.82,0,0,1,.91.59c.36.35.46.37.7-.1.44-.85,1-1,1.72-.34.33.29.57.25.83-.06a.89.89,0,0,1,1.15-.24c.38.18.55.12.58-.3a3.32,3.32,0,0,1,.12-.49l-2-.64c0,.84-.21,1.16-.9,1.28C55.73,42.65,55.22,42.34,55,41.38Zm.79-4.69c.33,0,.71.16.88,0a6,6,0,0,1,5.45-.83c.71.2,1.37.7,2.15.4a3.29,3.29,0,0,1-.75-.51,1.28,1.28,0,0,0-1.1-.5,1.84,1.84,0,0,1-.42,0l-1.77-.33a1.52,1.52,0,0,0-.32,0,5.6,5.6,0,0,1-.93,0,2,2,0,0,0-1.82.65,1.21,1.21,0,0,1-.61.27C56.14,36,55.81,36.1,55.74,36.69Zm-6.27,5.49,0-.11c-.3-.25-.59-.51-.89-.74a1.23,1.23,0,0,0-.48-.27c-.84-.15-1.68-.28-2.52-.4a1.56,1.56,0,0,0-.33,0,7.51,7.51,0,0,1-1.1.06,2.09,2.09,0,0,0-1.67.58,1.64,1.64,0,0,1-.68.33c-.37.1-.69.19-.73.64.63.37.63.36,1.15,0a3.75,3.75,0,0,1,.48-.29,6.41,6.41,0,0,1,5.28-.16A14.32,14.32,0,0,0,49.47,42.18Zm11.07-.58a7.19,7.19,0,0,0-.81-.66,2.74,2.74,0,0,0-.88-.34c-.52-.1-1.08-.09-1.59-.23a2,2,0,0,0-1.23,0,1.55,1.55,0,0,1-.65,0,2,2,0,0,0-1.77.56,1.61,1.61,0,0,1-.72.35c-.38.09-.69.21-.68.8.31,0,.69.12.88,0a6,6,0,0,1,5.09-.89C59,41.28,59.7,41.92,60.54,41.61Zm-8.18-4a3.23,3.23,0,0,1-.44.93,1.63,1.63,0,0,1-1.92,0,2.1,2.1,0,0,0-2,0c-.09.08-.2.25-.17.33s.2.2.32.28a5.61,5.61,0,0,1,.91.58c.37.36.46.37.7-.08.44-.86,1-1,1.75-.33.31.28.54.25.79,0A1,1,0,0,1,53.61,39,1.08,1.08,0,0,0,54,39c-.05-.27.41-.62,0-.82A16.57,16.57,0,0,0,52.36,37.63Zm-7.78-.82.07-.08c-.27-.24-.5-.6-.82-.71a8.08,8.08,0,0,0-1.59-.24c-.07,0-.15,0-.23,0-.31,0-.62,0-.92.06a3.53,3.53,0,0,0-1.31.22c-.51.29-.92.76-1.57.81-.12,0-.26.26-.3.42s.21.25.34.27a1,1,0,0,0,.62-.1,5.47,5.47,0,0,1,3.67-1C43.23,36.56,43.9,36.7,44.58,36.81ZM43.89,42l-.11-.13c-.54.29-1.08.57-1.61.88a.34.34,0,0,0-.11.3c0,.1.15.25.23.25a1.23,1.23,0,0,1,1.06.66c.21.3.39.24.57,0s.46-.65.7-1A.91.91,0,0,1,43.89,42ZM58.59,36c-.64.35-1.16.62-1.66.92a.38.38,0,0,0-.14.34.41.41,0,0,0,.29.24,1.27,1.27,0,0,1,1,.62c.22.32.39.29.6,0s.49-.63.73-.93A1,1,0,0,1,58.59,36ZM40.76,37,40.64,37c-.53.28-1.07.55-1.6.85a.33.33,0,0,0-.13.29c0,.11.17.26.27.26a1.29,1.29,0,0,1,1,.62c.26.36.4.32.64-.06s.45-.59.68-.89C41.15,37.86,40.66,37.7,40.76,37Zm4.42,6a3.34,3.34,0,0,1,.49.35.49.49,0,0,0,.86,0,1,1,0,0,1,1.24-.22.78.78,0,0,0,.41,0c0-.27.38-.62,0-.79a16.11,16.11,0,0,0-1.81-.62C46.35,42.63,46.25,42.74,45.18,43Zm14.65-5.76c.21.14.41.26.59.41a.51.51,0,0,0,.82-.05,1,1,0,0,1,1.24-.24l.39.14.26-1-2-.64C61.13,36.84,60.89,37.08,59.83,37.26Zm-14.55.18-1.88-.6a3.08,3.08,0,0,1-.44.92,3,3,0,0,1-.88.39,2.75,2.75,0,0,1,.46.33c.33.35.61.3.9,0a1,1,0,0,1,1.16-.22c.13,0,.25.1.41.17Zm4.39-13c.3-.44.26-.62-.13-.81a1.84,1.84,0,0,0-1.75.16c-.55.3-.85.71-.69,1,.26.47.72.39,1.24.36a2.83,2.83,0,0,1-.52-.13.36.36,0,0,1-.15-.61A1.24,1.24,0,0,1,49.67,24.46ZM55.24,38c-.26-.21-.52-.45-.8-.66a.86.86,0,0,0-.52-.22,6,6,0,0,0-1,.32C53.74,37.64,54.44,38.21,55.24,38Zm-13.93-.38c.17-.21.26-.43.4-.48a.9.9,0,0,1,1.09.35.65.65,0,0,0-.2-.49c-.4-.26-1.21-.16-1.37.16C41.17,37.23,41.28,37.43,41.31,37.57ZM55.52,42l.2.06c0-.45.23-.59.56-.53a4.32,4.32,0,0,1,.82.31.6.6,0,0,0-.27-.43,1.19,1.19,0,0,0-1.28.15C55.48,41.62,55.53,41.81,55.52,42Zm3.55-5.35h.16c.14-.54.69-.67,1.47-.16a.9.9,0,0,0-.36-.43,1.09,1.09,0,0,0-1.21.18C59,36.31,59.08,36.48,59.06,36.62ZM46,42.26c0-.37-.22-.47-.47-.52a1,1,0,0,0-1.12.25c-.06.07,0,.24,0,.37C44.78,41.76,45.11,41.74,46,42.26Zm9-5.63-.5.22.58.62Z"/><path d="M22.38,81.89H14.15c-.68,0-.84-.17-.81-.84a4.94,4.94,0,0,1,5.07-4.87,4.94,4.94,0,0,1,5.19,4.74,5.35,5.35,0,0,1-.53,3,4.7,4.7,0,0,1-4,2.45c-1.37.1-2.76,0-4.14,0-.37,0-.61-.18-.59-.57s.28-.54.64-.54c1.18,0,2.35,0,3.53,0a3.83,3.83,0,0,0,3.4-1.76A9.68,9.68,0,0,0,22.53,82Zm0-1.19a3.79,3.79,0,0,0-4.28-3.41,3.58,3.58,0,0,0-3.49,3.41Z"/><path d="M77,83a29.12,29.12,0,0,0,2.79,1.69,2,2,0,0,1,1.31,2.36,19.29,19.29,0,0,0,0,2.35c0,.56-.18.83-.54.83S80,90,80,89.45c0-.94,0-1.88,0-2.82a.68.68,0,0,0-.38-.68q-1.65-1-3.28-2a.61.61,0,0,0-.76,0c-1.16.74-2.34,1.46-3.51,2.19l-.28.17c-.32.17-.64.24-.85-.14s0-.61.28-.82l3.23-2c1.74-1.1,3.47-2.2,5.22-3.28A.5.5,0,0,0,80,79.4a2.71,2.71,0,0,0-2.77-2.15c-1.76,0-3.52,0-5.27,0-.17,0-.38.05-.51,0a1,1,0,0,1-.48-.53c-.06-.31.17-.52.5-.55h.28c1.87,0,3.74,0,5.6,0a3.73,3.73,0,0,1,3.8,3.7.88.88,0,0,1-.45.9C79.47,81.47,78.3,82.22,77,83Z"/><path d="M51.57,77.12a2.82,2.82,0,0,1,2.43-1,2.61,2.61,0,0,1,2.64,2.43c.07.78,0,1.57,0,2.35q0,2.31,0,4.61a.92.92,0,0,1-.06.5.84.84,0,0,1-.53.36c-.16,0-.36-.21-.46-.38a1.05,1.05,0,0,1,0-.51q0-3,0-5.93c0-.24,0-.47,0-.71a1.74,1.74,0,0,0-3.45-.13c0,.12,0,.29-.06.36s-.37.4-.54.39-.36-.27-.51-.44,0-.18,0-.28a1.61,1.61,0,0,0-1.84-1.53A1.57,1.57,0,0,0,47.58,79c0,2.13,0,4.27,0,6.4,0,.13,0,.25,0,.38,0,.43-.27.71-.62.68s-.55-.33-.55-.69c0-2.29,0-4.58,0-6.87a2.55,2.55,0,0,1,1.67-2.51,2.92,2.92,0,0,1,3.24.56Z"/><path d="M68.91,80.29c0,1.11,0,2.23,0,3.34a2.68,2.68,0,0,1-2.84,2.79,1.52,1.52,0,0,1-.62-.16c-1.15-.57-2.3-1.15-3.44-1.74a.51.51,0,0,0-.72.12c-.51.54-1.06,1-1.58,1.55a.6.6,0,0,1-.91.1c-.27-.23-.24-.56.1-.89.58-.58,1.18-1.13,1.74-1.72a1.12,1.12,0,0,0,.29-.68c0-1.91,0-3.83,0-5.75,0-.16,0-.31,0-.47,0-.36.18-.62.57-.61s.54.28.54.64q0,1.77,0,3.53c0,.85,0,1.7,0,2.54a.52.52,0,0,0,.32.55l3.59,1.77a1.11,1.11,0,0,0,1.43-.47,3,3,0,0,0,.37-1.33c0-2.15,0-4.3,0-6.45a1,1,0,0,1,.2-.63.61.61,0,0,1,.59-.09.83.83,0,0,1,.34.59c0,1.16,0,2.32,0,3.48Z"/><path d="M41.62,84c.54.5,1,.94,1.49,1.4a.56.56,0,0,1,0,.84.54.54,0,0,1-.83,0L42,86,38.5,82.43c-.6-.6-1.2-1.2-1.81-1.78a.6.6,0,0,1-.11-.91c.22-.27.55-.24.89.1,1,.94,1.94,1.88,2.89,2.84a.72.72,0,0,0,.75.22A2.64,2.64,0,0,0,43.28,80a2.6,2.6,0,0,0-2.35-2.67,12.41,12.41,0,0,0-1.6-.05H35.09a3.18,3.18,0,0,1-.38,0,.53.53,0,0,1-.54-.59.51.51,0,0,1,.57-.51c2,0,4.08-.05,6.12,0a3.67,3.67,0,0,1,3.52,3.11,3.88,3.88,0,0,1-2.29,4.52Z"/><path d="M41.17,89.46c0,.18,0,.37,0,.55,0,1.13,0,2.26,0,3.39,0,.26,0,.57-.36.52-.14,0-.32-.33-.32-.51q0-2.75,0-5.51c0-.18.17-.36.26-.53.17.13.41.22.5.4.75,1.46,1.48,2.94,2.21,4.42l.3.56c.1-.16.18-.27.24-.38.77-1.55,1.52-3.1,2.31-4.63.08-.16.31-.24.47-.36.09.18.27.35.27.53q0,2.78,0,5.56a.59.59,0,0,1-.32.46c-.3.05-.37-.21-.37-.47q0-1.77,0-3.53a.65.65,0,0,0-.12-.4c-.31.6-.62,1.2-.92,1.81s-.71,1.47-1.09,2.19c-.09.17-.29.4-.44.4s-.34-.24-.43-.41c-.62-1.2-1.21-2.41-1.81-3.62l-.23-.44Z"/><path d="M65.77,89.5,65,91c-.43.87-.86,1.75-1.31,2.61-.08.16-.28.36-.42.35s-.33-.22-.41-.38c-.63-1.23-1.24-2.47-1.85-3.7-.07-.14-.15-.27-.29-.52,0,.24,0,.35,0,.47q0,1.81,0,3.62c0,.24,0,.51-.33.52S60,93.67,60,93.4c0-1.84,0-3.67,0-5.51,0-.18.17-.35.26-.53.16.12.39.2.47.36.76,1.48,1.49,3,2.24,4.45l.3.57c.11-.19.2-.33.27-.47.75-1.5,1.49-3,2.26-4.5.09-.18.32-.28.48-.42.1.2.28.41.28.61,0,1.76,0,3.51,0,5.27a.82.82,0,0,1,0,.37c-.07.13-.22.31-.33.3s-.26-.18-.33-.31a.82.82,0,0,1,0-.37q0-1.6,0-3.2,0-.25,0-.5Z"/><path d="M51.62,71.25c.8,0,1.6,0,2.4,0a1.56,1.56,0,0,1,1.52,1.56,1.58,1.58,0,0,1-1.31,1.79c-.49.1-.8,0-.88-.39s.11-.58.62-.7a.53.53,0,0,0,.47-.56.55.55,0,0,0-.5-.59,2.59,2.59,0,0,0-.42,0H49.65l-.38,0a.55.55,0,0,0-.55.59.51.51,0,0,0,.5.57c.38,0,.62.22.58.64s-.32.52-.78.46a1.69,1.69,0,0,1,.15-3.37c.81,0,1.63,0,2.45,0Z"/><path d="M29.13,82.21c0,1.16,0,2.32,0,3.48a1,1,0,0,1-.31.67c-.36.26-.78-.06-.79-.58,0-1,0-2,0-3.06,0-1.22,0-2.45,0-3.67a1.62,1.62,0,0,0-1.73-1.79,6.82,6.82,0,0,1-1.17,0,.76.76,0,0,1-.48-.51.66.66,0,0,1,.39-.52,4.42,4.42,0,0,1,2.79.38,2.62,2.62,0,0,1,1.3,2.36C29.14,80,29.13,81.11,29.13,82.21Z"/><path d="M86.66,82.23c0,1.15,0,2.29,0,3.44,0,.52-.2.77-.56.76s-.54-.26-.54-.77q0-3.22,0-6.45c0-1.34-.6-1.94-2-2h-.85c-.37,0-.61-.18-.6-.57a.5.5,0,0,1,.58-.53,11,11,0,0,1,1.91.13,2.49,2.49,0,0,1,2,2.43c0,1.17,0,2.35,0,3.53Z"/><path d="M32.68,90.67c0-.91,0-1.82,0-2.73,0-.41.14-.61.57-.59a5.42,5.42,0,0,1,2.62.38A3.3,3.3,0,0,1,34.31,94c-.36,0-.72,0-1.08,0s-.56-.17-.56-.56c0-.91,0-1.82,0-2.73Zm.71,2.57c.4,0,.72,0,1,0A2.59,2.59,0,0,0,36.31,89a2.88,2.88,0,0,0-2.68-.93.36.36,0,0,0-.24.26C33.38,89.93,33.38,91.55,33.38,93.24Z"/><path d="M32.22,81.27q0,2.12,0,4.24a2.16,2.16,0,0,1,0,.42c-.07.34-.31.56-.64.47s-.36-.31-.51-.5,0-.18,0-.28q0-4.31,0-8.61c0-.09,0-.19,0-.28,0-.35.17-.58.54-.58a.56.56,0,0,1,.63.6c0,.89,0,1.79,0,2.68q0,.92,0,1.84Z"/><path d="M38.49,72.86c.79,0,1.51,0,2.22,0a.87.87,0,0,0,.57-.5,4.3,4.3,0,0,0,.19-1.15c0-.37.2-.61.58-.59a.53.53,0,0,1,.57.61,6.86,6.86,0,0,1-.16,1.3,1.74,1.74,0,0,1-2,1.47H37c-.36,0-.69-.05-.74-.47s.22-.61.62-.66a.49.49,0,0,0,.46-.55c0-.31-.18-.46-.47-.57a1.1,1.1,0,0,1-.57-.39.51.51,0,0,1,.47-.76A1.62,1.62,0,0,1,38.48,72C38.51,72.27,38.49,72.53,38.49,72.86Z"/><path d="M83.23,10.8c-.17.22-.29.51-.51.64-1.16.68-2.34,1.33-3.53,2a.59.59,0,0,1-.56-.07,6.7,6.7,0,0,1-.68-1.2c0-.09.09-.33.2-.4,1.23-.75,2.47-1.48,3.72-2.2a.5.5,0,0,1,.34-.06A1.91,1.91,0,0,1,83.23,10.8Z"/><path d="M77.41,12.26c-.18.84.42,1.18.94,1.59-.57.33-1.1.65-1.65,1-1,.54-1.95,1.06-2.9,1.62a.58.58,0,0,1-.86-.11,4.17,4.17,0,0,1-.53-.87.46.46,0,0,1,.16-.42c1.54-.93,3.09-1.85,4.64-2.76C77.23,12.24,77.29,12.26,77.41,12.26Zm-2.76,1.83c-.45.11-.6.28-.47.57,0,.08.22.08.34.12ZM74,15.62c.14-.19.29-.31.26-.37A.57.57,0,0,0,74,14.9c-.07,0-.32.18-.31.23A2.06,2.06,0,0,0,74,15.62Zm1.1-.62.21-.11-.2-.56-.34.17Z"/><path d="M59.33,89.83c0,.61,0,1.22,0,1.84A2.3,2.3,0,0,1,57.06,94a2.26,2.26,0,0,1-2.31-2.24c0-1.27,0-2.54,0-3.81,0-.24,0-.51.32-.53s.36.27.36.53c0,1.21,0,2.42,0,3.62a1.61,1.61,0,1,0,3.2,0c0-1.13,0-2.26,0-3.39,0-.13,0-.28,0-.37a2.34,2.34,0,0,1,.37-.4c.1.13.29.26.3.4,0,.55,0,1.1,0,1.65q0,.21,0,.42Z"/><path d="M74.75,8c.22.84.22.84,1.14,1.6-.48.34-.94.68-1.42,1-1,.65-1.92,1.28-2.85,1.94a.6.6,0,0,1-.9-.05,4,4,0,0,1-.58-.78.46.46,0,0,1,.09-.44C71.71,10.17,73.21,9.1,74.75,8Zm-2.62,3.35c-.19-.16-.29-.32-.42-.34s-.22.16-.33.24a1.69,1.69,0,0,0,.36.34C71.81,11.6,72,11.45,72.14,11.33Zm.15-1.09c-.45,0-.59.18-.48.45,0,.09.21.11.33.17Zm.79.41c-.17-.14-.27-.28-.39-.3s-.17.17-.25.26l.4.33Z"/><path d="M51.85,93.95a1.94,1.94,0,0,1-1.4-.77c-.15-.19-.29-.45,0-.6a.62.62,0,0,1,.54.15,1.31,1.31,0,0,0,1.85.21,1.22,1.22,0,0,0,.44-1.26,1.23,1.23,0,0,0-.89-.95c-.18-.06-.37-.07-.55-.12a1.64,1.64,0,0,1-1.22-1.5,1.65,1.65,0,0,1,2.9-1.19c.17.19.35.42.11.66s-.45.06-.62-.15a.89.89,0,0,0-1.14-.26.87.87,0,0,0-.55.95,1,1,0,0,0,.86.86,2,2,0,0,1-.32,4Z"/><path d="M80.48,6.19a2.37,2.37,0,0,1-.45.62C79,7.56,77.88,8.27,76.81,9A.55.55,0,0,1,76,8.93l-.13-.14c-.73-.88-.65-1,.22-1.76a3.64,3.64,0,0,1,3-1,8.55,8.55,0,0,0,1.26,0Z"/><path d="M83.79,72.94a1.66,1.66,0,0,1-1.65,1.68,1.68,1.68,0,0,1-1.7-1.69,1.66,1.66,0,0,1,1.73-1.71A1.67,1.67,0,0,1,83.79,72.94Zm-1.1,0c-.05-.32-.21-.56-.56-.58a.6.6,0,0,0-.58.62.54.54,0,0,0,.59.54C82.51,73.49,82.66,73.26,82.69,72.91Z"/><path d="M72.61,91.78h-4a.93.93,0,0,1-.49-.11.31.31,0,0,1,.12-.55,1.58,1.58,0,0,1,.47,0h7.91c.26,0,.52.08.46.38a.6.6,0,0,1-.47.31C75.31,91.79,74,91.78,72.61,91.78Z"/><path d="M27.57,91.78h-4c-.26,0-.55,0-.56-.34s.27-.37.54-.37h8a.79.79,0,0,1,.54.19c.19.22,0,.5-.42.5h-4Z"/><path d="M27.59,90.28H23.64c-.11,0-.24,0-.32,0S23,90,23,89.92s.18-.25.31-.33.21,0,.32,0h7.8c.08,0,.18,0,.23,0a4.78,4.78,0,0,1,.41.35c-.14.12-.27.32-.42.33-.5,0-1,0-1.5,0Z"/><path d="M72.62,90.28h-4c-.26,0-.55,0-.56-.35s.29-.35.55-.35h8c.26,0,.54,0,.53.37s-.27.33-.52.33Z"/><path d="M38.71,90.62q0-1.37,0-2.73c0-.24,0-.51.32-.52s.37.28.37.53q0,2.78,0,5.56c0,.26-.07.52-.37.46-.13,0-.3-.3-.3-.47,0-.94,0-1.88,0-2.83Z"/><path d="M43,33.45l.83,2.25-1.09-.17a3.44,3.44,0,0,0-.56-.06c-.51,0-1,.05-1.53.06a2.25,2.25,0,0,0-1.53.63,1.25,1.25,0,0,1-.59.3,1.08,1.08,0,0,0-1,1.1c-.08,1.31-.16,2.63-.23,3.94a6.79,6.79,0,0,0,0,1,3,3,0,0,0,2.64,3c.44.1.56.27.5.69a5.21,5.21,0,0,0,0,1,3.1,3.1,0,0,0,3,3.26,13.93,13.93,0,0,0,4.76-.36,2.71,2.71,0,0,0,2.05-2.16,12.65,12.65,0,0,0,.2-1.44s0,0,.07,0c.92-.11.92-.11,1.05.78.24,1.58.92,2.51,3,2.78a12.38,12.38,0,0,0,4.76-.35,2.6,2.6,0,0,0,2.07-2.29,19.3,19.3,0,0,0,0-2.67c.45-.11.93-.23,1.41-.33a2.66,2.66,0,0,0,2.15-2.28A5.69,5.69,0,0,0,65,39.21a5.2,5.2,0,0,1-.32-2.68c.08-.36-.17-.53-.47-.66a3.24,3.24,0,0,1-.56-.37c-.2-.14-.38-.38-.6-.43-.59-.14-1.19-.2-1.79-.29-.18,0-.36-.07-.55-.08s-.64,0-1,0H58.21a12.26,12.26,0,0,1,.64-1.11c.06-.08.32-.07.46,0a22.47,22.47,0,0,1,5.18,2.09,11.77,11.77,0,0,1,3.64,3A5.71,5.71,0,0,1,68,46.25,14.08,14.08,0,0,1,62.42,50a29.8,29.8,0,0,1-13.52,2,26.85,26.85,0,0,1-8.92-2,14.39,14.39,0,0,1-5.65-3.8,5.86,5.86,0,0,1,.42-8.44,16.84,16.84,0,0,1,5.64-3.5c.12-.05.32-.12.39-.06.35.28.62,0,.9-.11Z" style="fill:#fff"/><path d="M48.5,37.9c-2.44,0-3.61-1.08-4.53-3.24-.14-.33-.22-.69-.36-1s0-.51.28-.67l9.67-5.34c.95-.52,1.9-1,2.84-1.57.29-.16.45-.15.64.15a9.68,9.68,0,0,1,1.7,5.2,4,4,0,0,1-2.15,3.79,24.2,24.2,0,0,1-6.3,2.41C49.71,37.76,49.1,37.81,48.5,37.9Z" style="fill:#fff"/><path d="M41,42.84l.09,0c.29.26.54.63.89.75a1.77,1.77,0,0,1,1,.58,1,1,0,0,0,.65.33c.29,0,.47-.14.59-.43.28-.72.7-.81,1.29-.32s.7.45,1.16-.06a.7.7,0,0,1,1-.18c.52.3.76.19.89-.39s.28-.7.83-.66c.21,1,.48,2,.6,3a9.28,9.28,0,0,1,0,2.46,2.21,2.21,0,0,1-1.77,1.9,11.84,11.84,0,0,1-5,.29,2.62,2.62,0,0,1-2.41-2.88c0-1,.11-2.06.18-3.1C41,43.69,41,43.27,41,42.84Z" style="fill:#fff"/><path d="M52.33,42.29c.28.29.51.71.85.83a1.81,1.81,0,0,1,1,.64.87.87,0,0,0,.53.29c.33.06.54-.12.67-.45.3-.73.7-.81,1.29-.3s.66.45,1.16-.07a.71.71,0,0,1,1-.15c.45.29.72.16.84-.36S60,42,60.58,42c.24,1.34.53,2.66.69,4a4.77,4.77,0,0,1-.21,1.76,2.11,2.11,0,0,1-1.54,1.56,13,13,0,0,1-4.94.39c-1.8-.18-2.72-1.32-2.68-3.34,0-1.33.19-2.65.3-4Z" style="fill:#fff"/><path d="M64.12,36.69c.21,1,.42,1.92.61,2.84a5.34,5.34,0,0,1-.2,3.19,2.5,2.5,0,0,1-2,1.44c-1.19.27-1.27.24-1.47-1a4.69,4.69,0,0,1,0-1.17c.05-.54,0-.68-.54-.87a1.93,1.93,0,0,1-.44-.31c-.22-.17-.42-.43-.67-.49-.6-.14-1.22-.19-1.83-.27l-.32,0-1.4-.18a6.46,6.46,0,0,1,0-2.94l.66.62c.11.1.22.26.33.26a1,1,0,0,1,.9.59.53.53,0,0,0,.66.31,1.09,1.09,0,0,0,.56-.46c.33-.66.77-.77,1.34-.28s.69.43,1.14,0a.75.75,0,0,1,1-.17c.47.27.72.13.83-.41S63.58,36.66,64.12,36.69Z" style="fill:#fff"/><path d="M46.38,40.45c-1.08,0-2.09,0-3.09,0a.92.92,0,0,0-.48.18,4.6,4.6,0,0,1-1.57.85c-.5.12-.56.68-.57,1.18,0,.87-.08,1.74-.12,2.6a2.68,2.68,0,0,1-2.84-2.32,13.87,13.87,0,0,1,0-2.34c0-.89.14-1.78.23-2.81l.68.6c.13.11.26.3.41.31a1.24,1.24,0,0,1,.91.6.66.66,0,0,0,1.19-.12c.35-.78.69-.86,1.35-.3.45.39.73.38,1.11-.07a.74.74,0,0,1,1-.2c.48.27.72.16.84-.36,0-.16.1-.32.15-.51.49.11.86.24.81.84,0,.4.05.81.06,1.21A4.62,4.62,0,0,1,46.38,40.45Z" style="fill:#fff"/><path d="M55.59,22.79l.52,2-12.78,7.6-1-5.18a1.48,1.48,0,0,1,1.41.54.62.62,0,0,0,.72.26,1.62,1.62,0,0,1,1.7.55c.35.39.72.28,1.12.14a.83.83,0,0,0,.66-.86,1.63,1.63,0,0,1,0-.37,1.11,1.11,0,0,1,1.74-.88c.14.06.27.15.42.22a1,1,0,0,0,1.5-.57c.44-1,.76-1.12,1.8-.82a.71.71,0,0,0,.94-.67,3.31,3.31,0,0,0,0-.38C54.24,23.33,54.51,23,55.59,22.79Z" style="fill:#fff"/><path d="M55.42,38.34v1.6a1.43,1.43,0,0,1-.27,0,2.27,2.27,0,0,0-1.79.68,1.11,1.11,0,0,1-.52.25,1.09,1.09,0,0,0-1,1.19c-.06,1.17-.13,2.35-.2,3.52,0,.27,0,.55-.43.51s-.73.17-.79-.43-.27-.94-.34-1.41a10,10,0,0,1-.12-1.81.74.74,0,0,0-.52-.86,4.26,4.26,0,0,1-.52-.35,7,7,0,0,0-1.06-.52,7.2,7.2,0,0,0-1.09-.2l.11-1.76c.06,0,.1-.05.11,0,.31.26.58.63.94.75a1.67,1.67,0,0,1,1,.65.66.66,0,0,0,1.17-.1c.42-.85.68-.91,1.41-.31.44.36.69.35,1.08-.09a.72.72,0,0,1,1-.19c.49.28.73.16.86-.41S54.71,38.3,55.42,38.34Z" style="fill:#fff"/><path d="M53.69,23.3c0,.37,0,.74.05,1.11s-.14.44-.46.39a3.41,3.41,0,0,0-.84-.06,1.45,1.45,0,0,0-1.23.88c-.36.78-.58.84-1.34.45a1.61,1.61,0,0,0-2.51,1.3,1.6,1.6,0,0,1-.1.46c-.15.41-.41.5-.75.2a2.11,2.11,0,0,0-2.06-.63c-.14,0-.39-.2-.53-.36s0-.3.07-.4a8.07,8.07,0,0,1,2.41-2.16c.1,1,.74,1.29,1.57,1.29a2.55,2.55,0,0,0,2.39-1.23,1,1,0,0,0-.25-1.32A8,8,0,0,1,53.69,23.3Z" style="fill:#fff"/><path d="M42.09,26.57a1.11,1.11,0,0,1,.9-1.46,1.19,1.19,0,0,0,.83-.74,3.19,3.19,0,0,1,2.62-1.82,13.18,13.18,0,0,0,1.39-.48c.43-.12.87-.17,1.31-.25l1-.17c.24,0,.49-.09.73-.12a9.75,9.75,0,0,0,1.23-.12,1.77,1.77,0,0,1,1.68.31,1.4,1.4,0,0,0,1.25.39,1.36,1.36,0,0,1,.48.1c-.51.21-1,.4-1.41.57a.65.65,0,0,1-.32,0,12.83,12.83,0,0,0-4.63.1,8.71,8.71,0,0,0-5.63,3.57.59.59,0,0,1-.41.2A9.78,9.78,0,0,1,42.09,26.57Z" style="fill:#fff"/><path d="M55,41.38c.26,1,.78,1.27,1.65,1.12.69-.12.94-.44.9-1.28l2,.64a3.32,3.32,0,0,0-.12.49c0,.43-.2.48-.58.3a.89.89,0,0,0-1.15.24c-.26.31-.49.35-.83.06-.72-.63-1.29-.51-1.72.34-.24.46-.34.45-.7.1a5.82,5.82,0,0,0-.91-.59c-.12-.08-.27-.16-.32-.28s.08-.27.18-.32C53.89,41.93,54.41,41.67,55,41.38Z" style="fill:#fff"/><path d="M55.74,36.69c.07-.59.4-.7.77-.79a1.21,1.21,0,0,0,.61-.27A2,2,0,0,1,58.94,35a5.6,5.6,0,0,0,.93,0,1.52,1.52,0,0,1,.32,0l1.77.33a1.84,1.84,0,0,0,.42,0,1.28,1.28,0,0,1,1.1.5,3.29,3.29,0,0,0,.75.51c-.78.3-1.43-.2-2.15-.4a6,6,0,0,0-5.45.83C56.45,36.85,56.07,36.71,55.74,36.69Z" style="fill:#fff"/><path d="M49.47,42.18a14.32,14.32,0,0,1-1.53-.36,6.41,6.41,0,0,0-5.28.16,3.75,3.75,0,0,0-.48.29c-.52.38-.52.38-1.15,0,0-.45.36-.55.73-.64a1.64,1.64,0,0,0,.68-.33,2.09,2.09,0,0,1,1.67-.58,7.51,7.51,0,0,0,1.1-.06,1.56,1.56,0,0,1,.33,0c.84.13,1.68.25,2.52.4a1.23,1.23,0,0,1,.48.27c.31.24.6.49.89.74Z" style="fill:#fff"/><path d="M60.54,41.61c-.85.32-1.55-.32-2.35-.5a6,6,0,0,0-5.09.89c-.19.14-.58,0-.88,0,0-.59.3-.71.68-.8a1.61,1.61,0,0,0,.72-.35,2,2,0,0,1,1.77-.56,1.55,1.55,0,0,0,.65,0,2,2,0,0,1,1.23,0c.51.14,1.06.13,1.59.23a2.74,2.74,0,0,1,.88.34A7.19,7.19,0,0,1,60.54,41.61Z" style="fill:#fff"/><path d="M52.36,37.63a16.57,16.57,0,0,1,1.64.54c.45.19,0,.54,0,.82a1.08,1.08,0,0,1-.43,0,1,1,0,0,0-1.28.25c-.25.29-.47.32-.79,0-.73-.65-1.31-.53-1.75.33-.24.46-.33.44-.7.08a5.61,5.61,0,0,0-.91-.58c-.12-.08-.28-.16-.32-.28s.08-.25.17-.33a2.1,2.1,0,0,1,2,0,1.63,1.63,0,0,0,1.92,0A3.23,3.23,0,0,0,52.36,37.63Z" style="fill:#fff"/><path d="M44.58,36.81c-.67-.11-1.34-.25-2-.31a5.47,5.47,0,0,0-3.67,1,1,1,0,0,1-.62.1c-.13,0-.36-.2-.34-.27s.18-.42.3-.42c.66,0,1.06-.52,1.57-.81a3.53,3.53,0,0,1,1.31-.22c.31,0,.62,0,.92-.06.08,0,.16-.05.23,0a8.08,8.08,0,0,1,1.59.24c.32.11.55.46.82.71Z" style="fill:#fff"/><path d="M43.89,42a.91.91,0,0,0,.72,1c-.24.33-.47.65-.7,1s-.37.34-.57,0a1.23,1.23,0,0,0-1.06-.66c-.08,0-.2-.15-.23-.25a.34.34,0,0,1,.11-.3c.53-.31,1.07-.59,1.61-.88Z" style="fill:#fff"/><path d="M58.59,36a1,1,0,0,0,.77,1.15c-.24.31-.51.61-.73.93s-.38.34-.6,0a1.27,1.27,0,0,0-1-.62.41.41,0,0,1-.29-.24.38.38,0,0,1,.14-.34C57.44,36.63,58,36.36,58.59,36Z" style="fill:#fff"/><path d="M40.76,37c-.1.66.4.82.74,1-.24.31-.49.58-.68.89s-.38.42-.64.06a1.29,1.29,0,0,0-1-.62c-.1,0-.23-.15-.27-.26A.33.33,0,0,1,39,37.8c.52-.3,1.06-.57,1.6-.85Z" style="fill:#fff"/><path d="M45.18,43c1.07-.29,1.17-.39,1.2-1.35a16.11,16.11,0,0,1,1.81.62c.37.18,0,.52,0,.79a.78.78,0,0,1-.41,0,1,1,0,0,0-1.24.22.49.49,0,0,1-.86,0A3.34,3.34,0,0,0,45.18,43Z" style="fill:#fff"/><path d="M59.83,37.26c1.05-.18,1.3-.42,1.24-1.34l2,.64-.26,1-.39-.14a1,1,0,0,0-1.24.24.51.51,0,0,1-.82.05C60.24,37.53,60,37.41,59.83,37.26Z" style="fill:#fff"/><path d="M45.28,37.45l-.28.94c-.17-.07-.29-.13-.41-.17a1,1,0,0,0-1.16.22c-.29.35-.57.4-.9,0a2.75,2.75,0,0,0-.46-.33,3,3,0,0,0,.88-.39,3.08,3.08,0,0,0,.44-.92Z" style="fill:#fff"/><path d="M49.67,24.46a1.24,1.24,0,0,0-2,0,.36.36,0,0,0,.15.61,2.83,2.83,0,0,0,.52.13c-.52,0-1,.11-1.24-.36-.16-.28.15-.69.69-1a1.84,1.84,0,0,1,1.75-.16C49.93,23.85,50,24,49.67,24.46Z" style="fill:#fff"/><path d="M55.24,38c-.8.26-1.5-.31-2.3-.56a6,6,0,0,1,1-.32.86.86,0,0,1,.52.22C54.72,37.5,55,37.74,55.24,38Z" style="fill:#fff"/><path d="M41.31,37.57c0-.14-.14-.34-.08-.46.16-.32,1-.42,1.37-.16a.65.65,0,0,1,.2.49.9.9,0,0,0-1.09-.35C41.57,37.14,41.48,37.36,41.31,37.57Z" style="fill:#fff"/><path d="M55.52,42c0-.16,0-.35,0-.46a1.19,1.19,0,0,1,1.28-.15.6.6,0,0,1,.27.43,4.32,4.32,0,0,0-.82-.31c-.33-.05-.59.08-.56.53Z" style="fill:#fff"/><path d="M59.06,36.62c0-.14,0-.3,0-.4A1.09,1.09,0,0,1,60.32,36a.9.9,0,0,1,.36.43c-.78-.51-1.33-.38-1.47.16Z" style="fill:#fff"/><path d="M46,42.26c-.87-.53-1.2-.5-1.61.09,0-.13-.05-.3,0-.37a1,1,0,0,1,1.12-.25C45.76,41.79,46,41.9,46,42.26Z" style="fill:#fff"/><path d="M55,36.63l.08.84-.58-.62Z" style="fill:#fff"/><path d="M74.65,14.09l-.13.69c-.12,0-.31,0-.34-.12C74.05,14.37,74.2,14.2,74.65,14.09Z" style="fill:#fff"/><path d="M74,15.62a2.06,2.06,0,0,1-.33-.48s.24-.25.31-.23a.57.57,0,0,1,.29.34C74.32,15.31,74.17,15.43,74,15.62Z" style="fill:#fff"/><path d="M75.13,15l-.33-.49.34-.17.2.56Z" style="fill:#fff"/><path d="M72.14,11.33c-.19.12-.33.27-.39.24a1.69,1.69,0,0,1-.36-.34c.11-.09.23-.26.33-.24S72,11.17,72.14,11.33Z" style="fill:#fff"/><path d="M72.29,10.24l-.15.62c-.11-.05-.29-.08-.33-.17C71.7,10.42,71.84,10.25,72.29,10.24Z" style="fill:#fff"/><path d="M73.08,10.65l-.24.29-.4-.33c.08-.09.18-.27.25-.26S72.91,10.51,73.08,10.65Z" style="fill:#fff"/></svg>