<svg xmlns="http://www.w3.org/2000/svg" xmlns:xlink="http://www.w3.org/1999/xlink" viewBox="0 0 1000 570"><defs><linearGradient id="Безымянный_градиент_30" y1="384.9" x2="1000" y2="384.9" gradientUnits="userSpaceOnUse"><stop offset="0" stop-color="#c66fd7"/><stop offset="1" stop-color="#5937e5"/></linearGradient><linearGradient id="Безымянный_градиент_90" x1="217.86" y1="564.01" x2="232.47" y2="564.01" gradientUnits="userSpaceOnUse"><stop offset="0" stop-color="#63d4ff"/><stop offset="1" stop-color="#546be5"/></linearGradient><linearGradient id="Безымянный_градиент_90-2" x1="184.4" y1="564" x2="199" y2="564" xlink:href="#Безымянный_градиент_90"/><linearGradient id="Безымянный_градиент_90-3" x1="180.76" y1="387.98" x2="235.28" y2="387.98" xlink:href="#Безымянный_градиент_90"/><linearGradient id="Безымянный_градиент_30-2" x1="211.95" y1="327.11" x2="217.18" y2="327.11" xlink:href="#Безымянный_градиент_30"/><linearGradient id="Безымянный_градиент_98" x1="119.21" y1="427.37" x2="158.93" y2="427.37" gradientTransform="translate(469.78 123.03) rotate(65.4)" gradientUnits="userSpaceOnUse"><stop offset="0" stop-color="#a1d8f6"/><stop offset="1" stop-color="#9e90f2"/></linearGradient><linearGradient id="Безымянный_градиент_98-2" x1="608.47" y1="266.38" x2="761.57" y2="266.38" gradientTransform="matrix(1, 0, 0, 1, 0, 0)" xlink:href="#Безымянный_градиент_98"/><linearGradient id="Безымянный_градиент_90-4" x1="675" y1="314.2" x2="721.11" y2="314.2" xlink:href="#Безымянный_градиент_90"/><linearGradient id="Безымянный_градиент_30-3" x1="758.83" y1="395.5" x2="813.38" y2="395.5" xlink:href="#Безымянный_градиент_30"/><linearGradient id="Безымянный_градиент_98-3" x1="750.85" y1="558.67" x2="776.2" y2="558.67" gradientTransform="matrix(1, 0, 0, 1, 0, 0)" xlink:href="#Безымянный_градиент_98"/><linearGradient id="Безымянный_градиент_30-4" x1="69.16" y1="363.44" x2="97.57" y2="363.44" gradientTransform="translate(730.02)" xlink:href="#Безымянный_градиент_30"/><linearGradient id="Безымянный_градиент_30-5" x1="63.59" y1="334.14" x2="89.62" y2="334.14" gradientTransform="translate(730.02)" xlink:href="#Безымянный_градиент_30"/><linearGradient id="Безымянный_градиент_30-6" x1="769.57" y1="387.05" x2="836.94" y2="387.05" xlink:href="#Безымянный_градиент_30"/><linearGradient id="Безымянный_градиент_98-4" x1="364.24" y1="293.31" x2="396.85" y2="293.31" gradientTransform="matrix(1, 0, 0, 1, 0, 0)" xlink:href="#Безымянный_градиент_98"/><linearGradient id="Безымянный_градиент_30-7" x1="542.45" y1="508.88" x2="575.07" y2="508.88" xlink:href="#Безымянный_градиент_30"/><linearGradient id="Безымянный_градиент_98-5" x1="465.69" y1="523.61" x2="495.14" y2="494.16" gradientTransform="matrix(1, 0, 0, 1, 0, 0)" xlink:href="#Безымянный_градиент_98"/><linearGradient id="Безымянный_градиент_30-8" x1="542.45" y1="309.07" x2="575.07" y2="309.07" xlink:href="#Безымянный_градиент_30"/><linearGradient id="Безымянный_градиент_98-6" x1="465.69" y1="323.79" x2="495.14" y2="294.34" gradientTransform="matrix(1, 0, 0, 1, 0, 0)" xlink:href="#Безымянный_градиент_98"/><linearGradient id="Безымянный_градиент_98-7" x1="504.86" y1="366.03" x2="534.31" y2="336.58" gradientTransform="matrix(1, 0, 0, 1, 0, 0)" xlink:href="#Безымянный_градиент_98"/><linearGradient id="Безымянный_градиент_30-9" x1="542.45" y1="393.33" x2="575.07" y2="393.33" xlink:href="#Безымянный_градиент_30"/><linearGradient id="Безымянный_градиент_98-8" x1="465.69" y1="408.06" x2="495.14" y2="378.6" gradientTransform="matrix(1, 0, 0, 1, 0, 0)" xlink:href="#Безымянный_градиент_98"/><linearGradient id="Безымянный_градиент_30-10" x1="424.93" y1="435.57" x2="457.55" y2="435.57" xlink:href="#Безымянный_градиент_30"/><linearGradient id="Безымянный_градиент_98-9" x1="434.25" y1="323.58" x2="466.86" y2="323.58" gradientTransform="matrix(1, 0, 0, 1, 0, 0)" xlink:href="#Безымянный_градиент_98"/><linearGradient id="Безымянный_градиент_98-10" x1="325.42" y1="560.36" x2="340.82" y2="560.36" gradientTransform="matrix(1, 0, 0, 1, 0, 0)" xlink:href="#Безымянный_градиент_98"/><linearGradient id="Безымянный_градиент_98-11" x1="373.51" y1="562.94" x2="388.24" y2="562.94" gradientTransform="matrix(1, 0, 0, 1, 0, 0)" xlink:href="#Безымянный_градиент_98"/><linearGradient id="Безымянный_градиент_98-12" x1="541.7" y1="460.81" x2="659.23" y2="460.81" gradientTransform="matrix(1, 0, 0, 1, 0, 0)" xlink:href="#Безымянный_градиент_98"/><linearGradient id="Безымянный_градиент_90-5" x1="81.68" y1="519.22" x2="123.32" y2="519.22" xlink:href="#Безымянный_градиент_90"/><linearGradient id="Безымянный_градиент_98-13" x1="289.13" y1="511.73" x2="299.26" y2="511.73" gradientTransform="matrix(1, 0, 0, 1, 0, 0)" xlink:href="#Безымянный_градиент_98"/><linearGradient id="Безымянный_градиент_98-14" x1="299.13" y1="511.73" x2="309.26" y2="511.73" gradientTransform="matrix(1, 0, 0, 1, 0, 0)" xlink:href="#Безымянный_градиент_98"/><linearGradient id="Безымянный_градиент_90-6" x1="299.2" y1="535.02" x2="311.75" y2="535.02" xlink:href="#Безымянный_градиент_90"/><linearGradient id="Безымянный_градиент_90-7" x1="304.81" y1="535" x2="315.41" y2="535" xlink:href="#Безымянный_градиент_90"/><linearGradient id="Безымянный_градиент_30-11" x1="130" y1="45.56" x2="168.31" y2="45.56" xlink:href="#Безымянный_градиент_30"/><linearGradient id="Безымянный_градиент_30-12" x1="172.98" y1="50.57" x2="213.94" y2="50.57" xlink:href="#Безымянный_градиент_30"/><linearGradient id="Безымянный_градиент_30-13" x1="222.56" y1="59.54" x2="263.52" y2="59.54" xlink:href="#Безымянный_градиент_30"/><linearGradient id="Безымянный_градиент_30-14" x1="268.67" y1="42.12" x2="282.79" y2="42.12" xlink:href="#Безымянный_градиент_30"/><linearGradient id="Безымянный_градиент_30-15" x1="287.94" y1="44.52" x2="328.89" y2="44.52" xlink:href="#Безымянный_градиент_30"/><linearGradient id="Безымянный_градиент_30-16" x1="349.07" y1="45.56" x2="398.16" y2="45.56" xlink:href="#Безымянный_градиент_30"/><linearGradient id="Безымянный_градиент_30-17" x1="403.52" y1="59.54" x2="444.48" y2="59.54" xlink:href="#Безымянный_градиент_30"/><linearGradient id="Безымянный_градиент_30-18" x1="450.74" y1="59.54" x2="491.7" y2="59.54" xlink:href="#Безымянный_градиент_30"/><linearGradient id="Безымянный_градиент_30-19" x1="510.34" y1="44.52" x2="551.3" y2="44.52" xlink:href="#Безымянный_градиент_30"/><linearGradient id="Безымянный_градиент_30-20" x1="557.56" y1="50.57" x2="596.5" y2="50.57" xlink:href="#Безымянный_градиент_30"/><linearGradient id="Безымянный_градиент_30-21" x1="599.08" y1="50.57" x2="641.29" y2="50.57" xlink:href="#Безымянный_градиент_30"/><linearGradient id="Безымянный_градиент_30-22" x1="643.94" y1="50.57" x2="682.88" y2="50.57" xlink:href="#Безымянный_градиент_30"/><linearGradient id="Безымянный_градиент_30-23" x1="689.14" y1="44.24" x2="701.03" y2="44.24" xlink:href="#Безымянный_градиент_30"/><linearGradient id="Безымянный_градиент_30-24" x1="707.29" y1="50.57" x2="747.62" y2="50.57" xlink:href="#Безымянный_градиент_30"/><linearGradient id="Безымянный_градиент_30-25" x1="753.96" y1="59.54" x2="794.92" y2="59.54" xlink:href="#Безымянный_градиент_30"/><linearGradient id="Безымянный_градиент_30-26" x1="801.18" y1="50.36" x2="866.47" y2="50.36" xlink:href="#Безымянный_градиент_30"/><linearGradient id="Безымянный_градиент_30-27" x1="872.46" y1="50.57" x2="911.4" y2="50.57" xlink:href="#Безымянный_градиент_30"/><linearGradient id="Безымянный_градиент_30-28" x1="917.67" y1="50.36" x2="956.26" y2="50.36" xlink:href="#Безымянный_градиент_30"/><linearGradient id="Безымянный_градиент_30-29" x1="961.69" y1="45.84" x2="986.17" y2="45.84" xlink:href="#Безымянный_градиент_30"/></defs><title>soft-slide1</title><g style="isolation:isolate"><g id="Layer_1" data-name="Layer 1"><path d="M895.27,372.22c-16.67,8.37-32.63,75.62-54.58,75.62-77.57,0-100.11-281.09-208.06-243.61-56,19.44-96,157.1-163.88,201.92-70.72,46.69-159.5-80.76-210.5-80.76-53.71,0-58.62,159.6-101.07,170.39-20.75,5.27-43.68-27.6-63.43-19C72.66,485.9,63.46,511,52,531.93S16.41,567.66,0,569H1000C923.67,518.47,948.95,345.26,895.27,372.22Z" style="fill:url(#Безымянный_градиент_30)"/><path d="M135.89,407.7c-1.51.3-4.79,1.36-5,1.43a19.38,19.38,0,0,0-2.82,1,2.92,2.92,0,0,0-.79,1.55.88.88,0,0,0,.62.76c-.14.74,1.75.72,1.68.89-.3.71.58,1.33,3.13.44.15-.05,6.85-1,9-1.47a27.3,27.3,0,0,0-2-5.17A27.34,27.34,0,0,0,135.89,407.7Z" style="fill:#fcd2c5"/><path d="M188.66,360.1C185,364.93,177.74,383,172.59,391c-6.31,9.8,2.78,10.71,5.65,8.36,7.56-6.19,25.35-26.77,22.55-31C199.57,366.5,189.32,359.23,188.66,360.1Z" style="fill:#fcd2c5"/><path d="M188.66,360.1c-2.57,3.41-7.35,13.39-12.3,21.24a72.71,72.71,0,0,0,8.4,6.32c1.07.68,4.23,2.83,5.35,3.41,7.31-8.25,12.54-19.9,10.67-22.73C199.57,366.5,189.32,359.23,188.66,360.1Z" style="fill:#ce61d4"/><path d="M175.09,392.12a4,4,0,0,0-1.23.18c-6.19,2.08-27.78,13.75-34.58,14.89a21.63,21.63,0,0,1,1.52,5.3c11.14-2.1,38.3-10.45,38.75-15C180,393.4,177.14,392.12,175.09,392.12Z" style="fill:#fcd2c5"/><path d="M251.77,434.82c-.27.53-.73,1,0,1.31.47.22,1.84-1.61,1.89-2.13-.24-1.28-1-1.13-1-2.36A11,11,0,0,1,251.77,434.82Z" style="fill:#fcd2c5"/><path d="M257.8,428.85a27.4,27.4,0,0,0-5.21,1.86,27.28,27.28,0,0,0,.46,3.8c.27,1.51,1.26,4.81,1.33,5a19.26,19.26,0,0,0,1,2.84,2.92,2.92,0,0,0,1.54.82.88.88,0,0,0,.78-.6c.73.15.76-1.73.93-1.66.7.31,1.34-.55.51-3.12C259,437.69,258.23,431,257.8,428.85Z" style="fill:#fcd2c5"/><path d="M228.87,360.1c-.66-.88-10.91,6.4-12.12,8.24-2.8,4.25,15,24.82,22.55,31,2.87,2.35,12,1.45,5.65-8.36C239.8,383,232.5,364.93,228.87,360.1Z" style="fill:#fcd2c5"/><path d="M216.75,368.34c-1.87,2.83,3.37,14.49,10.67,22.73,1.11-.58,4.28-2.73,5.35-3.41a72.71,72.71,0,0,0,8.4-6.32c-5-7.86-9.74-17.84-12.3-21.24C228.21,359.23,218,366.5,216.75,368.34Z" style="fill:#ce61d4"/><path d="M243.8,390.65c-4.12-.5-5.46,2.3-5.5,4.35a4,4,0,0,0,.15,1.23c1.95,6.24,13.17,28.06,14.17,34.88a21.57,21.57,0,0,1,5.33-1.41C256.08,418.52,248.3,391.19,243.8,390.65Z" style="fill:#fcd2c5"/><path d="M211,477.48c-.26,3.67,6.91,85,6.91,85a6.55,6.55,0,0,0,5.11-1.13s4.45-79.71,4.59-81.3C226.32,481.36,213.12,479.1,211,477.48Z" style="fill:#fcd2c5"/><path d="M224.14,561.25c-.75-.88-1.66-2.25-1.66-2.25l-4.26,2.37s-.35.47-.12,1.81a3.48,3.48,0,0,0,.16,2.82c.45.75,3.11,1.48,4.5,2.31,1.12.66,3,.78,5,.69s4.66-1.18,4.66-2.4C232.47,564.18,225.58,562.95,224.14,561.25Z" style="fill:url(#Безымянный_градиент_90)"/><path d="M217.78,560.92s.09.91.32,2.26c0,0,2.66.94,3.57.44a7.13,7.13,0,0,0,2.48-2.37,10.61,10.61,0,0,1-1.52-2.51Z" style="fill:#fcd2c5"/><path d="M205.95,422v26.8c2,1.58,1.46,25.55,5.07,50.84,4.18,29.29,6.36,60.33,6.36,60.33,2.08,2.3,6.23,0,6.29-.18,0,0,11.62-134.65,10.86-140.12C231.11,421.18,216.21,422.7,205.95,422Z" style="fill:#4d3782"/><path d="M189.23,480.06c.14,1.59,4.59,81.3,4.59,81.3a6.55,6.55,0,0,0,5.11,1.13s7.17-81.34,6.91-85C203.75,479.1,190.55,481.36,189.23,480.06Z" style="fill:#fcd2c5"/><path d="M198.65,561.36,194.39,559s-.91,1.37-1.66,2.25c-1.44,1.7-8.33,2.94-8.33,5.35,0,1.22,2.57,2.32,4.66,2.4a14.34,14.34,0,0,0,5-.69c1.23-.4,4.05-1.55,4.5-2.31a3.48,3.48,0,0,0,.16-2.82C199,561.83,198.65,561.36,198.65,561.36Z" style="fill:url(#Безымянный_градиент_90-2)"/><path d="M192.73,561.25a7.13,7.13,0,0,0,2.48,2.37c.91.5,3.57-.44,3.57-.44.22-1.35.32-2.26.32-2.26l-4.84-2.18A10.61,10.61,0,0,1,192.73,561.25Z" style="fill:#fcd2c5"/><path d="M182.35,419.69c-.76,5.46,10.86,140.12,10.86,140.12.06.23,4.2,2.48,6.29.18,0,0,2.18-31,6.36-60.33,3.61-25.28,3.07-49.26,5.07-50.84V422C200.66,422.7,185.76,421.18,182.35,419.69Z" style="fill:#4d3782"/><path d="M182.34,414.31s-2,13.47-.57,14.94c3.32,3.33,14-.09,24.17-.6s28.74,2.9,29.31.85-1.25-13-1.25-13Z" style="fill:#ce61d4"/><path d="M213.41,339.84c-.75.47-8.43,4-10.52,3.57,0,.59.95,6.87-.66,10.1.36,3.13,8.93,3.77,11.67-1.29C213,350.65,212.79,342.66,213.41,339.84Z" style="fill:#fcd2c5"/><path d="M206.4,329c-3.86-.54-7.68.08-8.81,3.69-.4,1.29-.7,13.18,5.5,15.43,2.62,1,8.09-3.25,8.52-6.35l.6-4.27C212.8,333.42,210.55,329.61,206.4,329Z" style="fill:#fcd2c5"/><path d="M222.42,355.15c-2.15-.68-8.52-2.94-8.52-2.94s-4.9,3.67-8,3.67c-2.1,0-3.71-2.38-3.71-2.38s-7.68,1.74-9.11,2.43c-5.52,2.69-5.91,7.89-6.61,12.16s-6.78,48.61-5.61,51.08c2.88,6.06,50.23,6.16,54.12,0,1.52-2.41-4.48-48.89-4.5-51C230.5,362.39,228.88,357.21,222.42,355.15Z" style="fill:url(#Безымянный_градиент_90-3)"/><path d="M200.8,327c-6.78.79-6,10.68-3.07,12.33-.93-7.3,4.12-9.28,4.12-9.28,9.07.52,11.44,11.56,10.63,14.31,0,0,10.76-8.26,2.79-16.61C210,322.16,200.8,327,200.8,327Z" style="fill:#d5dbe0"/><path d="M212.18,335.89a3.55,3.55,0,0,0-1.78.47,50.37,50.37,0,0,0,1.47,4.9,3.74,3.74,0,0,0,2.34-2.78C214.24,337.4,213.26,335.92,212.18,335.89Z" style="fill:#fcd2c5"/><path d="M236.4,335.68c0-26.46-22.19-16.91-22.19-10,0,1.71.86,2.77,2.37,1.08,2.56-2.86,11.17-4.95,5.12,10.73-1.6,4.14-7.5,9.19,3.92,17.7,10.33,7.7,1.21,9.7,1.57,12.94.94,8.31,23.51-7.94,13.14-21C238.23,344.5,236.4,343.66,236.4,335.68Z" style="fill:#d5dbe0"/><path d="M215.51,325.29a2.58,2.58,0,0,0-1.52-.51,3.34,3.34,0,0,0-2.05.83,13.69,13.69,0,0,1,4.79,3.82C217.44,328.14,217.5,326.7,215.51,325.29Z" style="fill:url(#Безымянный_градиент_30-2)"/><rect x="122.77" y="411.06" width="32.62" height="32.62" rx="5.4" ry="5.4" transform="translate(-307.4 375.94) rotate(-65.4)" style="fill:url(#Безымянный_градиент_98)"/><path d="M135.55,406.42c-.54-.26-1.05-.7-1.31.06-.21.48,1.93,1.83,2.4,2,2.08,1,2.71-.25,2.1-1.29A11,11,0,0,1,135.55,406.42Z" style="fill:#fcd2c5"/><rect x="608.47" y="270" width="153.09" height="133.28" style="fill:#f0f0f0"/><rect x="608.47" y="257.86" width="153.09" height="17.04" style="fill:url(#Безымянный_градиент_98-2)"/><rect x="621.71" y="283.46" width="125.7" height="103.84" style="fill:#fff"/><rect x="653.14" y="290.16" width="89.43" height="48.67" style="fill:#f0f0f0"/><rect x="657.05" y="368.09" width="18.56" height="2.4" style="fill:#f0f0f0"/><rect x="684.84" y="368.09" width="40.63" height="2.4" style="fill:#f0f0f0"/><rect x="730.22" y="368.09" width="8.44" height="2.4" style="fill:#f0f0f0"/><rect x="710.7" y="371.9" width="27.96" height="2.4" style="fill:#f0f0f0"/><rect x="657.05" y="371.9" width="6.68" height="2.4" style="fill:#f0f0f0"/><rect x="667.17" y="371.9" width="36.93" height="2.4" style="fill:#f0f0f0"/><rect x="657.05" y="375.7" width="22.25" height="2.4" style="fill:#f0f0f0"/><rect x="683.79" y="375.7" width="54.87" height="2.4" style="fill:#f0f0f0"/><rect x="657.05" y="347.21" width="18.56" height="2.4" style="fill:#f0f0f0"/><rect x="684.84" y="347.21" width="40.63" height="2.4" style="fill:#f0f0f0"/><rect x="730.22" y="347.21" width="8.44" height="2.4" style="fill:#f0f0f0"/><rect x="710.7" y="351.02" width="27.96" height="2.4" style="fill:#f0f0f0"/><rect x="657.05" y="351.02" width="6.68" height="2.4" style="fill:#f0f0f0"/><rect x="667.17" y="351.02" width="36.93" height="2.4" style="fill:#f0f0f0"/><rect x="657.05" y="354.82" width="22.25" height="2.4" style="fill:#f0f0f0"/><rect x="683.79" y="354.82" width="54.87" height="2.4" style="fill:#f0f0f0"/><rect x="627.38" y="290.46" width="19.68" height="3.74" style="fill:#f0f0f0"/><rect x="627.38" y="300.95" width="19.68" height="3.74" style="fill:#f0f0f0"/><rect x="627.38" y="311.44" width="19.68" height="3.74" style="fill:#f0f0f0"/><rect x="627.38" y="321.93" width="19.68" height="3.74" style="fill:#f0f0f0"/><rect x="627.38" y="332.42" width="19.68" height="3.74" style="fill:#f0f0f0"/><rect x="627.38" y="342.9" width="19.68" height="3.74" style="fill:#f0f0f0"/><rect x="627.38" y="353.39" width="19.68" height="3.74" style="fill:#f0f0f0"/><rect x="627.38" y="363.88" width="19.68" height="3.74" style="fill:#f0f0f0"/><rect x="627.38" y="374.37" width="19.68" height="3.74" style="fill:#f0f0f0"/><circle cx="753.08" cy="269.74" r="1.82" style="fill:#fff"/><circle cx="745.8" cy="269.74" r="1.82" style="fill:#fff"/><path d="M705.92,298.49H689.8c-8.33,0-14.76,7.52-14.8,15.85s6.47,15.58,14.8,15.58h16.11c8.36,0,15.2-7.35,15.2-15.71S714.27,298.49,705.92,298.49Z" style="fill:url(#Безымянный_градиент_90-4)"/><path d="M675,314.42s0-.05,0-.08,0-.05,0-.08Z" style="fill:#ff4746"/><polygon points="692.76 323.44 707.7 314.81 692.76 306.19 692.76 323.44" style="fill:#fff"/><polygon points="110.24 303.38 123.02 303.38 124.75 289.43 104.04 289.43 110.24 303.38" style="fill:#d5dbe0"/><path d="M76.93,253.29l-14.54-2.2L72,268.46l12.1-4c0-.16,0-6.37,0-6.37C84.07,254.18,80.88,253.29,76.93,253.29Z" style="fill:#d5dbe0"/><path d="M72,275l-9.56,17.36,14.54-2.2c3.95,0,7.14-.88,7.14-4.83,0,0,0-6.21,0-6.37Z" style="fill:#d5dbe0"/><path d="M59.62,272.49s99-.19,99.19,0C147.18,231.49,65.12,254.32,59.62,272.49Z" style="fill:#f0f0f0"/><path d="M59.62,272.49c5.5,18.17,87.56,41,99.19,0C158.63,272.68,59.62,272.49,59.62,272.49Z" style="fill:#d5dbe0"/><path d="M118.55,258.93c-35.91,0-58.57,13.43-58.92,13.56h99.18C158.63,272.3,154.39,258.93,118.55,258.93Z" style="fill:#d5dbe0"/><path d="M118.55,286.05c35.84,0,40.09-13.36,40.26-13.56H59.63C60,272.63,82.64,286.05,118.55,286.05Z" style="fill:#f0f0f0"/><path d="M158.81,272.5h0Z" style="fill:#d5dbe0"/><path d="M944,215.88a12.55,12.55,0,0,0-9.61,4.72h19.22A12.55,12.55,0,0,0,944,215.88Z" style="fill:#f0f0f0"/><path d="M896.87,210.5c-4.1,0-7.23,4.89-10.94,4-8.1-1.9-11.44-12.33-20.33-12.33-6.87,0-10.84,8.52-17.18,7.94-10-.92-14.56-14.45-25.36-14.45-10,0-14.9,11.59-24.12,12.61-5.44.6-9.41-5.92-15.32-5.92-11.14,0-12.12,4.43-22.38,7.63-2.94.92-5.2,6.66-8.53,6.66-3.91,0-7.38,1.23-9.61,4H913.6A19.33,19.33,0,0,0,896.87,210.5Z" style="fill:#f0f0f0"/><path d="M371.51,185.83a12.55,12.55,0,0,0-9.61,4.72h19.22A12.55,12.55,0,0,0,371.51,185.83Z" style="fill:#f0f0f0"/><path d="M562.8,186.58c-3.33,0-5.58-5.74-8.52-6.66C544,176.73,543,172.3,531.9,172.3c-5.91,0-9.88,6.53-15.32,5.92-9.23-1-14.14-12.61-24.12-12.61-10.81,0-15.33,13.54-25.36,14.45-6.34.58-10.31-7.94-17.18-7.94-8.89,0-12.23,10.44-20.33,12.33-3.71.87-6.83-4-10.94-4a19.33,19.33,0,0,0-16.73,10.1H572.41C570.18,187.81,566.71,186.58,562.8,186.58Z" style="fill:#f0f0f0"/><path d="M755.53,421.34c-.58-.15-1.17-.47-1.27.33-.1.51,2,1.42,2.5,1.36,1.19-.52.88-1.22,2.06-1.55A11,11,0,0,1,755.53,421.34Z" style="fill:#fcd2c5"/><path d="M759.72,421.21a27.37,27.37,0,0,0-3.6,1.31c-1.41.61-4.4,2.32-4.61,2.44a19,19,0,0,0-2.55,1.57,2.91,2.91,0,0,0-.45,1.68.88.88,0,0,0,.76.62c0,.75,1.86.34,1.82.53-.15.75.84,1.18,3.15-.21.14-.08,6.49-2.39,8.46-3.29A27.39,27.39,0,0,0,759.72,421.21Z" style="fill:#fcd2c5"/><path d="M791.25,399.17a4,4,0,0,0-1.16.43c-5.63,3.32-24.33,19.21-30.75,21.73a21.68,21.68,0,0,1,2.59,4.87c10.47-4.36,35.31-18.15,34.82-22.65C796.29,399.41,793.26,398.74,791.25,399.17Z" style="fill:#fcd2c5"/><path d="M797.9,365c-2.56,5.48-5.95,24.68-9.33,33.56-4.15,10.89,4.93,9.9,7.25,7,6.11-7.62,19.26-31.43,15.64-35C809.9,369,798.36,364,797.9,365Z" style="fill:#fcd2c5"/><path d="M797.8,363.58a1.59,1.59,0,0,0-1.13.87c-1.34,2.86-2.84,9.11-4.44,15.74s-5.45,19.39-5.63,20.09c-2.3,1.63-24,18.31-27.76,19.77l3.61,7.4c9.22-3.84,29.83-15,34.51-21.08,5-6.23,20.4-31.9,15.47-36.76C810.78,368,800,363.11,797.8,363.58Z" style="fill:url(#Безымянный_градиент_30-3)"/><path d="M750.85,557a12.68,12.68,0,1,0,25.35,0v-9.25H750.85Z" style="fill:url(#Безымянный_градиент_98-3)"/><path d="M772.13,500.34V489.17H754.92v11.16a4.07,4.07,0,0,0-4.07,4.07v43.3s12.68,4.35,25.35,0v-43.3A4.07,4.07,0,0,0,772.13,500.34Z" style="fill:#f0f0f0"/><path d="M766.74,352.59h-6.43a2.8,2.8,0,0,0-2.76,2.31l-4.32,24.3a5.29,5.29,0,0,0,5.27,5.27h.05V477.7h9.93V384.47h.19a5.15,5.15,0,0,0,5.14-5.14L769.5,354.9A2.8,2.8,0,0,0,766.74,352.59Z" style="fill:#fff"/><rect x="749.78" y="476.47" width="27.49" height="12.7" rx="5.76" ry="5.76" style="fill:#4d3782"/><path d="M827,375.74c-.34-4.45,11.3-4.51,11.54,2.77.3,9.48-14.15,29.37-15.25,30.72-3.12,3.86-20.1,7.11-20.1,7.11S828.07,389.52,827,375.74Z" style="fill:#fb0;mix-blend-mode:multiply"/><path d="M856.21,561.94l-4.43-2s-.8,1.44-1.48,2.38c-1.3,1.81-8.07,3.58-7.88,6,.1,1.22,2.74,2.11,4.84,2s3.91-.34,5-1.09c1.33-.93,3.92-1.87,4.31-2.65a3.47,3.47,0,0,0-.06-2.83C856.59,562.38,856.21,561.94,856.21,561.94Z" style="fill:#53d6f2"/><path d="M850.87,559.73a3,3,0,0,1-.57,2.56,7.14,7.14,0,0,0,2.66,2.17c1,.43,3.52-.72,3.52-.72.12-1.36.05-3.4.05-3.4Z" style="fill:#fcd2c5"/><path d="M857.53,422.07c-10.18,1.47-25.15,1.13-28.67-.09-.18,3,.72,43.49,6.61,79.82a367.43,367.43,0,0,0,15.19,59c.07.22,4.38,2.14,6.28-.31,0,0-5.71-30.69-3.84-60.21C854.72,474.8,857.53,422.07,857.53,422.07Z" style="fill:#fff"/><path d="M823.95,561.64l-4.26-2.37s-.91,1.37-1.66,2.25c-1.44,1.7-8.33,2.94-8.33,5.35,0,1.22,2.57,2.32,4.66,2.4a14.37,14.37,0,0,0,5-.7c1.23-.4,4.05-1.55,4.5-2.3a3.47,3.47,0,0,0,.17-2.82C824.3,562.11,823.95,561.64,823.95,561.64Z" style="fill:#53d6f2"/><path d="M818.46,559.13a2.09,2.09,0,0,1-.43,2.39,7.13,7.13,0,0,0,2.48,2.38c.91.5,3.57-.44,3.57-.44a18.4,18.4,0,0,0,.1-3.3Z" style="fill:#fcd2c5"/><path d="M807.65,420c-.41,2.94-2.71,43.18.31,79.79a371.53,371.53,0,0,0,10.55,60.33c.06.23,4.2,2.48,6.28.18,0,0-3.29-31,.89-60.33,3.61-25.28,8.54-49.26,10.54-50.84V422.3C826,423,811.06,421.45,807.65,420Z" style="fill:#fff"/><path d="M806.11,347.36c.09.58,2.29,6.55,1.36,10,1,3,9.5,1.93,11.18-3.57-1.17-1.36-3-9.14-2.93-12C815.07,342.39,808.25,347.41,806.11,347.36Z" style="fill:#fcd2c5"/><path d="M806.7,332.57c-3.89.23-7.52,1.6-7.9,5.36-.14,1.34,1.93,13.06,8.45,14,2.76.42,7.28-4.78,7.1-7.91,0,0-.25-4.26-.25-4.3C813.84,335.61,810.88,332.32,806.7,332.57Z" style="fill:#fcd2c5"/><path d="M827.58,355c-2.1-.83-8.94-1.2-8.94-1.2s-4.07,4.56-7.07,5.17c-2.06.42-4.11-1.6-4.11-1.6s-7.19,3.23-8.44,4.19c-4.88,3.73-4.61,9-4.07,13.23.6,4.62,11.52,37.13,9.68,67.25,13.53,5.49,26.55,9.19,44.79-.63L848.24,422l6,18.09c1.21-.31,3.79-.53,4.75-.72C859,383.07,846.44,362.43,827.58,355Z" style="fill:#4d3782"/><path d="M818.65,353.81s-4.07,4.56-7.07,5.17c-2.06.42-4.11-1.6-4.11-1.6s-6.72,3-8.29,4.09c1.22,6.06,9,11.6,9,11.6s11.49-12.88,19.43-18.06a19.48,19.48,0,0,0-4.39-.87Z" style="fill:url(#Безымянный_градиент_30-4)"/><path d="M814.88,325.42c-8.2-6.45-21.5,1-21.27,9.24.05,1.83,2.08,6.14,19,1.33,2.27,2.82,3.51,9.33,3.51,9.33C820.88,340.45,821.15,330.35,814.88,325.42Z" style="fill:url(#Безымянный_градиент_30-5)"/><path d="M814.6,338a3.55,3.55,0,0,0-1.8.38c.22,1.45.89,3.8,1.22,5a3.74,3.74,0,0,0,2.48-2.66C816.58,339.64,815.68,338.11,814.6,338Z" style="fill:#fcd2c5"/><path d="M764.71,403.37c-.27.45,1.42,2,1.93,2.1,1.29-.11,1.22-.87,2.45-.79a11,11,0,0,1-3.07-1.21C765.52,403.14,765.06,402.64,764.71,403.37Z" style="fill:#fcd2c5"/><path d="M766.19,404.78c-1.53.11-4.92.76-5.15.8a19.27,19.27,0,0,0-2.92.66,2.93,2.93,0,0,0-1,1.45.88.88,0,0,0,.52.83c-.23.72,1.65.93,1.55,1.09-.38.66.41,1.39,3,.82.16,0,6.92-.14,9.07-.36a27.3,27.3,0,0,0-1.32-5.37A27.36,27.36,0,0,0,766.19,404.78Z" style="fill:#fcd2c5"/><path d="M824.79,362.62a1.58,1.58,0,0,0-1.36.45c-2.19,2.27-5.66,7.69-9.32,13.44s-7.5,11.75-10.49,15.33a21.5,21.5,0,0,0-1.37,1.83c-2.7.8-6.3,2-10.09,3.27-8.29,2.77-18.6,6.22-22.59,6.39l1,8.17c10-.62,33.09-4.5,39.5-8.7,6.71-4.26,29.66-23.51,26.59-29.71C835.63,371,827.07,362.9,824.79,362.62Z" style="fill:url(#Безымянный_градиент_30-6)"/><rect x="379.18" y="247.93" width="2.73" height="31.43" style="fill:#f0f0f0"/><rect x="364.24" y="277" width="32.61" height="32.62" rx="5.4" ry="5.4" style="fill:url(#Безымянный_градиент_98-4)"/><rect x="246.12" y="564.78" width="54.64" height="4.25" style="fill:#4d3782"/><path d="M284.08,369.22H259.55a2.12,2.12,0,0,0-2.12,2.12v24.53a2.12,2.12,0,0,0,2.12,2.12h24.53a2.12,2.12,0,0,0,2.12-2.12V371.35A2.12,2.12,0,0,0,284.08,369.22ZM282,393.75H261.67V373.47H282Z" style="fill:#4d3782"/><rect x="269.85" y="366.21" width="4.25" height="34.35" transform="translate(-191.44 304.6) rotate(-45)" style="fill:#4d3782"/><path d="M284.08,344.69H259.55a2.12,2.12,0,0,0-2.12,2.12v24.54a2.12,2.12,0,0,0,2.12,2.12h24.53a2.12,2.12,0,0,0,2.12-2.12V346.81A2.12,2.12,0,0,0,284.08,344.69ZM282,369.22H261.67V348.93H282Z" style="fill:#4d3782"/><rect x="254.79" y="356.98" width="34.35" height="4.25" transform="translate(-174.27 297.5) rotate(-45)" style="fill:#4d3782"/><path d="M284.08,418.31H259.55a2.12,2.12,0,0,0-2.12,2.12V445a2.12,2.12,0,0,0,2.12,2.12h24.53a2.12,2.12,0,0,0,2.12-2.12V420.43A2.12,2.12,0,0,0,284.08,418.31ZM282,442.84H261.67V422.55H282Z" style="fill:#4d3782"/><rect x="269.85" y="415.3" width="4.25" height="34.35" transform="translate(-226.14 318.96) rotate(-45)" style="fill:#4d3782"/><path d="M284.08,393.77H259.55a2.12,2.12,0,0,0-2.12,2.12v24.54a2.12,2.12,0,0,0,2.12,2.12h24.53a2.12,2.12,0,0,0,2.12-2.12V395.89A2.12,2.12,0,0,0,284.08,393.77ZM282,418.31H261.67V398H282Z" style="fill:#4d3782"/><rect x="254.79" y="406.06" width="34.35" height="4.25" transform="translate(-208.97 311.86) rotate(-45)" style="fill:#4d3782"/><path d="M284.08,320.9H259.55a2.12,2.12,0,0,0-2.12,2.12v23.79a2.12,2.12,0,0,0,2.12,2.12h24.53a2.12,2.12,0,0,0,2.12-2.12V323A2.12,2.12,0,0,0,284.08,320.9ZM282,344.69H261.67V325.14H282Z" style="fill:#4d3782"/><rect x="269.85" y="317.64" width="4.25" height="34.35" transform="translate(-157.09 290.37) rotate(-45)" style="fill:#4d3782"/><path d="M284.08,296.37H259.55a2.12,2.12,0,0,0-2.12,2.12V323a2.12,2.12,0,0,0,2.12,2.12h24.53a2.12,2.12,0,0,0,2.12-2.12V298.49A2.12,2.12,0,0,0,284.08,296.37ZM282,320.9H261.67V300.61H282Z" style="fill:#4d3782"/><rect x="254.79" y="308.4" width="34.35" height="4.25" transform="translate(-139.92 283.35) rotate(-45.01)" style="fill:#4d3782"/><path d="M284.08,272.58H259.55a2.12,2.12,0,0,0-2.12,2.12v23.79a2.12,2.12,0,0,0,2.12,2.12h24.53a2.12,2.12,0,0,0,2.12-2.12V274.7A2.12,2.12,0,0,0,284.08,272.58ZM282,296.37H261.67V276.82H282Z" style="fill:#4d3782"/><rect x="269.85" y="269.31" width="4.25" height="34.35" transform="translate(-122.92 276.22) rotate(-45)" style="fill:#4d3782"/><path d="M284.08,248H259.55a2.12,2.12,0,0,0-2.12,2.12V274.7a2.12,2.12,0,0,0,2.12,2.12h24.53a2.12,2.12,0,0,0,2.12-2.12V250.17A2.12,2.12,0,0,0,284.08,248ZM282,272.58H261.67V252.29H282Z" style="fill:#4d3782"/><rect x="254.79" y="260.08" width="34.35" height="4.25" transform="translate(-105.75 269.11) rotate(-45)" style="fill:#4d3782"/><path d="M284.08,515.69H259.55a2.12,2.12,0,0,0-2.12,2.12v24.53a2.12,2.12,0,0,0,2.12,2.12h24.53a2.12,2.12,0,0,0,2.12-2.12V517.82A2.12,2.12,0,0,0,284.08,515.69ZM282,540.23H261.67V519.94H282Z" style="fill:#4d3782"/><rect x="269.85" y="512.69" width="4.25" height="34.35" transform="translate(-295 347.48) rotate(-45)" style="fill:#4d3782"/><path d="M284.08,491.16H259.55a2.12,2.12,0,0,0-2.12,2.12v24.53a2.12,2.12,0,0,0,2.12,2.12h24.53a2.12,2.12,0,0,0,2.12-2.12V493.28A2.12,2.12,0,0,0,284.08,491.16ZM282,515.69H261.67V495.41H282Z" style="fill:#4d3782"/><rect x="254.79" y="503.45" width="34.35" height="4.25" transform="translate(-277.84 340.4) rotate(-45)" style="fill:#4d3782"/><path d="M284.08,540.24H259.55a2.12,2.12,0,0,0-2.12,2.12V566.9a2.12,2.12,0,0,0,2.12,2.12h24.53a2.12,2.12,0,0,0,2.12-2.12V542.37A2.12,2.12,0,0,0,284.08,540.24ZM282,564.78H261.67V544.49H282Z" style="fill:#4d3782"/><rect x="254.79" y="552.53" width="34.35" height="4.25" transform="translate(-312.55 354.78) rotate(-45)" style="fill:#4d3782"/><path d="M284.08,467.37H259.55a2.12,2.12,0,0,0-2.12,2.12v23.79a2.12,2.12,0,0,0,2.12,2.12h24.53a2.12,2.12,0,0,0,2.12-2.12V469.49A2.12,2.12,0,0,0,284.08,467.37ZM282,491.16H261.67V471.62H282Z" style="fill:#4d3782"/><rect x="269.85" y="464.11" width="4.25" height="34.35" transform="translate(-260.66 333.27) rotate(-45)" style="fill:#4d3782"/><path d="M284.08,442.84H259.55a2.12,2.12,0,0,0-2.12,2.12v24.53a2.12,2.12,0,0,0,2.12,2.12h24.53a2.12,2.12,0,0,0,2.12-2.12V445A2.12,2.12,0,0,0,284.08,442.84ZM282,467.37H261.67V447.08H282Z" style="fill:#4d3782"/><rect x="254.79" y="454.87" width="34.35" height="4.25" transform="translate(-243.52 326.28) rotate(-45.01)" style="fill:#4d3782"/><path d="M284.08,222.86H259.55a2.12,2.12,0,0,0-2.12,2.12v24.54a2.12,2.12,0,0,0,2.12,2.12h24.53a2.12,2.12,0,0,0,2.12-2.12V225A2.12,2.12,0,0,0,284.08,222.86ZM282,247.39H261.67V227.11H282Z" style="fill:#4d3782"/><rect x="269.85" y="220.09" width="4.25" height="34.35" transform="translate(-88.11 261.81) rotate(-45)" style="fill:#4d3782"/><path d="M284.08,199.07H259.55a2.12,2.12,0,0,0-2.12,2.12V225a2.12,2.12,0,0,0,2.12,2.12h24.53a2.12,2.12,0,0,0,2.12-2.12V201.19A2.12,2.12,0,0,0,284.08,199.07ZM282,222.86H261.67V203.31H282Z" style="fill:#4d3782"/><rect x="254.79" y="210.85" width="34.35" height="4.25" transform="translate(-70.94 254.69) rotate(-45)" style="fill:#4d3782"/><path d="M308.62,222.86H284.08A2.12,2.12,0,0,0,282,225v24.54a2.12,2.12,0,0,0,2.12,2.12h24.53a2.12,2.12,0,0,0,2.12-2.12V225A2.12,2.12,0,0,0,308.62,222.86Zm-2.12,24.53H286.21V227.11h20.29Z" style="fill:#4d3782"/><rect x="279.08" y="235.14" width="34.35" height="4.25" transform="translate(-81 278.98) rotate(-45)" style="fill:#4d3782"/><path d="M332.41,222.86H308.62a2.12,2.12,0,0,0-2.12,2.12v24.54a2.12,2.12,0,0,0,2.12,2.12h23.79a2.12,2.12,0,0,0,2.12-2.12V225A2.12,2.12,0,0,0,332.41,222.86Zm-2.12,24.53H310.74V227.11h19.54Z" style="fill:#4d3782"/><rect x="318.42" y="220.09" width="4.25" height="34.35" transform="translate(-73.88 296.16) rotate(-45)" style="fill:#4d3782"/><path d="M356.94,222.86H332.41a2.12,2.12,0,0,0-2.12,2.12v24.54a2.12,2.12,0,0,0,2.12,2.12h24.53a2.12,2.12,0,0,0,2.12-2.12V225A2.12,2.12,0,0,0,356.94,222.86Zm-2.12,24.53H334.53V227.11h20.29Z" style="fill:#4d3782"/><rect x="327.66" y="235.14" width="34.35" height="4.25" transform="translate(-66.77 313.33) rotate(-45)" style="fill:#4d3782"/><path d="M259.55,222.86H242a14.28,14.28,0,0,0-14.27,14.27v.25A14.28,14.28,0,0,0,242,251.64h17.59a2.12,2.12,0,0,0,2.12-2.12V225A2.12,2.12,0,0,0,259.55,222.86Zm-2.12,24.53H242a10,10,0,0,1-10-10v-.25a10,10,0,0,1,10-10h15.47Z" style="fill:#4d3782"/><rect x="284.45" y="247.39" width="103.34" height="4.25" style="fill:#4d3782"/><path d="M381,234.92l-23-11.83a2.12,2.12,0,0,0-3.09,1.89v24.08a2.12,2.12,0,0,0,2.12,2.12h23a2.12,2.12,0,0,0,2.12-2.12V236.81A2.12,2.12,0,0,0,381,234.92Zm-3.09,12h-18.8V228.46l18.8,9.65Z" style="fill:#4d3782"/><path d="M560.43,239.07H439.57a30.76,30.76,0,0,0-30.67,30.67V538.35A30.76,30.76,0,0,0,439.57,569H560.43a30.76,30.76,0,0,0,30.67-30.67V269.74A30.76,30.76,0,0,0,560.43,239.07Z" style="fill:#4d3782;fill-rule:evenodd"/><path d="M560.43,245.79H439.24a24,24,0,0,0-23.94,23.94V538.52a24.34,24.34,0,0,0,24.27,24.27H560.43a24.37,24.37,0,0,0,24.3-24.3V270.1A24.38,24.38,0,0,0,560.43,245.79Z" style="fill:#fff;fill-rule:evenodd"/><path d="M454.89,250.9A16.07,16.07,0,0,0,471,267h58.1a16.07,16.07,0,0,0,16.07-16.07v-6.47H454.89Z" style="fill:#4d3782;fill-rule:evenodd"/><rect x="424.95" y="467.24" width="150.14" height="57.72" style="fill:#f0f0f0"/><rect x="480.61" y="254.96" width="38.8" height="4.46" rx="2.21" ry="2.21" style="fill:#3a2b62"/><circle cx="500.02" cy="248.51" r="2.58" style="fill:#3a2b62"/><rect x="542.45" y="492.58" width="32.62" height="32.62" rx="5.4" ry="5.4" style="fill:url(#Безымянный_градиент_30-7)"/><rect x="503.28" y="492.58" width="32.62" height="32.62" rx="5.4" ry="5.4" style="fill:#ce61d4"/><rect x="464.11" y="492.58" width="32.62" height="32.62" rx="5.4" ry="5.4" style="fill:url(#Безымянный_градиент_98-5)"/><rect x="424.93" y="492.58" width="32.62" height="32.62" rx="5.4" ry="5.4" style="fill:#4d3782"/><rect x="542.45" y="292.76" width="32.62" height="32.61" rx="5.4" ry="5.4" style="fill:url(#Безымянный_градиент_30-8)"/><rect x="503.28" y="292.76" width="32.62" height="32.61" rx="5.4" ry="5.4" style="fill:#4d3782"/><rect x="464.11" y="292.76" width="32.62" height="32.61" rx="5.4" ry="5.4" style="fill:url(#Безымянный_градиент_98-6)"/><rect x="424.93" y="292.76" width="32.62" height="32.61" rx="5.4" ry="5.4" style="fill:#4d3782"/><rect x="464.11" y="335" width="32.62" height="32.62" rx="5.4" ry="5.4" style="fill:#ce61d4"/><rect x="503.28" y="335" width="32.62" height="32.62" rx="5.4" ry="5.4" style="fill:url(#Безымянный_градиент_98-7)"/><rect x="542.45" y="335" width="32.62" height="32.62" rx="5.4" ry="5.4" style="fill:#ce61d4"/><rect x="542.45" y="377.02" width="32.62" height="32.62" rx="5.4" ry="5.4" style="fill:url(#Безымянный_градиент_30-9)"/><rect x="464.11" y="377.02" width="32.62" height="32.62" rx="5.4" ry="5.4" style="fill:url(#Безымянный_градиент_98-8)"/><rect x="424.93" y="377.02" width="32.62" height="32.62" rx="5.4" ry="5.4" style="fill:#4d3782"/><rect x="424.93" y="419.26" width="32.62" height="32.61" rx="5.4" ry="5.4" style="fill:url(#Безымянный_градиент_30-10)"/><rect x="464.11" y="419.26" width="32.62" height="32.61" rx="5.4" ry="5.4" style="fill:#ce61d4"/><rect x="434.25" y="307.27" width="32.61" height="32.61" rx="5.4" ry="5.4" style="fill:url(#Безымянный_градиент_98-9)"/><path d="M362.63,296c-.87,1-.3,1.47-1.24,2.26a11,11,0,0,1,3.06-1.23c.59-.11,1.26-.05,1-.82C365.35,295.72,363.07,295.76,362.63,296Z" style="fill:#fcd2c5"/><path d="M367.06,287.65c-.33-.67-1.84.45-1.88.27-.18-.75-1.25-.73-2.78,1.49-.09.13-4.93,4.85-6.35,6.49a27.34,27.34,0,0,0,4.65,3,27.33,27.33,0,0,0,2.74-2.68c1-1.13,3.06-3.93,3.2-4.12a19.16,19.16,0,0,0,1.67-2.48,2.91,2.91,0,0,0-.29-1.72A.88.88,0,0,0,367.06,287.65Z" style="fill:#fcd2c5"/><path d="M362,299.59l-6.34-5.25c-6.81,7.3-20.44,26.15-22.75,33.43-5.45,17.14,6.24,56.71,6.24,56.71s13.43-28.45,13-28.69c-5.81-3.42-6.76-19.8-7-24.46a21.39,21.39,0,0,0-.26-2.27c1.42-2.44,3.21-5.78,5.1-9.3C354.05,312,359.19,302.46,362,299.59Z" style="fill:#ce61d4"/><path d="M339.2,477.5c0,1.6-3.57,78.62-3.57,78.62a6.55,6.55,0,0,0,5,1.65s15.27-77.44,15.39-81.12C353.73,478,340.37,478.93,339.2,477.5Z" style="fill:#fcd2c5"/><path d="M335.18,554.51a5.18,5.18,0,0,1,6.23.83s5.09-27.93,12.29-56.63c6.21-24.77,8.16-48.68,10.31-50L366.78,422c-10.28-.39-24.94-3.45-28.18-5.28C337.28,422.1,335.18,554.51,335.18,554.51Z" style="fill:#f0f0f0"/><path d="M335.7,554.68a12.36,12.36,0,0,1-1.15,1.21c-1.61,1.55-8.87,4.78-9.12,7.18-.13,1.21,2.31,2.57,4.39,2.87s3.91.37,5.09-.17c1.48-.67,4.48-3.84,5-4.54.91-1.22.91-4.6.91-4.6C339.61,553.76,335.7,554.68,335.7,554.68Z" style="fill:url(#Безымянный_градиент_98-10)"/><path d="M335.54,557.72c-2.09,1.46-8.83,3.82-9,5.85-.11,1,1.95,2.16,3.69,2.42a8.41,8.41,0,0,0,4.29-.14,19,19,0,0,0,4.21-3.83C341.06,558.75,337.57,556.31,335.54,557.72Z" style="fill:#4d3782"/><path d="M440.12,321.33c-.81,0-.57.61-.5,1.21a11,11,0,0,1-.31,3.29c.49-1.13,1.13-.73,1.81-1.83C441.26,323.5,440.64,321.3,440.12,321.33Z" style="fill:#fcd2c5"/><path d="M448.17,319.26c-.19,0,.47-1.76-.27-1.88a.88.88,0,0,0-.51-.84,2.91,2.91,0,0,0-1.73.21,19.14,19.14,0,0,0-1.9,2.31c-.15.19-2.25,2.92-3,4.24a27.4,27.4,0,0,0-1.79,3.38,27.4,27.4,0,0,0,4.19,3.61c1.16-1.83,4.32-7.81,4.42-7.93C449.23,320.25,448.94,319.21,448.17,319.26Z" style="fill:#fcd2c5"/><path d="M413.36,353.8a4,4,0,0,0-.58,1.09c-.7,1.93-.45,5,3.58,6,4.4,1.1,21.45-21.62,27.2-31.39a21.58,21.58,0,0,1-4.47-3.23C435.71,332.32,417.41,348.68,413.36,353.8Z" style="fill:#fcd2c5"/><path d="M412.57,352.17c-9.26,2.14-28.75,2.87-34.52,4.65-1,.32,2.33,12.43,3.65,14.2,3,4.08,28.43-5.69,36.82-10.71C421.7,358.41,423.93,349.55,412.57,352.17Z" style="fill:#fcd2c5"/><path d="M422,342.91c-2.84,2.81-5.54,5.48-7.47,7.53a21.44,21.44,0,0,0-2.25.4c-4.55,1.05-11.6,1.75-18.42,2.43s-14.21,1.94-19.32,1.12c-.48-.08,10.65,23.2,12.78,22.29,6.94-3,25-11.07,31.82-15.13,6.64-3.82,20.55-22.71,25.61-31.31l-6.84-4.59C435.93,329.13,428.2,336.77,422,342.91Z" style="fill:#ce61d4"/><path d="M366.79,477.48c-.26,3.67,6.91,82.27,6.91,82.27a6.55,6.55,0,0,0,5.11-1.13s4.45-77,4.59-78.57C382.08,481.36,368.88,479.1,366.79,477.48Z" style="fill:#fcd2c5"/><path d="M361.71,422v26.8c2,1.58,1.47,25.55,5.07,50.84,4.18,29.29,6.36,57.59,6.36,57.59a5.18,5.18,0,0,1,6.28-.18S391,425.15,390.28,419.69C386.88,421.18,372,422.7,361.71,422Z" style="fill:#f0f0f0"/><path d="M384,424.92c-10.28.52-20.51,1.19-30.8.64a62.38,62.38,0,0,1-17.89-3.47,163.06,163.06,0,0,0-.09,26.85c.24.5,4.46,2,6,2.38,8.74,2.16,28.33-.77,41.27-1.76,0,0,7.33-.42,8.32-.42a230.77,230.77,0,0,0,.13-24.71C388.66,424.68,386.33,424.8,384,424.92Z" style="fill:#f0f0f0"/><path d="M369.17,339.84c-.75.47-8.43,4-10.52,3.57,0,.59.95,6.87-.66,10.1.36,3.13,8.93,3.77,11.67-1.29C368.79,350.65,368.55,342.66,369.17,339.84Z" style="fill:#fcd2c5"/><path d="M362.16,329c-3.86-.54-7.68.08-8.81,3.69-.4,1.29-.7,13.18,5.5,15.43,2.62,1,8.09-3.25,8.52-6.35l.6-4.27C368.56,333.42,366.31,329.61,362.16,329Z" style="fill:#fcd2c5"/><path d="M378.19,355.15c-2.15-.68-8.52-2.94-8.52-2.94s-1.41,1.69-5.43,2.23a11,11,0,0,1-6.24-.94s-5.63,2.31-9.79-3.67c-3.5-5-4.5,14.19-5.92,18.27-1.12,3.21-9.81,48.63-7.11,75.47.24.5,2.22,1.12,2.9,1.46l1.54-16.25,1.59,17.17c8.87,1.53,28.33-.77,41.27-1.76L385.16,425l2.28,18.91c1.25-.06,2.37-.1,3.36-.1,2-29.54-4.53-74.24-4.5-75.63C386.43,362.39,384.64,357.21,378.19,355.15Z" style="fill:#ce61d4"/><path d="M379.91,558.51a12.34,12.34,0,0,1-1-1.33s-3.8-1.33-5.3,1.41c0,0-.35,3.37.43,4.67.45.75,3.11,4.21,4.5,5,1.12.66,3,.78,5,.69s4.66-1.18,4.66-2.4C388.24,564.18,381.34,560.22,379.91,558.51Z" style="fill:url(#Безымянный_градиент_98-11)"/><path d="M378.73,560.23c-1.87-1.62-5.59.45-3.58,3.95a19,19,0,0,0,3.79,4.24,8.38,8.38,0,0,0,4.25.58c1.76-.07,3.92-1,3.92-2C387.12,564.95,380.66,561.9,378.73,560.23Z" style="fill:#4d3782"/><path d="M370.65,324.94c-5.71-5.22-16.3-1.37-19.45,4.65-2.35,4.49-4,1.13-3.69-.09-.84,3,.27,5.81,6.26,5.81,1.26,0-2.86.94-2.86.94s5.38,13.68,15.46,11.19a15.16,15.16,0,0,0,5.75-3.41s-3.23.29-1.35-2.18C374.41,337.05,375.69,329.55,370.65,324.94Z" style="fill:#53d6f2"/><path d="M584.61,446.54c0,.52,2.22,1,2.71.87,1.07-.74.63-1.36,1.73-1.91a11,11,0,0,1-3.27.48C585.2,445.94,584.56,445.74,584.61,446.54Z" style="fill:#fcd2c5"/><path d="M589.89,445.07a27.43,27.43,0,0,0-3.29,2c-1.27.86-3.89,3.1-4.07,3.26a19,19,0,0,0-2.21,2,2.91,2.91,0,0,0-.13,1.74.88.88,0,0,0,.87.46c.16.73,1.89,0,1.89.18,0,.77,1,1,3.05-.8.12-.11,5.93-3.56,7.7-4.81A27.33,27.33,0,0,0,589.89,445.07Z" style="fill:#fcd2c5"/><path d="M631.26,385.66c-1.83-1.23-14.1-4-14.37-2.92-1.49,5.86-1.23,25.35-2.89,34.71-2,11.48,6.7,8.8,8.44,5.53C627,414.35,635.49,388.5,631.26,385.66Z" style="fill:#fcd2c5"/><path d="M616.74,417.52a3.91,3.91,0,0,0-1.06.64c-4.91,4.31-20.32,23.42-26.15,27.09a21.71,21.71,0,0,1,3.45,4.3c9.47-6.24,31.3-24.43,30-28.76C621.74,416.82,618.63,416.73,616.74,417.52Z" style="fill:#fcd2c5"/><path d="M631.76,384.57c-1.89-1.23-13.09-3.78-15.15-2.89a1.56,1.56,0,0,0-.91,1.05c-.71,3-.93,9.26-1.15,15.9s-.46,13.57-1.19,18.06a20.27,20.27,0,0,0-.24,2.21c-1.87,2-4.29,4.8-6.84,7.75-5.57,6.43-12.51,14.44-15.78,16.56l4.9,6.36c8-5.47,25.52-20.19,28.81-26.9C627.72,415.78,637.42,388.25,631.76,384.57Z" style="fill:#53d6f2"/><path d="M593.25,402.07c6.64-8.73,8.58-21.65,4.2-31.76S586,352.66,575.1,352.59v.75l11,25.41a3.43,3.43,0,0,1-1.63,4.75l-20.84,9.05a3.91,3.91,0,0,1-5.11-1.85l-11.09-25.57c-.08-.18.13-.46.08-.64-7.47,8-7.09,18.35-2.65,28.61a32.62,32.62,0,0,0,25.8,18.75l64.73,149.29A13,13,0,0,0,652.27,568l.2-.09c6.42-2.78,8.3-10.15,5.52-16.58ZM649.77,562a4.91,4.91,0,1,1,2.55-6.45A4.91,4.91,0,0,1,649.77,562Z" style="fill:url(#Безымянный_градиент_98-12)"/><path d="M723,552.62c-1-1-1.56-.94-1.56-.94l-4.38,2.14s.6,1.53.9,2.65c.58,2.15-2.36,8.51-.38,9.89,1,.7,3.37-.78,4.64-2.45s2.22-3.24,2.32-4.54c.12-1.62,1-4.21.69-5A3.47,3.47,0,0,0,723,552.62Z" style="fill:#4d3782"/><path d="M716.79,553.79a10.57,10.57,0,0,1,1.18,2.68,7.13,7.13,0,0,0,3.37-.67c.93-.46,1.68-3.18,1.68-3.18-1-1-1.67-1.55-1.67-1.55Z" style="fill:#fcd2c5"/><path d="M682.08,429.1c-9.9,2.81-23.2,4.37-26.84,3.62.21,2.88,9.7,38.73,19.62,73.26,4.75,16.52,42.52,48.92,42.52,48.92a5.76,5.76,0,0,0,5.27-2.63S694.27,513,693,502.14C690.21,477.58,687.88,446.3,682.08,429.1Z" style="fill:#ce61d4"/><path d="M642.15,480.07c.14,1.59,4.59,81.3,4.59,81.3a6.56,6.56,0,0,0,5.11,1.13s7.17-81.34,6.91-85C656.67,479.11,643.47,481.37,642.15,480.07Z" style="fill:#fcd2c5"/><path d="M651.57,561.37,647.31,559s-.91,1.37-1.66,2.25c-1.44,1.7-8.33,2.94-8.33,5.35,0,1.22,2.57,2.32,4.66,2.4a14.32,14.32,0,0,0,5.05-.7c1.23-.4,4.05-1.55,4.5-2.3a3.48,3.48,0,0,0,.17-2.82C651.91,561.84,651.57,561.37,651.57,561.37Z" style="fill:#4d3782"/><path d="M645.65,561.26a7.13,7.13,0,0,0,2.48,2.37c.91.5,3.57-.44,3.57-.44.22-1.35.32-2.26.32-2.26l-4.84-2.18A10.59,10.59,0,0,1,645.65,561.26Z" style="fill:#fcd2c5"/><path d="M635.27,419.7c-.76,5.46,10.86,140.12,10.86,140.12.06.23,4.2,2.48,6.29.18,0,0,2.18-31,6.36-60.33,3.61-25.28,3.07-49.26,5.07-50.84V422C653.58,422.71,638.68,421.19,635.27,419.7Z" style="fill:#ce61d4"/><path d="M631.24,437s1.85,7,2.68,8.84c2.32,5.27,9,6.73,13.48,5.2l.26-5.72,3.66,4.92c21.36-4.13,33.92-13.9,33.92-13.9.42-8.23-5.82-19.51-5.82-19.51Z" style="fill:#f0f0f0"/><path d="M630.64,355c-.51.72-6.22,7-8.32,7.35.2.55,3.53,6,3.29,9.56,1.55,2.75,9.69,0,10.27-5.7C634.46,365.14,631.15,357.87,630.64,355Z" style="fill:#fcd2c5"/><path d="M644.87,365.66c-2.25.2-9,.58-9,.58s-3.1,5.27-5.92,6.46c-1.94.81-4.34-.76-4.34-.76s-6.41,4.57-7.46,5.76c-4.06,4.62-3.44,10-1.4,13.77,7.1,13.31,10.57,48.33,15.42,48.92,6.62.8,41.19-7.69,49-20.07,0,0-13.1-33.36-21.53-45.81C656.41,369.75,651.61,365.07,644.87,365.66Z" style="fill:#53d6f2"/><path d="M610.84,442c0,.52,2.27.92,2.75.74,1-.79.57-1.39,1.64-2a11,11,0,0,1-3.24.63C611.39,441.38,610.74,441.2,610.84,442Z" style="fill:#fcd2c5"/><path d="M616,440.28a27.33,27.33,0,0,0-3.19,2.12c-1.23.92-3.74,3.28-3.91,3.45a19.07,19.07,0,0,0-2.11,2.12,2.92,2.92,0,0,0,0,1.74.88.88,0,0,0,.89.42c.19.72,1.89-.1,1.9.08,0,.77,1.09,1,3-.94.11-.11,5.75-3.84,7.46-5.18A27.46,27.46,0,0,0,616,440.28Z" style="fill:#fcd2c5"/><path d="M654.5,379c-1.89-1.14-14.27-3.3-14.49-2.23-1.2,5.92,0,25.39-1.21,34.81-1.48,11.56,7.11,8.47,8.69,5.11C651.65,407.81,658.86,381.58,654.5,379Z" style="fill:#fcd2c5"/><path d="M641.53,411.47a4,4,0,0,0-1,.69c-4.7,4.54-19.16,24.37-24.81,28.32a21.67,21.67,0,0,1,3.65,4.13c9.16-6.69,30.08-25.91,28.55-30.17C646.49,410.53,643.38,410.59,641.53,411.47Z" style="fill:#fcd2c5"/><path d="M655.53,377.57c-2-1.14-13.26-3.15-15.27-2.16a1.55,1.55,0,0,0-.86,1.1c-.57,3-.19,29.51-.7,34a20.77,20.77,0,0,0-.14,2.23c-1.77,2.1-4.05,5-6.46,8.07-5.26,6.69-11.8,15-15,17.3l5.2,6.11c7.77-5.85,24.52-21.4,27.48-28.25C653,408.92,661.35,381,655.53,377.57Z" style="fill:#53d6f2"/><path d="M624.09,369.35a23.24,23.24,0,0,1-1.89-10.71c-.09-.08-6.64-4.09-7.66-.85a21.58,21.58,0,0,0,2.68,11.7,19.1,19.1,0,0,1,2.32,13c-.81,3.8.35,8.37,1.12,10.47,4.47,12.29,13.56,16.31,15.41,14.5,2-2-7.34-12.44-7.64-24.6C628.21,374.43,625.63,372.54,624.09,369.35Z" style="fill:#4d3782"/><path d="M628.64,353.36c-1.05-4-5.4-7.1-9.46-6-3.77,1-6.25,3.48-5.89,7.24.13,1.35,4.45,12.43,11,12.11,2.78-.13,6.2-6.12,5.41-9.15Z" style="fill:#fcd2c5"/><path d="M647.52,371.09a16.62,16.62,0,0,1-6.17-13.82,19,19,0,0,0-9.23-16.65,11.25,11.25,0,0,0-12.92.3c-3.15,2.58-3,3.28-3,3.28a6.17,6.17,0,0,0-3.64,1.81c-3.63,3.65-.41,13.35,3.91,15.37-5.41-9.85.7-13.48.7-13.48s4.75-.89,7.8,1.1c2.77,1.81,6.76,7.71,7,13,.18,4.08-2,7.69,3.8,15.73,8.28,11.56,3.05,28,7.22,28.41,3.8.37,13.23-9.87,10.51-24.53C653,379.15,651.33,374.06,647.52,371.09Z" style="fill:#4d3782"/><path d="M628,351.85a3.55,3.55,0,0,0-1.46,1.12,50.51,50.51,0,0,0,3.24,3.95,3.74,3.74,0,0,0,1.08-3.46C630.46,352.45,629,351.46,628,351.85Z" style="fill:#fcd2c5"/><polygon points="881.02 526.37 881.81 563.49 941.12 563.49 941.39 526.11 911.2 498.96 881.02 526.37" style="fill:#d5dbe0"/><rect x="885.85" y="511.61" width="51.08" height="49.68" style="fill:#fff"/><polygon points="902.47 548.96 881.02 569.02 941.39 569.02 920.05 548.96 902.47 548.96" style="fill:#f0f0f0"/><polygon points="881.06 569.01 902.51 548.96 881.06 527.5 881.06 569.01" style="fill:#d5dbe0"/><polygon points="941.42 569.01 941.42 527.5 920.05 548.96 941.42 569.01" style="fill:#d5dbe0"/><path d="M101.81,504.73,80,504.16a5.4,5.4,0,0,0-5.54,5.25l-.57,21.81a5.4,5.4,0,0,0,5.25,5.54l21.81.57a5.4,5.4,0,0,0,5.54-5.25l.57-21.81A5.4,5.4,0,0,0,101.81,504.73Z" style="fill:#4d3782"/><path d="M106,499.9a5.4,5.4,0,0,0-7.63.14L83.19,515.76a5.4,5.4,0,0,0,.14,7.63L99,538.53a5.4,5.4,0,0,0,7.63-.14l15.14-15.72a5.4,5.4,0,0,0-.14-7.63Z" style="fill:url(#Безымянный_градиент_90-5)"/><rect x="105.87" y="513.55" width="32.62" height="32.61" rx="5.4" ry="5.4" style="fill:#f0f0f0"/><rect x="71.92" y="520.82" width="56.24" height="48.2" style="fill:#fff"/><rect x="128.16" y="520.82" width="20.66" height="48.2" style="fill:#f0f0f0"/><polygon points="71.92 550.66 118.86 550.66 128.21 520.82 71.92 520.82 71.92 550.66" style="fill:#d5dbe0"/><polygon points="128.4 522.14 137.51 560.99 148.81 560.99 148.81 520.82 128.16 520.82 128.4 522.14" style="fill:#d5dbe0"/><polygon points="61.11 540.52 118.86 540.52 128.26 520.75 72.26 520.75 61.11 540.52" style="fill:#fff"/><polygon points="128.46 520.75 136.91 544.53 157.29 544.53 148.84 520.75 128.46 520.75" style="fill:#f0f0f0"/><path d="M296.33,480c-.44,2.09.2,4.58-.16,6.73-.46,2.69-2.17,3.46-3.32,5.16-1.37,2-2,5.78-1.49,9a46.72,46.72,0,0,0,1.49,5.48,12.83,12.83,0,0,1,.41,6c-.65,2.86-4.12,5.08-4.12,17.19,0,11.06,7.89,15.36,10.13,18.06V475.88l-1,1A5.84,5.84,0,0,0,296.33,480Z" style="fill:url(#Безымянный_градиент_98-13)"/><path d="M305.55,506.37a46.91,46.91,0,0,0,1.49-5.48c.5-3.21-.12-7-1.49-9-1.16-1.7-2.86-2.47-3.32-5.16-.37-2.15.28-4.63-.16-6.73a5.84,5.84,0,0,0-1.92-3.16l-1-1v71.69c2.24-2.71,10.13-7,10.13-18.06,0-12.11-3.47-14.33-4.12-17.19A12.83,12.83,0,0,1,305.55,506.37Z" style="fill:url(#Безымянный_градиент_98-14)"/><path d="M309.24,522.85c-.52.68-.29,1.71-.76,2.43-.59.9-1.89.86-2.88,1.27a3.19,3.19,0,0,0-1.93,3,11.82,11.82,0,0,0,.55,2.29,2.62,2.62,0,0,1-.27,2.26c-.74.93-3.45,1.09-4.61,5.53-1.05,4.05,4.22,7.11,5.57,8.52l6.84-26.28-.82.17A2.69,2.69,0,0,0,309.24,522.85Z" style="fill:url(#Безымянный_градиент_90-6)"/><path d="M312.84,526.42c-.06-.86.65-1.65.53-2.5a2.69,2.69,0,0,0-1.08-1.52l-.64-.55-6.84,26.28c1.87-.57,8-.67,9-4.72,1.16-4.44-1.13-5.9-1.33-7.07a2.62,2.62,0,0,1,.86-2.11,11.77,11.77,0,0,0,1.6-1.73,3.19,3.19,0,0,0-.22-3.57C314.07,528.1,312.92,527.49,312.84,526.42Z" style="fill:url(#Безымянный_градиент_90-7)"/><path d="M286.21,545.76s4.92,5.27,4.92,8.82a15.63,15.63,0,0,1-.84,4A8,8,0,0,0,297.89,569h13a8,8,0,0,0,7.61-10.42,15.6,15.6,0,0,1-.84-4c0-3.55,4.92-8.82,4.92-8.82Z" style="fill:#fff"/><path d="M150,21.16c12,0,17.94,6.88,17.94,15.37,0,6.12-3.34,11.89-10.85,14.12L168.31,70H154.89L144.74,51.54h-2.85V70H130V21.16ZM149.26,31h-7.37v12.1h7.37c4.45,0,6.54-2.29,6.54-6.12C155.8,33.39,153.71,31,149.26,31Z" style="fill:url(#Безымянный_градиент_30-11)"/><path d="M190.09,30.61c5.77,0,9.87,2.64,12,6V31.17h11.89V70H202V64.48c-2.16,3.41-6.26,6-12,6-9.46,0-17-7.79-17-20S180.56,30.61,190.09,30.61ZM193.56,41c-4.45,0-8.48,3.34-8.48,9.53s4,9.67,8.48,9.67,8.48-3.41,8.48-9.6S198.08,41,193.56,41Z" style="fill:url(#Безымянный_градиент_30-12)"/><path d="M246.42,30.61c9.53,0,17.11,7.65,17.11,19.89s-7.58,20-17.11,20a14,14,0,0,1-12-6V88.47H222.56V31.17h11.89v5.49C236.61,33.26,240.71,30.61,246.42,30.61ZM242.87,41c-4.45,0-8.48,3.41-8.48,9.6s4,9.6,8.48,9.6,8.55-3.48,8.55-9.67S247.39,41,242.87,41Z" style="fill:url(#Безымянный_градиент_30-13)"/><path d="M268.67,20.74c0-3.62,2.85-6.47,7.09-6.47s7,2.85,7,6.47-2.85,6.4-7,6.4S268.67,24.29,268.67,20.74Zm1.11,10.43h11.89V70H269.79Z" style="fill:url(#Безымянный_градиент_30-14)"/><path d="M305,30.61a14.24,14.24,0,0,1,12,5.91v-18h11.89V70H317V64.41c-2.16,3.55-6.26,6.12-12,6.12-9.53,0-17.11-7.79-17.11-20S295.52,30.61,305,30.61ZM308.52,41c-4.45,0-8.48,3.34-8.48,9.53s4,9.67,8.48,9.67,8.48-3.41,8.48-9.6S313,41,308.52,41Z" style="fill:url(#Безымянный_градиент_30-15)"/><path d="M382.65,61.35H364.43L361.51,70H349.07l17.66-48.81H380.5L398.16,70H385.57Zm-9.11-27-6,17.87h12Z" style="fill:url(#Безымянный_градиент_30-16)"/><path d="M427.37,30.61c9.53,0,17.11,7.65,17.11,19.89s-7.58,20-17.11,20a14,14,0,0,1-12-6V88.47H403.52V31.17h11.89v5.49C417.57,33.26,421.67,30.61,427.37,30.61ZM423.83,41c-4.45,0-8.48,3.41-8.48,9.6s4,9.6,8.48,9.6,8.55-3.48,8.55-9.67S428.35,41,423.83,41Z" style="fill:url(#Безымянный_градиент_30-17)"/><path d="M474.59,30.61c9.53,0,17.11,7.65,17.11,19.89s-7.58,20-17.11,20a14,14,0,0,1-12-6V88.47H450.74V31.17h11.89v5.49C464.79,33.26,468.89,30.61,474.59,30.61ZM471,41c-4.45,0-8.48,3.41-8.48,9.6s4,9.6,8.48,9.6,8.55-3.48,8.55-9.67S475.57,41,471,41Z" style="fill:url(#Безымянный_градиент_30-18)"/><path d="M527.45,30.61a14.24,14.24,0,0,1,12,5.91v-18H551.3V70H539.41V64.41c-2.16,3.55-6.26,6.12-12,6.12-9.53,0-17.11-7.79-17.11-20S517.92,30.61,527.45,30.61ZM530.92,41c-4.45,0-8.48,3.34-8.48,9.53s4,9.67,8.48,9.67,8.48-3.41,8.48-9.6S535.44,41,530.92,41Z" style="fill:url(#Безымянный_градиент_30-19)"/><path d="M577.17,70.53c-11.4,0-19.61-7.65-19.61-20s8.07-20,19.61-20c11.34,0,19.33,7.51,19.33,19.33a29.92,29.92,0,0,1-.21,3.48H569.38c.42,5.08,3.55,7.44,7.37,7.44a6.32,6.32,0,0,0,6.19-3.75H595.6C593.72,64.69,586.84,70.53,577.17,70.53Zm-7.72-23.71h14.88c0-4.24-3.34-6.68-7.3-6.68S570.15,42.5,569.45,46.82Z" style="fill:url(#Безымянный_градиент_30-20)"/><path d="M611.81,31.17l8.41,27.68,8.41-27.68h12.66L627.52,70H612.85l-13.77-38.8Z" style="fill:url(#Безымянный_градиент_30-21)"/><path d="M663.55,70.53c-11.4,0-19.61-7.65-19.61-20s8.07-20,19.61-20c11.34,0,19.33,7.51,19.33,19.33a29.92,29.92,0,0,1-.21,3.48H655.76c.42,5.08,3.55,7.44,7.37,7.44a6.32,6.32,0,0,0,6.19-3.75H682C680.1,64.69,673.21,70.53,663.55,70.53Zm-7.72-23.71h14.88c0-4.24-3.34-6.68-7.3-6.68S656.52,42.5,655.83,46.82Z" style="fill:url(#Безымянный_градиент_30-22)"/><path d="M689.14,18.51H701V70H689.14Z" style="fill:url(#Безымянный_градиент_30-23)"/><path d="M727.32,70.53c-11.4,0-20-7.65-20-20s8.83-20,20.16-20,20.17,7.65,20.17,20S738.72,70.53,727.32,70.53Zm0-10.29c4.24,0,8.21-3.13,8.21-9.67s-3.89-9.67-8.07-9.67-8.07,3.06-8.07,9.67S723,60.24,727.32,60.24Z" style="fill:url(#Безымянный_градиент_30-24)"/><path d="M777.81,30.61c9.53,0,17.11,7.65,17.11,19.89s-7.58,20-17.11,20a14,14,0,0,1-12-6V88.47H754V31.17h11.89v5.49C768,33.26,772.11,30.61,777.81,30.61ZM774.26,41c-4.45,0-8.48,3.41-8.48,9.6s4,9.6,8.48,9.6,8.55-3.48,8.55-9.67S778.78,41,774.26,41Z" style="fill:url(#Безымянный_градиент_30-25)"/><path d="M854.65,48.9c0-5.08-2.92-7.86-7.44-7.86s-7.44,2.78-7.44,7.86V70H828V48.9C828,43.83,825,41,820.51,41s-7.44,2.78-7.44,7.86V70H801.18V31.17h11.89V36a13.69,13.69,0,0,1,11.33-5.28c5.84,0,10.57,2.57,13.21,7.23a15.61,15.61,0,0,1,13.07-7.23c9.6,0,15.78,6.12,15.78,16.55V70H854.65Z" style="fill:url(#Безымянный_градиент_30-26)"/><path d="M892.07,70.53c-11.4,0-19.61-7.65-19.61-20s8.07-20,19.61-20c11.34,0,19.33,7.51,19.33,19.33a29.92,29.92,0,0,1-.21,3.48H884.29c.42,5.08,3.55,7.44,7.37,7.44a6.32,6.32,0,0,0,6.19-3.75H910.5C908.62,64.69,901.74,70.53,892.07,70.53Zm-7.72-23.71h14.88c0-4.24-3.34-6.68-7.3-6.68S885,42.5,884.35,46.82Z" style="fill:url(#Безымянный_градиент_30-27)"/><path d="M944.44,48.9c0-5.28-2.92-8.21-7.44-8.21s-7.44,2.92-7.44,8.21V70H917.67V31.17h11.89v5.15a14.23,14.23,0,0,1,11.75-5.56c9,0,15,6.12,15,16.55V70H944.44Z" style="fill:url(#Безымянный_градиент_30-28)"/><path d="M966.42,41h-4.73V31.17h4.73V21.71h11.89v9.46h7.79V41h-7.79V56.62c0,2.29,1,3.27,3.62,3.27h4.24V70h-6c-8.07,0-13.7-3.41-13.7-13.49Z" style="fill:url(#Безымянный_градиент_30-29)"/><text transform="translate(467.58 141.83)" style="font-size:55.68187713623047px;fill:#0071bc;font-family:Poppins-LightItalic, Poppins;font-style:italic">minimizes the cost</text></g></g></svg>