<svg xmlns="http://www.w3.org/2000/svg" viewBox="0 0 514 514"><title>favicon</title><g id="Layer_2" data-name="Layer 2"><g id="Layer_1-2" data-name="Layer 1"><circle cx="257" cy="257" r="257" style="fill:#263544"/><circle cx="257" cy="257" r="257" style="fill:#462255"/><path d="M257,63.74,84.49,322.26h28.71a58.93,58.93,0,0,0,49-26.18L257.35,153.7l95.46,142.44a58.93,58.93,0,0,0,49,26.12h28.76Z" style="fill:#8cbf9f"/><path d="M84.49,356.66h328a18.05,18.05,0,0,1,18.05,18.05v25.46a0,0,0,0,1,0,0h-328a18.05,18.05,0,0,1-18.05-18.05V356.66a0,0,0,0,1,0,0Z" style="fill:#8cbf9f"/></g></g></svg>